<?xml version="1.0" standalone="no"?>
<!DOCTYPE svg PUBLIC "-//W3C//DTD SVG 1.1//EN" "http://www.w3.org/Graphics/SVG/1.1/DTD/svg11.dtd" >
<svg xmlns="http://www.w3.org/2000/svg" xmlns:xlink="http://www.w3.org/1999/xlink" version="1.1">
<metadata>
Created by FontForge 20161003 at Fri May 17 20:02:28 2019
 By www-data
Copyright (c) 2018 Schick Toikka. All rights reserved. Scto Grotesk A is a trademark of Schick Toikka. Unauthorised copying or modification of any of its data is illegal.
</metadata>
<defs>
<font id="SctoGroteskABlack" horiz-adv-x="825" >
  <font-face 
    font-family="SctoGroteskABlack"
    font-weight="900"
    font-stretch="normal"
    units-per-em="1000"
    panose-1="2 11 10 5 3 1 1 1 1 1"
    ascent="800"
    descent="-200"
    x-height="500"
    cap-height="694"
    bbox="-200 -278 1221 966"
    underline-thickness="39"
    underline-position="-213"
    unicode-range="U+0020-FB02"
  />
<missing-glyph horiz-adv-x="630" 
d="M575 694v-869h-520v869h520zM338 261l195 -351v703zM314 217l-194 -350h388zM289 261l-192 348v-695zM122 652l192 -347l192 347h-384z" />
    <glyph glyph-name="fi" unicode="fi" horiz-adv-x="711" 
d="M405 698v-130q-32 5 -65 5q-36 0 -50.5 -16t-14.5 -49v-8h130v-133h-130v-367h-180v367h-71v133h71v28q0 178 199 178q60 0 111 -8zM479 500h180v-500h-180v500zM469 562v132h200v-132h-200z" />
    <glyph glyph-name="fl" unicode="fl" horiz-adv-x="711" 
d="M405 698v-130q-32 5 -65 5q-36 0 -50.5 -16t-14.5 -49v-8h130v-133h-130v-367h-180v367h-71v133h71v28q0 178 199 178q60 0 111 -8zM479 694h180v-694h-180v694z" />
    <glyph glyph-name=".notdef" horiz-adv-x="630" 
d="M575 694v-869h-520v869h520zM338 261l195 -351v703zM314 217l-194 -350h388zM289 261l-192 348v-695zM122 652l192 -347l192 347h-384z" />
    <glyph glyph-name=".null" horiz-adv-x="0" 
 />
    <glyph glyph-name="nonmarkingreturn" horiz-adv-x="333" 
 />
    <glyph glyph-name="space" unicode=" " horiz-adv-x="190" 
 />
    <glyph glyph-name="exclam" unicode="!" horiz-adv-x="327" 
d="M230 282h-133l-27 280v132h187v-132zM70 0v191h187v-191h-187z" />
    <glyph glyph-name="quotedbl" unicode="&#x22;" horiz-adv-x="498" 
d="M218 694l-23 -303h-117l-23 303h163zM443 694l-23 -303h-117l-23 303h163z" />
    <glyph glyph-name="numbersign" unicode="#" horiz-adv-x="708" 
d="M95 407v121h101l23 145h130l-23 -145h100l23 145h130l-23 -145h97v-121h-115l-19 -122h94v-121h-112l-22 -144h-130l22 144h-100l-22 -144h-130l22 144h-86v121h104l19 122h-83zM308 407l-19 -122h100l19 122h-100z" />
    <glyph glyph-name="dollar" unicode="$" horiz-adv-x="641" 
d="M55 493q0 83 51.5 138t138.5 70v99h151v-101q89 -17 141.5 -72.5t52.5 -151.5h-177q-6 97 -97 97q-39 0 -61.5 -18.5t-22.5 -46.5q0 -25 16 -40t54 -25l123 -31q174 -44 174 -200q0 -88 -54 -145.5t-149 -72.5v-99h-151v101q-98 17 -149.5 81t-53.5 165h176
q3 -55 32.5 -85.5t77.5 -30.5q43 0 68.5 18t25.5 50q0 52 -69 69l-123 31q-175 46 -175 200z" />
    <glyph glyph-name="percent" unicode="%" horiz-adv-x="877" 
d="M258 0h-106l465 694h106zM164 526q0 -40 17 -63t47 -23t47 23t17 63t-17 63t-47 23t-47 -23t-17 -63zM401 526q0 -84 -51 -130.5t-122 -46.5t-122 46.5t-51 130.5t51 130.5t122 46.5t122 -46.5t51 -130.5zM585 166q0 -40 17 -63t47 -23t47 23t17 63t-17 63t-47 23
t-47 -23t-17 -63zM822 166q0 -84 -51 -130.5t-122 -46.5t-122 46.5t-51 130.5t51 130.5t122 46.5t122 -46.5t51 -130.5z" />
    <glyph glyph-name="ampersand" unicode="&#x26;" horiz-adv-x="781" 
d="M564 0l-40 38q-92 -50 -214 -50q-126 0 -200.5 54t-74.5 141q0 114 146 190q-63 75 -63 151q0 78 58 130t169 52q109 0 168 -52t59 -123q0 -116 -153 -190l111 -108q36 59 36 125h144q0 -132 -75 -227l136 -131h-207zM327 122q50 0 93 17l-142 137q-66 -36 -66 -77
q0 -35 31.5 -56t83.5 -21zM282 523q0 -44 39 -87q47 22 66 42t19 48t-16.5 45t-44.5 17q-27 0 -45 -19t-18 -46z" />
    <glyph glyph-name="quotesingle" unicode="'" horiz-adv-x="273" 
d="M218 694l-23 -303h-117l-23 303h163z" />
    <glyph glyph-name="parenleft" unicode="(" horiz-adv-x="383" 
d="M230 305q4 -225 130 -412h-154q-136 188 -136 412t136 412h154q-126 -187 -130 -412z" />
    <glyph glyph-name="parenright" unicode=")" horiz-adv-x="383" 
d="M153 305q-4 225 -130 412h154q136 -188 136 -412t-136 -412h-154q126 187 130 412z" />
    <glyph glyph-name="asterisk" unicode="*" horiz-adv-x="455" 
d="M176 366l-91 65l55 71l-85 27l34 106l84 -30v89h112l-3 -89l84 30l34 -106l-85 -27l55 -71l-91 -65l-52 73z" />
    <glyph glyph-name="plus" unicode="+" horiz-adv-x="650" 
d="M72 258v129h187v188h131v-188h187v-129h-187v-188h-131v188h-187z" />
    <glyph glyph-name="comma" unicode="," horiz-adv-x="317" 
d="M252 191v-206q0 -78 -48.5 -120t-143.5 -42v92q52 2 72.5 22.5t20.5 60.5v2h-88v191h187z" />
    <glyph glyph-name="hyphen" unicode="-" horiz-adv-x="402" 
d="M55 197v148h292v-148h-292z" />
    <glyph glyph-name="period" unicode="." horiz-adv-x="317" 
d="M65 0v191h187v-191h-187z" />
    <glyph glyph-name="slash" unicode="/" horiz-adv-x="510" 
d="M480 716l-297 -823h-153l296 823h154z" />
    <glyph glyph-name="zero" unicode="0" horiz-adv-x="656" 
d="M328 -12q-56 0 -104.5 18t-91.5 57.5t-67.5 112t-24.5 171.5t24.5 171.5t67.5 112t91.5 57.5t104.5 18t104.5 -18t91.5 -57.5t67.5 -112t24.5 -171.5t-24.5 -171.5t-67.5 -112t-91.5 -57.5t-104.5 -18zM328 132q96 0 96 215t-96 215t-96 -215t96 -215z" />
    <glyph glyph-name="one" unicode="1" horiz-adv-x="439" 
d="M354 0h-184v509l-140 -95v180l143 100h181v-694z" />
    <glyph glyph-name="two" unicode="2" horiz-adv-x="605" 
d="M48 0v147l273 245q57 50 57 104q0 31 -20 51t-53 20q-38 0 -58 -26.5t-20 -74.5h-185q0 115 66.5 177.5t198.5 62.5q114 0 185.5 -55.5t71.5 -149.5q0 -68 -30.5 -117t-84.5 -97l-149 -132h265v-155h-517z" />
    <glyph glyph-name="three" unicode="3" horiz-adv-x="635" 
d="M317 -12q-135 0 -207.5 57t-74.5 158h187q3 -36 28 -57.5t63 -21.5t64.5 22.5t26.5 59.5q0 84 -107 84h-46v125h31q107 0 107 82q0 34 -21.5 54t-54.5 20q-35 0 -55 -20.5t-21 -59.5h-185q1 103 68.5 159t195.5 56q123 0 191 -57.5t68 -140.5q0 -53 -26.5 -90.5
t-74.5 -52.5q49 -16 83 -58t34 -103q0 -97 -71 -156.5t-203 -59.5z" />
    <glyph glyph-name="four" unicode="4" horiz-adv-x="662" 
d="M549 0h-180v131h-339v150l307 413h212v-418h73v-145h-73v-131zM369 276v226l-164 -226h164z" />
    <glyph glyph-name="five" unicode="5" horiz-adv-x="613" 
d="M315 -12q-135 0 -205 61t-70 153h187q0 -33 23.5 -56t56.5 -23q43 0 66 27t23 73q0 48 -23 75t-66 27q-27 0 -49 -15t-31 -43h-166l35 427h432v-155h-278l-14 -127q49 44 131 44q95 0 155.5 -63t60.5 -168q0 -101 -73.5 -169t-194.5 -68z" />
    <glyph glyph-name="six" unicode="6" horiz-adv-x="635" 
d="M324 -12q-138 0 -211 91.5t-73 257.5q0 181 72 275t217 94q119 0 184 -53.5t74 -144.5h-186q-12 61 -75 61q-97 0 -97 -180q56 67 149 67t155 -61t62 -166q0 -113 -81 -177t-190 -64zM324 123q39 0 61.5 28t22.5 73q0 44 -23 72t-61 28t-61 -28t-23 -72q0 -45 22.5 -73
t61.5 -28z" />
    <glyph glyph-name="seven" unicode="7" horiz-adv-x="563" 
d="M33 528v166h497v-157l-237 -537h-199l232 528h-293z" />
    <glyph glyph-name="eight" unicode="8" horiz-adv-x="646" 
d="M323 -12q-133 0 -205.5 55.5t-72.5 155.5q0 56 29.5 101t84.5 65q-44 17 -71 54t-27 88q0 89 72 144t190 55t190 -55t72 -144q0 -51 -27 -88t-71 -54q55 -20 84.5 -65t29.5 -101q0 -100 -72.5 -155.5t-205.5 -55.5zM323 119q42 0 68 23.5t26 62.5q0 41 -26 66.5t-68 25.5
t-68 -25.5t-26 -66.5q0 -39 26 -62.5t68 -23.5zM323 417q36 0 58 22.5t22 59.5q0 33 -22.5 54t-57.5 21t-57.5 -21t-22.5 -54q0 -37 22 -59.5t58 -22.5z" />
    <glyph glyph-name="nine" unicode="9" horiz-adv-x="635" 
d="M311 706q138 0 211 -91.5t73 -257.5q0 -181 -72 -275t-217 -94q-119 0 -184 53.5t-74 144.5h186q12 -61 75 -61q97 0 97 180q-56 -67 -149 -67t-155 61t-62 166q0 113 81 177t190 64zM311 571q-39 0 -61.5 -28t-22.5 -73q0 -44 23 -72t61 -28t61 28t23 72q0 45 -22.5 73
t-61.5 28z" />
    <glyph glyph-name="colon" unicode=":" horiz-adv-x="327" 
d="M70 0v191h187v-191h-187zM70 309v191h187v-191h-187z" />
    <glyph glyph-name="semicolon" unicode=";" horiz-adv-x="327" 
d="M70 309v191h187v-191h-187zM257 191v-206q0 -78 -48.5 -120t-143.5 -42v92q52 2 72.5 22.5t20.5 60.5v2h-88v191h187z" />
    <glyph glyph-name="less" unicode="&#x3c;" horiz-adv-x="650" 
d="M78 254v137l482 183v-135l-327 -116l327 -116v-136z" />
    <glyph glyph-name="equal" unicode="=" horiz-adv-x="650" 
d="M92 144v129h466v-129h-466zM92 372v129h466v-129h-466z" />
    <glyph glyph-name="greater" unicode="&#x3e;" horiz-adv-x="650" 
d="M572 391v-137l-482 -183v136l327 116l-327 116v135z" />
    <glyph glyph-name="question" unicode="?" horiz-adv-x="535" 
d="M525 513q0 -49 -29.5 -87t-64.5 -56t-65 -37t-31 -35l-1 -16h-139l-2 18q-4 34 9.5 60.5t36 43t45 31t39 33t16.5 40.5q0 24 -18.5 40.5t-50.5 16.5q-40 0 -58 -21t-23 -64h-179q9 226 260 226q121 0 188 -56.5t67 -136.5zM169 0v191h187v-191h-187z" />
    <glyph glyph-name="at" unicode="@" horiz-adv-x="932" 
d="M417 25q-86 0 -138.5 59.5t-52.5 161.5q0 103 52.5 162.5t138.5 59.5q87 0 137 -64v54h146v-301q0 -28 19 -28q27 0 53 56.5t26 126.5q0 114 -83 197t-230 83q-150 0 -248 -100t-98 -248q0 -147 92.5 -241t235.5 -94q84 0 162 29v-81q-79 -21 -163 -21q-124 0 -219 56.5
t-143.5 148.5t-48.5 202q0 122 58 219.5t156 150.5t216 53q92 0 167.5 -30t124 -80t74.5 -112.5t26 -128.5q0 -133 -63.5 -212t-162.5 -79q-32 0 -62.5 16t-41.5 40q-52 -55 -130 -55zM467 129q39 0 60.5 33t21.5 84q0 52 -21.5 85t-60.5 33t-60 -33t-21 -85q0 -51 21.5 -84
t59.5 -33z" />
    <glyph glyph-name="A" unicode="A" horiz-adv-x="761" 
d="M548 0l-35 112h-269l-35 -112h-194l241 694h249l241 -694h-198zM379 542l-88 -281h175z" />
    <glyph glyph-name="B" unicode="B" horiz-adv-x="709" 
d="M67 0v694h358q113 0 168 -47t55 -129q0 -110 -100 -158q123 -40 123 -158q0 -99 -67 -150.5t-191 -51.5h-346zM455 481q0 36 -23 53.5t-73 17.5h-103v-142h103q96 0 96 71zM478 214q0 73 -98 73h-124v-145h124q98 0 98 72z" />
    <glyph glyph-name="C" unicode="C" horiz-adv-x="772" 
d="M231 347q0 -88 45 -144.5t120 -56.5q63 0 102 31.5t48 79.5h199q-12 -130 -110 -199.5t-239 -69.5q-171 0 -267.5 97.5t-96.5 261.5t96.5 261.5t267.5 97.5q91 0 165 -28.5t124.5 -90.5t58.5 -150h-198q-9 48 -48 79.5t-102 31.5q-75 0 -120 -56.5t-45 -144.5z" />
    <glyph glyph-name="D" unicode="D" horiz-adv-x="769" 
d="M737 347q0 -157 -92.5 -252t-286.5 -95h-291v694h291q194 0 286.5 -95t92.5 -252zM539 347q0 98 -49 143t-135 45h-99v-376h99q86 0 135 45t49 143z" />
    <glyph glyph-name="E" unicode="E" horiz-adv-x="665" 
d="M67 0v694h541v-158h-352v-109h317v-150h-317v-119h361v-158h-550z" />
    <glyph glyph-name="F" unicode="F" horiz-adv-x="618" 
d="M67 0v694h523v-160h-334v-132h299v-159h-299v-243h-189z" />
    <glyph glyph-name="G" unicode="G" horiz-adv-x="810" 
d="M419 253v138h328v-391h-167v85q-78 -97 -220 -97q-143 0 -235.5 99t-92.5 260q0 164 98 261.5t271 97.5q140 0 234 -66t110 -183h-201q-12 45 -49.5 68t-89.5 23q-81 0 -127.5 -56t-46.5 -145q0 -95 48 -150t128 -55q62 0 107.5 29.5t58.5 81.5h-154z" />
    <glyph glyph-name="H" unicode="H" horiz-adv-x="796" 
d="M67 0v694h189v-263h284v263h189v-694h-189v268h-284v-268h-189z" />
    <glyph glyph-name="I" unicode="I" horiz-adv-x="323" 
d="M67 0v694h189v-694h-189z" />
    <glyph glyph-name="J" unicode="J" horiz-adv-x="663" 
d="M311 150q103 0 103 134v410h189v-407q0 -148 -69.5 -223.5t-222.5 -75.5t-222 75.5t-69 223.5v25h189v-28q0 -134 102 -134z" />
    <glyph glyph-name="K" unicode="K" horiz-adv-x="756" 
d="M67 0v694h189v-297l258 297h230l-253 -289l255 -405h-220l-176 282l-94 -105v-177h-189z" />
    <glyph glyph-name="L" unicode="L" horiz-adv-x="619" 
d="M67 0v694h189v-531h333v-163h-522z" />
    <glyph glyph-name="M" unicode="M" horiz-adv-x="955" 
d="M401 0l-157 485v-485h-177v694h258l153 -468l153 468h257v-694h-177v485l-157 -485h-153z" />
    <glyph glyph-name="N" unicode="N" horiz-adv-x="801" 
d="M734 694v-694h-223l-260 452v-452h-184v694h221l262 -454v454h184z" />
    <glyph glyph-name="O" unicode="O" horiz-adv-x="792" 
d="M760 347q0 -164 -96.5 -261.5t-267.5 -97.5t-267.5 97.5t-96.5 261.5t96.5 261.5t267.5 97.5t267.5 -97.5t96.5 -261.5zM561 347q0 88 -45 144.5t-120 56.5t-120 -56.5t-45 -144.5t45 -144.5t120 -56.5t120 56.5t45 144.5z" />
    <glyph glyph-name="P" unicode="P" horiz-adv-x="674" 
d="M654 453q0 -241 -286 -241h-112v-212h-189v694h301q286 0 286 -241zM458 453q0 51 -25.5 73.5t-83.5 22.5h-93v-192h93q58 0 83.5 22.5t25.5 73.5z" />
    <glyph glyph-name="Q" unicode="Q" horiz-adv-x="792" 
d="M396 -12q-171 0 -267.5 97.5t-96.5 261.5t96.5 261.5t267.5 97.5t267.5 -97.5t96.5 -261.5q0 -196 -134 -293l134 -176h-208l-91 114q-42 -4 -65 -4zM396 146q75 0 120 56.5t45 144.5t-45 144.5t-120 56.5t-120 -56.5t-45 -144.5t45 -144.5t120 -56.5z" />
    <glyph glyph-name="R" unicode="R" horiz-adv-x="728" 
d="M67 0v694h339q268 0 268 -214q0 -65 -32.5 -117.5t-85.5 -75.5l148 -287h-206l-128 246h-114v-246h-189zM256 379h119q102 0 102 85t-102 85h-119v-170z" />
    <glyph glyph-name="S" unicode="S" horiz-adv-x="698" 
d="M355 -12q-153 0 -234 67t-84 186h186q3 -53 40.5 -82.5t96.5 -29.5q52 0 81.5 18t29.5 51q0 24 -17 38.5t-61 23.5l-150 31q-192 39 -192 197q0 100 80 159t207 59q140 0 226.5 -56.5t86.5 -174.5h-186q-4 46 -38 69.5t-88 23.5q-46 0 -72 -17.5t-26 -44.5
q0 -24 17 -38.5t61 -23.5l150 -31q192 -39 192 -197q0 -105 -82.5 -166.5t-223.5 -61.5z" />
    <glyph glyph-name="T" unicode="T" horiz-adv-x="661" 
d="M17 532v162h627v-162h-219v-532h-189v532h-219z" />
    <glyph glyph-name="U" unicode="U" horiz-adv-x="747" 
d="M374 -12q-314 0 -314 302v404h189v-404q0 -69 33 -105t92 -36t91.5 36t32.5 105v404h189v-404q0 -302 -313 -302z" />
    <glyph glyph-name="V" unicode="V" horiz-adv-x="740" 
d="M212 694l161 -499l161 499h196l-236 -694h-250l-234 694h202z" />
    <glyph glyph-name="W" unicode="W" horiz-adv-x="1076" 
d="M886 0h-220l-128 496l-128 -496h-220l-168 694h191l108 -474l120 474h194l122 -480l109 480h188z" />
    <glyph glyph-name="X" unicode="X" horiz-adv-x="747" 
d="M227 0h-215l243 348l-241 346h230l132 -201l135 201h215l-240 -343l249 -351h-229l-141 206z" />
    <glyph glyph-name="Y" unicode="Y" horiz-adv-x="731" 
d="M270 0v249l-278 445h221l156 -256l157 256h213l-280 -446v-248h-189z" />
    <glyph glyph-name="Z" unicode="Z" horiz-adv-x="698" 
d="M64 694h567v-142l-339 -392h362v-160h-608v142l339 392h-321v160z" />
    <glyph glyph-name="bracketleft" unicode="[" horiz-adv-x="390" 
d="M340 591h-109v-572h109v-126h-260v824h260v-126z" />
    <glyph glyph-name="backslash" unicode="\" horiz-adv-x="510" 
d="M327 -107l-297 823h154l296 -823h-153z" />
    <glyph glyph-name="bracketright" unicode="]" horiz-adv-x="390" 
d="M310 -107h-260v126h109v572h-109v126h260v-824z" />
    <glyph glyph-name="asciicircum" unicode="^" horiz-adv-x="527" 
d="M30 444l162 250h143l162 -250h-146l-88 136l-87 -136h-146z" />
    <glyph glyph-name="underscore" unicode="_" horiz-adv-x="500" 
d="M36 -135v102h428v-102h-428z" />
    <glyph glyph-name="grave" unicode="`" horiz-adv-x="283" 
d="M3 694h179l63 -149h-135z" />
    <glyph glyph-name="a" unicode="a" horiz-adv-x="597" 
d="M551 0h-163v80q-50 -91 -180 -91q-79 0 -127.5 41t-48.5 111q0 124 167 152l176 30v10q0 70 -75 70q-77 0 -80 -65h-169q4 82 65 127.5t184 45.5q133 0 192 -54t59 -164v-293zM270 104q42 0 73.5 25.5t31.5 74.5v25l-109 -19q-65 -12 -65 -58q0 -48 69 -48z" />
    <glyph glyph-name="b" unicode="b" horiz-adv-x="641" 
d="M385 511q102 0 163.5 -70.5t61.5 -190.5t-61.5 -190.5t-163.5 -70.5q-103 0 -162 75v-64h-171v694h180v-248q60 65 153 65zM326 388q-46 0 -71 -38.5t-25 -99.5t25 -99.5t71 -38.5t71 38.5t25 99.5t-25 99.5t-71 38.5z" />
    <glyph glyph-name="c" unicode="c" horiz-adv-x="609" 
d="M216 250q0 -66 26.5 -102t69.5 -36q34 0 57 22.5t25 59.5h187q-7 -96 -81 -150.5t-188 -54.5q-131 0 -207.5 70t-76.5 191t76.5 191t207.5 70q114 0 188 -54.5t81 -150.5h-187q-2 37 -25 59.5t-57 22.5q-43 0 -69.5 -36t-26.5 -102z" />
    <glyph glyph-name="d" unicode="d" horiz-adv-x="641" 
d="M256 511q93 0 153 -65v248h180v-694h-171v64q-59 -75 -162 -75q-102 0 -163.5 70.5t-61.5 190.5t61.5 190.5t163.5 70.5zM315 388q-46 0 -71 -38.5t-25 -99.5t25 -99.5t71 -38.5t71 38.5t25 99.5t-25 99.5t-71 38.5z" />
    <glyph glyph-name="e" unicode="e" horiz-adv-x="619" 
d="M28 250q0 117 75 189t205 72q135 0 207 -69.5t72 -189.5v-45h-378q5 -43 32 -70.5t68 -27.5q33 0 56.5 15.5t30.5 44.5h186q-17 -85 -91 -132.5t-183 -47.5q-124 0 -202 68.5t-78 192.5zM211 305h195q-4 45 -29.5 68.5t-64.5 23.5q-41 0 -68.5 -25.5t-32.5 -66.5z" />
    <glyph glyph-name="f" unicode="f" horiz-adv-x="427" 
d="M405 698v-130q-32 5 -65 5q-36 0 -50.5 -16t-14.5 -49v-8h130v-133h-130v-367h-180v367h-71v133h71v28q0 178 199 178q60 0 111 -8z" />
    <glyph glyph-name="g" unicode="g" horiz-adv-x="641" 
d="M589 500v-449q0 -124 -72.5 -183.5t-204.5 -59.5q-140 0 -206 47t-68 128h184q7 -65 92 -65q95 0 95 110v54q-54 -65 -149 -65q-102 0 -165.5 68.5t-63.5 178.5q0 111 64.5 179t163.5 68q100 0 159 -74v63h171zM219 264q0 -53 25.5 -89t70.5 -36t71 36t26 89
q0 54 -25.5 90t-71.5 36q-45 0 -70.5 -36t-25.5 -90z" />
    <glyph glyph-name="h" unicode="h" horiz-adv-x="611" 
d="M383 0v279q0 95 -73 95q-37 0 -57.5 -29.5t-20.5 -80.5v-264h-180v694h180v-262q21 35 63 57t93 22q87 0 131 -49.5t44 -136.5v-325h-180z" />
    <glyph glyph-name="i" unicode="i" horiz-adv-x="284" 
d="M52 500h180v-500h-180v500zM42 562v132h200v-132h-200z" />
    <glyph glyph-name="j" unicode="j" horiz-adv-x="286" 
d="M-54 -180v133q16 -2 42 -2q36 0 51 17.5t15 54.5v477h180v-510q0 -86 -52.5 -131t-149.5 -45q-46 0 -86 6zM44 562v132h200v-132h-200z" />
    <glyph glyph-name="k" unicode="k" horiz-adv-x="624" 
d="M427 304l194 -304h-207l-117 189l-65 -72v-117h-180v694h180v-380l172 186h202z" />
    <glyph glyph-name="l" unicode="l" horiz-adv-x="284" 
d="M52 694h180v-694h-180v694z" />
    <glyph glyph-name="m" unicode="m" horiz-adv-x="920" 
d="M872 320v-320h-180v270q0 51 -15 77t-51 26q-33 0 -53.5 -29t-20.5 -79v-265h-180v270q0 51 -15 77t-51 26q-33 0 -53.5 -29t-20.5 -79v-265h-180v500h171v-73q22 35 65.5 59.5t96.5 24.5q103 0 145 -83q61 83 163 83q179 0 179 -191z" />
    <glyph glyph-name="n" unicode="n" horiz-adv-x="611" 
d="M232 0h-180v500h171v-73q25 36 67.5 60t96.5 24q88 0 132 -49.5t44 -136.5v-325h-180v277q0 97 -73 97q-37 0 -57.5 -29.5t-20.5 -81.5v-263z" />
    <glyph glyph-name="o" unicode="o" horiz-adv-x="624" 
d="M312 -11q-130 0 -207 70t-77 191t77 191t207 70t207 -70t77 -191t-77 -191t-207 -70zM312 112q46 0 71 38.5t25 99.5t-25 99.5t-71 38.5t-71 -38.5t-25 -99.5t25 -99.5t71 -38.5z" />
    <glyph glyph-name="p" unicode="p" horiz-adv-x="641" 
d="M385 -11q-93 0 -153 65v-229h-180v675h171v-64q59 75 162 75q102 0 163.5 -70.5t61.5 -190.5t-61.5 -190.5t-163.5 -70.5zM326 112q46 0 71 38.5t25 99.5t-25 99.5t-71 38.5t-71 -38.5t-25 -99.5t25 -99.5t71 -38.5z" />
    <glyph glyph-name="q" unicode="q" horiz-adv-x="641" 
d="M256 -11q-102 0 -163.5 70.5t-61.5 190.5t61.5 190.5t163.5 70.5q103 0 162 -75v64h171v-675h-180v229q-60 -65 -153 -65zM315 112q46 0 71 38.5t25 99.5t-25 99.5t-71 38.5t-71 -38.5t-25 -99.5t25 -99.5t71 -38.5z" />
    <glyph glyph-name="r" unicode="r" horiz-adv-x="433" 
d="M413 510v-166q-30 2 -56 2q-61 0 -93 -34t-32 -96v-216h-180v500h171v-117q22 69 64.5 98t120.5 29h5z" />
    <glyph glyph-name="s" unicode="s" horiz-adv-x="577" 
d="M42 345q0 76 67.5 121t176.5 45q108 0 178.5 -43t71.5 -125h-168q0 31 -22 47.5t-60 16.5q-31 0 -48 -11t-17 -29q0 -17 12 -26t40 -14l122 -22q150 -27 150 -146q0 -80 -66 -125t-186 -45q-248 0 -261 179h178q2 -36 24 -55.5t62 -19.5q31 0 50.5 12.5t19.5 31.5
q0 17 -12 26t-40 14l-122 22q-150 27 -150 146z" />
    <glyph glyph-name="t" unicode="t" horiz-adv-x="430" 
d="M18 367v133h71v121h180v-121h125v-133h-125v-161q0 -38 14.5 -54.5t53.5 -16.5q29 0 57 5v-135q-51 -10 -127 -10q-94 0 -136 44t-42 132v196h-71z" />
    <glyph glyph-name="u" unicode="u" horiz-adv-x="604" 
d="M372 500h180v-500h-171v73q-25 -36 -66.5 -60t-94.5 -24q-86 0 -129 49.5t-43 136.5v325h180v-272q0 -102 69 -102q35 0 55 32t20 84v258z" />
    <glyph glyph-name="v" unicode="v" horiz-adv-x="596" 
d="M300 181l102 319h188l-184 -500h-216l-184 500h192z" />
    <glyph glyph-name="w" unicode="w" horiz-adv-x="888" 
d="M444 313l-88 -313h-192l-154 500h188l81 -320l85 320h164l85 -320l81 320h184l-154 -500h-192z" />
    <glyph glyph-name="x" unicode="x" horiz-adv-x="612" 
d="M203 0h-198l191 250l-190 250h203l97 -135l102 135h198l-189 -248l190 -252h-203l-97 136z" />
    <glyph glyph-name="y" unicode="y" horiz-adv-x="591" 
d="M385 -28q-35 -90 -96 -124t-150 -34q-43 0 -81 5v135q25 -3 53 -3q32 0 52 8.5t33 33.5l1 2l-193 505h192l102 -319l102 319h188z" />
    <glyph glyph-name="z" unicode="z" horiz-adv-x="552" 
d="M52 500h453v-124l-248 -243h263v-133h-488v124l247 243h-227v133z" />
    <glyph glyph-name="braceleft" unicode="{" horiz-adv-x="436" 
d="M391 19v-126h-124q-71 0 -101 40.5t-30 118.5v83q0 60 -21.5 82.5t-74.5 27.5v120q53 5 74.5 27.5t21.5 82.5v83q0 78 30 118.5t101 40.5h124v-126h-30q-47 0 -63 -18t-16 -81v-57q0 -112 -92 -130q92 -18 92 -130v-57q0 -63 16 -81t63 -18h30z" />
    <glyph glyph-name="bar" unicode="|" horiz-adv-x="320" 
d="M85 -107v823h150v-823h-150z" />
    <glyph glyph-name="braceright" unicode="}" horiz-adv-x="436" 
d="M45 -107v126h30q47 0 63 18t16 81v57q0 112 92 130q-92 18 -92 130v57q0 63 -16 81t-63 18h-30v126h124q71 0 101 -40.5t30 -118.5v-83q0 -60 21.5 -82.5t74.5 -27.5v-120q-53 -5 -74.5 -27.5t-21.5 -82.5v-83q0 -78 -30 -118.5t-101 -40.5h-124z" />
    <glyph glyph-name="asciitilde" unicode="~" horiz-adv-x="650" 
d="M459 227q-43 0 -126.5 30t-104.5 30q-18 0 -25 -9t-7 -30v-23h-125v63q0 63 34 94.5t86 31.5q42 0 126 -29.5t105 -29.5q18 0 25 8.5t7 29.5v23h125v-63q0 -63 -34 -94.5t-86 -31.5z" />
    <glyph glyph-name="uni00A0" unicode="&#xa0;" horiz-adv-x="190" 
 />
    <glyph glyph-name="exclamdown" unicode="&#xa1;" horiz-adv-x="327" 
d="M97 218h133l27 -280v-132h-187v132zM70 309v191h187v-191h-187z" />
    <glyph glyph-name="cent" unicode="&#xa2;" horiz-adv-x="643" 
d="M244 0v95q-94 21 -146.5 87t-52.5 165t52.5 165t146.5 87v95h151v-92q88 -15 142 -66.5t61 -132.5h-187q-2 37 -24.5 59.5t-57.5 22.5q-43 0 -69.5 -36t-26.5 -102t26.5 -102t69.5 -36q35 0 57.5 22.5t24.5 59.5h187q-7 -82 -61 -133.5t-142 -66.5v-91h-151z" />
    <glyph glyph-name="sterling" unicode="&#xa3;" horiz-adv-x="656" 
d="M68 254v104h58q-38 80 -38 139q0 92 67 150t191 58q129 0 196.5 -63.5t65.5 -175.5h-184q0 99 -80 99q-73 0 -73 -81q0 -29 29 -126h134v-104h-114q0 -2 0.5 -6.5t0.5 -6.5q0 -49 -28 -86h323v-155h-551v155q13 0 27 3t32.5 11.5t30 27.5t11.5 46q0 7 -1 11h-97z" />
    <glyph glyph-name="currency" unicode="&#xa4;" horiz-adv-x="568" 
d="M284 129q-50 0 -86 13l-70 -70l-92 90l62 62q-22 40 -22 96q0 54 21 94l-62 62l92 92l70 -71q40 14 87 14q48 0 86 -13l71 71l92 -92l-63 -63q22 -42 22 -94q0 -53 -22 -95l62 -62l-91 -92l-72 71q-36 -13 -85 -13zM284 229q34 0 52 25t18 66t-18 66t-52 25t-52 -25
t-18 -66t18 -66t52 -25z" />
    <glyph glyph-name="yen" unicode="&#xa5;" horiz-adv-x="651" 
d="M417 0h-185v95h-154v102h154v49h-154v102h104l-176 346h194l129 -273l130 273h186l-176 -346h102v-102h-154v-49h154v-102h-154v-95z" />
    <glyph glyph-name="brokenbar" unicode="&#xa6;" horiz-adv-x="320" 
d="M85 -107v362h150v-362h-150zM85 354v362h150v-362h-150z" />
    <glyph glyph-name="section" unicode="&#xa7;" horiz-adv-x="648" 
d="M593 256q0 -90 -82 -136q47 -42 47 -97q0 -82 -66 -124t-178 -42q-104 0 -171.5 51.5t-68.5 136.5h168q0 -31 20 -52.5t62 -21.5q25 0 39.5 11t14.5 26q0 14 -11 25t-40 28l-122 72q-76 45 -113 82t-37 92q0 91 82 135q-47 41 -47 98q0 82 66 124t178 42
q104 0 171.5 -51.5t68.5 -136.5h-168q0 31 -20 52.5t-62 21.5q-25 0 -39.5 -11t-14.5 -26q0 -14 11 -25t40 -28l122 -72q76 -45 113 -82t37 -92zM362 302l-116 68q-22 -17 -22 -39q0 -15 10 -29t20.5 -21.5t31.5 -19.5l115 -68q23 18 23 39q0 15 -10 29t-20.5 21.5
t-31.5 19.5z" />
    <glyph glyph-name="dieresis" unicode="&#xa8;" horiz-adv-x="490" 
d="M60 562v132h150v-132h-150zM280 562v132h150v-132h-150z" />
    <glyph glyph-name="copyright" unicode="&#xa9;" horiz-adv-x="827" 
d="M55 347q0 149 104.5 253.5t253.5 104.5t254 -105t105 -253t-105 -252.5t-254 -104.5t-253.5 104.5t-104.5 252.5zM111 347q0 -127 88 -216t214 -89t214.5 89t88.5 216t-88.5 216.5t-214.5 89.5t-214 -89t-88 -217zM326 347q0 -49 23 -79t64 -30q66 0 78 56h130
q-7 -77 -65.5 -118.5t-142.5 -41.5q-102 0 -159.5 58t-57.5 155t57.5 155t159.5 58q83 0 141.5 -41.5t65.5 -118.5h-129q-12 56 -78 56q-41 0 -64 -30t-23 -79z" />
    <glyph glyph-name="ordfeminine" unicode="&#xaa;" horiz-adv-x="466" 
d="M66 218v91h340v-91h-340zM400 361h-109v54q-33 -61 -121 -61q-53 0 -85.5 27t-32.5 74q0 83 112 102l118 20v7q0 47 -50 47q-51 0 -54 -44h-113q7 116 167 116q89 0 128.5 -36t39.5 -110v-196zM212 431q28 0 49 17t21 50v16l-73 -12q-43 -7 -43 -39t46 -32z" />
    <glyph glyph-name="guillemotleft" unicode="&#xab;" horiz-adv-x="587" 
d="M194 234l113 -200h-133l-129 200l129 200h133zM424 234l113 -200h-133l-129 200l129 200h133z" />
    <glyph glyph-name="logicalnot" unicode="&#xac;" horiz-adv-x="650" 
d="M69 258v129h506v-317h-131v188h-375z" />
    <glyph glyph-name="uni00AD" unicode="&#xad;" horiz-adv-x="402" 
d="M55 197v148h292v-148h-292z" />
    <glyph glyph-name="registered" unicode="&#xae;" horiz-adv-x="567" 
d="M55 474q0 95 67 162t161 67q95 0 162 -67.5t67 -161.5t-67 -161t-162 -67t-161.5 67t-66.5 161zM99 474q0 -78 54 -133t130 -55q77 0 131 55t54 133t-54.5 133.5t-130.5 55.5t-130 -55.5t-54 -133.5zM176 361v237h132q92 0 92 -78q0 -22 -12 -40.5t-30 -26.5l52 -92h-78
l-43 78h-41v-78h-72zM327 519q0 23 -35 23h-44v-50h44q35 0 35 27z" />
    <glyph glyph-name="macron" unicode="&#xaf;" horiz-adv-x="396" 
d="M341 572h-286v114h286v-114z" />
    <glyph glyph-name="degree" unicode="&#xb0;" horiz-adv-x="429" 
d="M55 547q0 65 46.5 110.5t112.5 45.5t113 -46t47 -110t-47 -109t-113 -45t-112.5 45t-46.5 109zM156 547q0 -25 17 -43t41 -18t41.5 18t17.5 43q0 26 -17.5 44.5t-41.5 18.5t-41 -18.5t-17 -44.5z" />
    <glyph glyph-name="plusminus" unicode="&#xb1;" horiz-adv-x="650" 
d="M72 338v129h186v148h131v-148h188v-129h-188v-148h-131v148h-186zM72 0v129h505v-129h-505z" />
    <glyph glyph-name="twosuperior" unicode="&#xb2;" horiz-adv-x="371" 
d="M342 320h-309v91l161 127q24 19 24 43q0 14 -9 23t-25 9q-38 0 -38 -46h-116q-1 66 37.5 100t119.5 34q69 0 109.5 -29t40.5 -87q0 -63 -66 -113l-75 -55h146v-97z" />
    <glyph glyph-name="threesuperior" unicode="&#xb3;" horiz-adv-x="378" 
d="M190 313q-165 0 -167 118h118q3 -34 41 -34q18 0 30 10t12 28q0 37 -55 37h-23v73h12q63 0 63 40q0 16 -10.5 25t-26.5 9q-34 0 -34 -34h-116q-2 56 37 86t117 30q73 0 110 -31t37 -73q0 -27 -15.5 -50.5t-42.5 -29.5q29 -8 50 -32t21 -57q0 -52 -41 -83.5t-117 -31.5z
" />
    <glyph glyph-name="acute" unicode="&#xb4;" horiz-adv-x="283" 
d="M101 694h179l-107 -149h-135z" />
    <glyph glyph-name="mu" unicode="&#xb5;" horiz-adv-x="608" 
d="M376 500h180v-500h-171v73q-54 -80 -152 -84h-1v-164h-180v675h180v-272q0 -102 69 -102q35 0 55 32t20 84v258z" />
    <glyph glyph-name="paragraph" unicode="&#xb6;" horiz-adv-x="722" 
d="M45 484q0 210 250 210h135v-694h-131v274h-4q-250 0 -250 210zM511 0v694h131v-694h-131z" />
    <glyph glyph-name="periodcentered" unicode="&#xb7;" horiz-adv-x="317" 
d="M65 178v191h187v-191h-187z" />
    <glyph glyph-name="cedilla" unicode="&#xb8;" horiz-adv-x="318" 
d="M282 -112q-1 -48 -38.5 -73t-97.5 -25q-36 0 -79 13v80q41 -17 80 -17q43 0 43 22q0 20 -32 20q-10 0 -46 -11l-28 36l66 79h66l-43 -52q4 1 11 1q94 0 98 -73z" />
    <glyph glyph-name="onesuperior" unicode="&#xb9;" horiz-adv-x="305" 
d="M250 320h-121v259l-94 -61v112l98 64h117v-374z" />
    <glyph glyph-name="ordmasculine" unicode="&#xba;" horiz-adv-x="478" 
d="M69 218v91h340v-91h-340zM239 354q-87 0 -138.5 46.5t-51.5 127.5t51.5 128t138.5 47t138.5 -47t51.5 -128t-51.5 -127.5t-138.5 -46.5zM239 436q30 0 47 25.5t17 66.5t-16.5 67t-47.5 26t-47.5 -26t-16.5 -67t17 -66.5t47 -25.5z" />
    <glyph glyph-name="guillemotright" unicode="&#xbb;" horiz-adv-x="587" 
d="M280 34l113 200l-113 200h133l129 -200l-129 -200h-133zM50 34l113 200l-113 200h133l129 -200l-129 -200h-133z" />
    <glyph glyph-name="onequarter" unicode="&#xbc;" horiz-adv-x="845" 
d="M95 0l520 694h110l-518 -694h-112zM250 320h-121v259l-94 -61v112l98 64h117v-374zM764 0h-108v66h-189v93l172 215h125v-219h48v-89h-48v-66zM656 155v101l-81 -101h81z" />
    <glyph glyph-name="onehalf" unicode="&#xbd;" horiz-adv-x="866" 
d="M95 0l520 694h110l-518 -694h-112zM250 320h-121v259l-94 -61v112l98 64h117v-374zM528 0v91l161 127q24 19 24 43q0 14 -9 23t-25 9q-38 0 -38 -46h-116q-1 66 37.5 100t119.5 34q69 0 109.5 -29t40.5 -87q0 -63 -66 -113l-75 -55h146v-97h-309z" />
    <glyph glyph-name="threequarters" unicode="&#xbe;" horiz-adv-x="908" 
d="M190 313q-165 0 -167 118h118q3 -34 41 -34q18 0 30 10t12 28q0 37 -55 37h-23v73h12q63 0 63 40q0 16 -10.5 25t-26.5 9q-34 0 -34 -34h-116q-2 56 37 86t117 30q73 0 110 -31t37 -73q0 -27 -15.5 -50.5t-42.5 -29.5q29 -8 50 -32t21 -57q0 -52 -41 -83.5t-117 -31.5z
M158 0l520 694h110l-518 -694h-112zM827 0h-108v66h-189v93l172 215h125v-219h48v-89h-48v-66zM719 155v101l-81 -101h81z" />
    <glyph glyph-name="questiondown" unicode="&#xbf;" horiz-adv-x="535" 
d="M10 -13q0 49 29.5 87t64.5 56t65 37t31 35l1 16h139l2 -18q4 -34 -9.5 -60.5t-36 -43t-45 -31t-39 -33t-16.5 -40.5q0 -24 18.5 -40.5t50.5 -16.5q40 0 58 21t23 64h179q-9 -226 -260 -226q-121 0 -188 56.5t-67 136.5zM366 500v-191h-187v191h187z" />
    <glyph glyph-name="Agrave" unicode="&#xc0;" horiz-adv-x="761" 
d="M548 0l-35 112h-269l-35 -112h-194l241 694h249l241 -694h-198zM379 542l-88 -281h175zM223 887h179l63 -149h-135z" />
    <glyph glyph-name="Aacute" unicode="&#xc1;" horiz-adv-x="761" 
d="M548 0l-35 112h-269l-35 -112h-194l241 694h249l241 -694h-198zM379 542l-88 -281h175zM362 887h179l-107 -149h-135z" />
    <glyph glyph-name="Acircumflex" unicode="&#xc2;" horiz-adv-x="761" 
d="M548 0l-35 112h-269l-35 -112h-194l241 694h249l241 -694h-198zM379 542l-88 -281h175zM298 887h167l102 -149h-117l-68 53l-68 -53h-117z" />
    <glyph glyph-name="Atilde" unicode="&#xc3;" horiz-adv-x="761" 
d="M548 0l-35 112h-269l-35 -112h-194l241 694h249l241 -694h-198zM379 542l-88 -281h175zM457 747q-24 0 -68 18t-52 18q-22 0 -22 -36h-103q0 36 7.5 67t30 56.5t58.5 25.5q24 0 68 -18t52 -18q23 0 23 36h102q0 -59 -22 -104t-74 -45z" />
    <glyph glyph-name="Adieresis" unicode="&#xc4;" horiz-adv-x="761" 
d="M548 0l-35 112h-269l-35 -112h-194l241 694h249l241 -694h-198zM379 542l-88 -281h175zM197 755v132h150v-132h-150zM417 755v132h150v-132h-150z" />
    <glyph glyph-name="Aring" unicode="&#xc5;" horiz-adv-x="761" 
d="M253 737q0 52 37.5 88.5t91.5 36.5t92 -36.5t38 -88.5q0 -25 -9 -46l243 -691h-198l-35 112h-269l-35 -112h-194l245 695q-7 18 -7 42zM379 542l-88 -281h175zM331 737q0 -23 14.5 -38t36.5 -15t37.5 15t15.5 38t-15.5 39t-37.5 16t-36.5 -16t-14.5 -39z" />
    <glyph glyph-name="AE" unicode="&#xc6;" horiz-adv-x="1118" 
d="M1068 0h-552v112h-258l-65 -112h-213l410 694h669v-157h-350v-109h315v-152h-315v-119h359v-157zM516 261v291l-171 -291h171z" />
    <glyph glyph-name="Ccedilla" unicode="&#xc7;" horiz-adv-x="772" 
d="M507 -112q-1 -48 -38.5 -73t-97.5 -25q-36 0 -79 13v80q41 -17 80 -17q43 0 43 22q0 20 -32 20q-10 0 -46 -11l-28 36l44 57q-152 12 -236.5 107.5t-84.5 249.5q0 164 96.5 261.5t267.5 97.5q91 0 165 -28.5t124.5 -90.5t58.5 -150h-198q-9 48 -48 79.5t-102 31.5
q-75 0 -120 -56.5t-45 -144.5t45 -144.5t120 -56.5q63 0 102 31.5t48 79.5h199q-11 -123 -100.5 -192t-219.5 -76h-4l-23 -29q4 1 11 1q94 0 98 -73z" />
    <glyph glyph-name="Egrave" unicode="&#xc8;" horiz-adv-x="667" 
d="M67 0v694h541v-158h-352v-109h317v-150h-317v-119h361v-158h-550zM177 887h179l63 -149h-135z" />
    <glyph glyph-name="Eacute" unicode="&#xc9;" horiz-adv-x="667" 
d="M67 0v694h541v-158h-352v-109h317v-150h-317v-119h361v-158h-550zM316 887h179l-107 -149h-135z" />
    <glyph glyph-name="Ecircumflex" unicode="&#xca;" horiz-adv-x="667" 
d="M67 0v694h541v-158h-352v-109h317v-150h-317v-119h361v-158h-550zM252 887h167l102 -149h-117l-68 53l-68 -53h-117z" />
    <glyph glyph-name="Edieresis" unicode="&#xcb;" horiz-adv-x="667" 
d="M67 0v694h541v-158h-352v-109h317v-150h-317v-119h361v-158h-550zM151 755v132h150v-132h-150zM371 755v132h150v-132h-150z" />
    <glyph glyph-name="Igrave" unicode="&#xcc;" horiz-adv-x="323" 
d="M67 0v694h189v-694h-189zM3 887h179l63 -149h-135z" />
    <glyph glyph-name="Iacute" unicode="&#xcd;" horiz-adv-x="323" 
d="M67 0v694h189v-694h-189zM142 887h179l-107 -149h-135z" />
    <glyph glyph-name="Icircumflex" unicode="&#xce;" horiz-adv-x="323" 
d="M67 0v694h189v-694h-189zM78 887h167l102 -149h-117l-68 53l-68 -53h-117z" />
    <glyph glyph-name="Idieresis" unicode="&#xcf;" horiz-adv-x="323" 
d="M67 0v694h189v-694h-189zM-23 755v132h150v-132h-150zM197 755v132h150v-132h-150z" />
    <glyph glyph-name="Eth" unicode="&#xd0;" horiz-adv-x="801" 
d="M769 347q0 -157 -92.5 -252t-286.5 -95h-291v277h-74v140h74v277h291q194 0 286.5 -95t92.5 -252zM571 347q0 187 -184 187h-99v-117h100v-140h-100v-117h99q184 0 184 187z" />
    <glyph glyph-name="Ntilde" unicode="&#xd1;" horiz-adv-x="801" 
d="M734 694v-694h-223l-260 452v-452h-184v694h221l262 -454v454h184zM477 747q-24 0 -68 18t-52 18q-22 0 -22 -36h-103q0 36 7.5 67t30 56.5t58.5 25.5q24 0 68 -18t52 -18q23 0 23 36h102q0 -59 -22 -104t-74 -45z" />
    <glyph glyph-name="Ograve" unicode="&#xd2;" horiz-adv-x="792" 
d="M760 347q0 -164 -96.5 -261.5t-267.5 -97.5t-267.5 97.5t-96.5 261.5t96.5 261.5t267.5 97.5t267.5 -97.5t96.5 -261.5zM561 347q0 88 -45 144.5t-120 56.5t-120 -56.5t-45 -144.5t45 -144.5t120 -56.5t120 56.5t45 144.5zM237 887h179l63 -149h-135z" />
    <glyph glyph-name="Oacute" unicode="&#xd3;" horiz-adv-x="792" 
d="M760 347q0 -164 -96.5 -261.5t-267.5 -97.5t-267.5 97.5t-96.5 261.5t96.5 261.5t267.5 97.5t267.5 -97.5t96.5 -261.5zM561 347q0 88 -45 144.5t-120 56.5t-120 -56.5t-45 -144.5t45 -144.5t120 -56.5t120 56.5t45 144.5zM376 887h179l-107 -149h-135z" />
    <glyph glyph-name="Ocircumflex" unicode="&#xd4;" horiz-adv-x="792" 
d="M760 347q0 -164 -96.5 -261.5t-267.5 -97.5t-267.5 97.5t-96.5 261.5t96.5 261.5t267.5 97.5t267.5 -97.5t96.5 -261.5zM561 347q0 88 -45 144.5t-120 56.5t-120 -56.5t-45 -144.5t45 -144.5t120 -56.5t120 56.5t45 144.5zM312 887h167l102 -149h-117l-68 53l-68 -53
h-117z" />
    <glyph glyph-name="Otilde" unicode="&#xd5;" horiz-adv-x="792" 
d="M760 347q0 -164 -96.5 -261.5t-267.5 -97.5t-267.5 97.5t-96.5 261.5t96.5 261.5t267.5 97.5t267.5 -97.5t96.5 -261.5zM561 347q0 88 -45 144.5t-120 56.5t-120 -56.5t-45 -144.5t45 -144.5t120 -56.5t120 56.5t45 144.5zM471 747q-24 0 -68 18t-52 18q-22 0 -22 -36
h-103q0 36 7.5 67t30 56.5t58.5 25.5q24 0 68 -18t52 -18q23 0 23 36h102q0 -59 -22 -104t-74 -45z" />
    <glyph glyph-name="Odieresis" unicode="&#xd6;" horiz-adv-x="792" 
d="M760 347q0 -164 -96.5 -261.5t-267.5 -97.5t-267.5 97.5t-96.5 261.5t96.5 261.5t267.5 97.5t267.5 -97.5t96.5 -261.5zM561 347q0 88 -45 144.5t-120 56.5t-120 -56.5t-45 -144.5t45 -144.5t120 -56.5t120 56.5t45 144.5zM211 755v132h150v-132h-150zM431 755v132h150
v-132h-150z" />
    <glyph glyph-name="multiply" unicode="&#xd7;" horiz-adv-x="650" 
d="M178 85l-92 90l146 147l-147 147l92 92l147 -147l147 148l92 -92l-148 -148l147 -146l-91 -92l-147 147z" />
    <glyph glyph-name="Oslash" unicode="&#xd8;" horiz-adv-x="800" 
d="M401 -12q-101 0 -177 35l-49 -63h-145l100 129q-93 96 -93 258q0 164 96.5 261.5t267.5 97.5q101 0 177 -35l48 62h146l-100 -129q93 -95 93 -257q0 -164 -96.5 -261.5t-267.5 -97.5zM576 347q0 58 -20 106l-232 -300q34 -18 77 -18q79 0 127 59.5t48 152.5zM226 347
q0 -59 20 -107l232 301q-38 18 -77 18q-79 0 -127 -59.5t-48 -152.5z" />
    <glyph glyph-name="Ugrave" unicode="&#xd9;" horiz-adv-x="747" 
d="M374 -12q-314 0 -314 302v404h189v-404q0 -69 33 -105t92 -36t91.5 36t32.5 105v404h189v-404q0 -302 -313 -302zM215 887h179l63 -149h-135z" />
    <glyph glyph-name="Uacute" unicode="&#xda;" horiz-adv-x="747" 
d="M374 -12q-314 0 -314 302v404h189v-404q0 -69 33 -105t92 -36t91.5 36t32.5 105v404h189v-404q0 -302 -313 -302zM354 887h179l-107 -149h-135z" />
    <glyph glyph-name="Ucircumflex" unicode="&#xdb;" horiz-adv-x="747" 
d="M374 -12q-314 0 -314 302v404h189v-404q0 -69 33 -105t92 -36t91.5 36t32.5 105v404h189v-404q0 -302 -313 -302zM290 887h167l102 -149h-117l-68 53l-68 -53h-117z" />
    <glyph glyph-name="Udieresis" unicode="&#xdc;" horiz-adv-x="747" 
d="M374 -12q-314 0 -314 302v404h189v-404q0 -69 33 -105t92 -36t91.5 36t32.5 105v404h189v-404q0 -302 -313 -302zM189 755v132h150v-132h-150zM409 755v132h150v-132h-150z" />
    <glyph glyph-name="Yacute" unicode="&#xdd;" horiz-adv-x="735" 
d="M272 0v249l-278 445h221l156 -256l157 256h213l-280 -446v-248h-189zM350 887h179l-107 -149h-135z" />
    <glyph glyph-name="Thorn" unicode="&#xde;" horiz-adv-x="676" 
d="M654 351q0 -241 -288 -241h-110v-110h-189v694h189v-102h110q288 0 288 -241zM458 351q0 51 -25.5 73.5t-83.5 22.5h-93v-192h93q58 0 83.5 22.5t25.5 73.5z" />
    <glyph glyph-name="germandbls" unicode="&#xdf;" horiz-adv-x="708" 
d="M341 -1v140q57 -18 113 -18q52 0 52 38q0 17 -11 27.5t-40 24.5l-43 20q-46 21 -62.5 40t-16.5 55q0 32 24.5 68.5t48.5 70.5t24 58q0 27 -20 45.5t-57 18.5q-39 0 -58.5 -25t-19.5 -63v-499h-180v367h-71v133h71v16q0 92 67.5 141t183.5 49q104 0 173.5 -41t69.5 -117
q0 -38 -21 -69t-42 -55t-21 -44q0 -31 45 -52l28 -13q59 -27 84.5 -65t25.5 -93q0 -87 -65 -128.5t-162 -41.5q-68 0 -120 12z" />
    <glyph glyph-name="agrave" unicode="&#xe0;" horiz-adv-x="597" 
d="M551 0h-163v80q-50 -91 -180 -91q-79 0 -127.5 41t-48.5 111q0 124 167 152l176 30v10q0 70 -75 70q-77 0 -80 -65h-169q4 82 65 127.5t184 45.5q133 0 192 -54t59 -164v-293zM270 104q42 0 73.5 25.5t31.5 74.5v25l-109 -19q-65 -12 -65 -58q0 -48 69 -48zM141 694h179
l63 -149h-135z" />
    <glyph glyph-name="aacute" unicode="&#xe1;" horiz-adv-x="597" 
d="M551 0h-163v80q-50 -91 -180 -91q-79 0 -127.5 41t-48.5 111q0 124 167 152l176 30v10q0 70 -75 70q-77 0 -80 -65h-169q4 82 65 127.5t184 45.5q133 0 192 -54t59 -164v-293zM270 104q42 0 73.5 25.5t31.5 74.5v25l-109 -19q-65 -12 -65 -58q0 -48 69 -48zM280 694h179
l-107 -149h-135z" />
    <glyph glyph-name="acircumflex" unicode="&#xe2;" horiz-adv-x="597" 
d="M551 0h-163v80q-50 -91 -180 -91q-79 0 -127.5 41t-48.5 111q0 124 167 152l176 30v10q0 70 -75 70q-77 0 -80 -65h-169q4 82 65 127.5t184 45.5q133 0 192 -54t59 -164v-293zM270 104q42 0 73.5 25.5t31.5 74.5v25l-109 -19q-65 -12 -65 -58q0 -48 69 -48zM216 694h167
l102 -149h-117l-68 53l-68 -53h-117z" />
    <glyph glyph-name="atilde" unicode="&#xe3;" horiz-adv-x="597" 
d="M551 0h-163v80q-50 -91 -180 -91q-79 0 -127.5 41t-48.5 111q0 124 167 152l176 30v10q0 70 -75 70q-77 0 -80 -65h-169q4 82 65 127.5t184 45.5q133 0 192 -54t59 -164v-293zM270 104q42 0 73.5 25.5t31.5 74.5v25l-109 -19q-65 -12 -65 -58q0 -48 69 -48zM375 554
q-24 0 -68 18t-52 18q-22 0 -22 -36h-103q0 36 7.5 67t30 56.5t58.5 25.5q24 0 68 -18t52 -18q23 0 23 36h102q0 -59 -22 -104t-74 -45z" />
    <glyph glyph-name="adieresis" unicode="&#xe4;" horiz-adv-x="597" 
d="M551 0h-163v80q-50 -91 -180 -91q-79 0 -127.5 41t-48.5 111q0 124 167 152l176 30v10q0 70 -75 70q-77 0 -80 -65h-169q4 82 65 127.5t184 45.5q133 0 192 -54t59 -164v-293zM270 104q42 0 73.5 25.5t31.5 74.5v25l-109 -19q-65 -12 -65 -58q0 -48 69 -48zM115 562v132
h150v-132h-150zM335 562v132h150v-132h-150z" />
    <glyph glyph-name="aring" unicode="&#xe5;" horiz-adv-x="597" 
d="M551 0h-163v80q-50 -91 -180 -91q-79 0 -127.5 41t-48.5 111q0 124 167 152l176 30v10q0 70 -75 70q-77 0 -80 -65h-169q4 82 65 127.5t184 45.5q133 0 192 -54t59 -164v-293zM270 104q42 0 73.5 25.5t31.5 74.5v25l-109 -19q-65 -12 -65 -58q0 -48 69 -48zM171 644
q0 52 37.5 88.5t91.5 36.5t92 -36.5t38 -88.5t-38 -88t-92 -36t-91.5 36t-37.5 88zM249 644q0 -23 14.5 -38t36.5 -15t37.5 15.5t15.5 37.5q0 23 -15.5 39t-37.5 16t-36.5 -16t-14.5 -39z" />
    <glyph glyph-name="ae" unicode="&#xe6;" horiz-adv-x="949" 
d="M268 305h107v28q0 70 -75 70q-77 0 -80 -65h-169q4 82 65 127.5t184 45.5t178 -67q64 67 179 67q119 0 189.5 -70.5t70.5 -188.5v-45h-378q5 -43 32 -70.5t68 -27.5q33 0 56.5 15.5t30.5 44.5h186q-17 -85 -88.5 -132.5t-180.5 -47.5q-114 0 -194 83q-36 -38 -93 -60.5
t-117 -22.5q-105 0 -156 41t-51 111q0 74 58.5 119t177.5 45zM541 305h195q-4 45 -29.5 68.5t-64.5 23.5q-41 0 -68.5 -25.5t-32.5 -66.5zM375 204v1h-99q-75 0 -75 -53q0 -22 17 -35t48 -13q45 0 77 25.5t32 74.5z" />
    <glyph glyph-name="ccedilla" unicode="&#xe7;" horiz-adv-x="609" 
d="M423 -112q-1 -48 -38.5 -73t-97.5 -25q-36 0 -79 13v80q41 -17 80 -17q43 0 43 22q0 20 -32 20q-10 0 -46 -11l-28 36l45 58q-112 11 -177 80t-65 179q0 121 76.5 191t207.5 70q114 0 188 -54.5t81 -150.5h-187q-2 37 -25 59.5t-57 22.5q-43 0 -69.5 -36t-26.5 -102
t26.5 -102t69.5 -36q34 0 57 22.5t25 59.5h187q-7 -91 -73 -144.5t-169 -59.5h-1l-24 -30q4 1 11 1q94 0 98 -73z" />
    <glyph glyph-name="egrave" unicode="&#xe8;" horiz-adv-x="619" 
d="M28 250q0 117 75 189t205 72q135 0 207 -69.5t72 -189.5v-45h-378q5 -43 32 -70.5t68 -27.5q33 0 56.5 15.5t30.5 44.5h186q-17 -85 -91 -132.5t-183 -47.5q-124 0 -202 68.5t-78 192.5zM211 305h195q-4 45 -29.5 68.5t-64.5 23.5q-41 0 -68.5 -25.5t-32.5 -66.5z
M149 694h179l63 -149h-135z" />
    <glyph glyph-name="eacute" unicode="&#xe9;" horiz-adv-x="619" 
d="M28 250q0 117 75 189t205 72q135 0 207 -69.5t72 -189.5v-45h-378q5 -43 32 -70.5t68 -27.5q33 0 56.5 15.5t30.5 44.5h186q-17 -85 -91 -132.5t-183 -47.5q-124 0 -202 68.5t-78 192.5zM211 305h195q-4 45 -29.5 68.5t-64.5 23.5q-41 0 -68.5 -25.5t-32.5 -66.5z
M288 694h179l-107 -149h-135z" />
    <glyph glyph-name="ecircumflex" unicode="&#xea;" horiz-adv-x="619" 
d="M28 250q0 117 75 189t205 72q135 0 207 -69.5t72 -189.5v-45h-378q5 -43 32 -70.5t68 -27.5q33 0 56.5 15.5t30.5 44.5h186q-17 -85 -91 -132.5t-183 -47.5q-124 0 -202 68.5t-78 192.5zM211 305h195q-4 45 -29.5 68.5t-64.5 23.5q-41 0 -68.5 -25.5t-32.5 -66.5z
M224 694h167l102 -149h-117l-68 53l-68 -53h-117z" />
    <glyph glyph-name="edieresis" unicode="&#xeb;" horiz-adv-x="619" 
d="M28 250q0 117 75 189t205 72q135 0 207 -69.5t72 -189.5v-45h-378q5 -43 32 -70.5t68 -27.5q33 0 56.5 15.5t30.5 44.5h186q-17 -85 -91 -132.5t-183 -47.5q-124 0 -202 68.5t-78 192.5zM211 305h195q-4 45 -29.5 68.5t-64.5 23.5q-41 0 -68.5 -25.5t-32.5 -66.5z
M123 562v132h150v-132h-150zM343 562v132h150v-132h-150z" />
    <glyph glyph-name="igrave" unicode="&#xec;" horiz-adv-x="284" 
d="M52 500h180v-500h-180v500zM-17 694h179l63 -149h-135z" />
    <glyph glyph-name="iacute" unicode="&#xed;" horiz-adv-x="284" 
d="M52 500h180v-500h-180v500zM122 694h179l-107 -149h-135z" />
    <glyph glyph-name="icircumflex" unicode="&#xee;" horiz-adv-x="284" 
d="M52 500h180v-500h-180v500zM58 694h167l102 -149h-117l-68 53l-68 -53h-117z" />
    <glyph glyph-name="idieresis" unicode="&#xef;" horiz-adv-x="284" 
d="M52 500h180v-500h-180v500zM-43 562v132h150v-132h-150zM177 562v132h150v-132h-150z" />
    <glyph glyph-name="eth" unicode="&#xf0;" horiz-adv-x="627" 
d="M216 494l-28 85l82 25q-54 62 -90 90h187q24 -22 48 -46l100 30l26 -85l-62 -19q117 -150 117 -290q0 -141 -74.5 -218t-209.5 -77q-125 0 -204.5 66.5t-79.5 184.5q0 110 69.5 174.5t170.5 64.5q37 0 78.5 -14t61.5 -34q-19 41 -70 100zM216 240q0 -57 25 -92.5
t71 -35.5t71 35.5t25 92.5t-25 92.5t-71 35.5t-71 -35.5t-25 -92.5z" />
    <glyph glyph-name="ntilde" unicode="&#xf1;" horiz-adv-x="611" 
d="M232 0h-180v500h171v-73q25 36 67.5 60t96.5 24q88 0 132 -49.5t44 -136.5v-325h-180v277q0 97 -73 97q-37 0 -57.5 -29.5t-20.5 -81.5v-263zM383 554q-24 0 -68 18t-52 18q-22 0 -22 -36h-103q0 36 7.5 67t30 56.5t58.5 25.5q24 0 68 -18t52 -18q23 0 23 36h102
q0 -59 -22 -104t-74 -45z" />
    <glyph glyph-name="ograve" unicode="&#xf2;" horiz-adv-x="624" 
d="M312 -11q-130 0 -207 70t-77 191t77 191t207 70t207 -70t77 -191t-77 -191t-207 -70zM312 112q46 0 71 38.5t25 99.5t-25 99.5t-71 38.5t-71 -38.5t-25 -99.5t25 -99.5t71 -38.5zM153 694h179l63 -149h-135z" />
    <glyph glyph-name="oacute" unicode="&#xf3;" horiz-adv-x="624" 
d="M312 -11q-130 0 -207 70t-77 191t77 191t207 70t207 -70t77 -191t-77 -191t-207 -70zM312 112q46 0 71 38.5t25 99.5t-25 99.5t-71 38.5t-71 -38.5t-25 -99.5t25 -99.5t71 -38.5zM292 694h179l-107 -149h-135z" />
    <glyph glyph-name="ocircumflex" unicode="&#xf4;" horiz-adv-x="624" 
d="M312 -11q-130 0 -207 70t-77 191t77 191t207 70t207 -70t77 -191t-77 -191t-207 -70zM312 112q46 0 71 38.5t25 99.5t-25 99.5t-71 38.5t-71 -38.5t-25 -99.5t25 -99.5t71 -38.5zM228 694h167l102 -149h-117l-68 53l-68 -53h-117z" />
    <glyph glyph-name="otilde" unicode="&#xf5;" horiz-adv-x="624" 
d="M312 -11q-130 0 -207 70t-77 191t77 191t207 70t207 -70t77 -191t-77 -191t-207 -70zM312 112q46 0 71 38.5t25 99.5t-25 99.5t-71 38.5t-71 -38.5t-25 -99.5t25 -99.5t71 -38.5zM387 554q-24 0 -68 18t-52 18q-22 0 -22 -36h-103q0 36 7.5 67t30 56.5t58.5 25.5
q24 0 68 -18t52 -18q23 0 23 36h102q0 -59 -22 -104t-74 -45z" />
    <glyph glyph-name="odieresis" unicode="&#xf6;" horiz-adv-x="624" 
d="M312 -11q-130 0 -207 70t-77 191t77 191t207 70t207 -70t77 -191t-77 -191t-207 -70zM312 112q46 0 71 38.5t25 99.5t-25 99.5t-71 38.5t-71 -38.5t-25 -99.5t25 -99.5t71 -38.5zM127 562v132h150v-132h-150zM347 562v132h150v-132h-150z" />
    <glyph glyph-name="divide" unicode="&#xf7;" horiz-adv-x="650" 
d="M72 258v129h505v-129h-505zM231 11v171h187v-171h-187zM231 463v171h187v-171h-187z" />
    <glyph glyph-name="oslash" unicode="&#xf8;" horiz-adv-x="632" 
d="M600 250q0 -121 -77 -191t-207 -70q-58 0 -108 15l-30 -44h-121l62 90q-87 70 -87 200q0 121 77 191t207 70q58 0 108 -15l23 34h122l-56 -81q87 -71 87 -199zM434 250q0 36 -11 67l-145 -211q18 -6 38 -6q54 0 86 42.5t32 107.5zM198 250q0 -37 11 -68l145 211
q-21 7 -38 7q-54 0 -86 -42.5t-32 -107.5z" />
    <glyph glyph-name="ugrave" unicode="&#xf9;" horiz-adv-x="604" 
d="M372 500h180v-500h-171v73q-25 -36 -66.5 -60t-94.5 -24q-86 0 -129 49.5t-43 136.5v325h180v-272q0 -102 69 -102q35 0 55 32t20 84v258zM141 694h179l63 -149h-135z" />
    <glyph glyph-name="uacute" unicode="&#xfa;" horiz-adv-x="604" 
d="M372 500h180v-500h-171v73q-25 -36 -66.5 -60t-94.5 -24q-86 0 -129 49.5t-43 136.5v325h180v-272q0 -102 69 -102q35 0 55 32t20 84v258zM280 694h179l-107 -149h-135z" />
    <glyph glyph-name="ucircumflex" unicode="&#xfb;" horiz-adv-x="604" 
d="M372 500h180v-500h-171v73q-25 -36 -66.5 -60t-94.5 -24q-86 0 -129 49.5t-43 136.5v325h180v-272q0 -102 69 -102q35 0 55 32t20 84v258zM216 694h167l102 -149h-117l-68 53l-68 -53h-117z" />
    <glyph glyph-name="udieresis" unicode="&#xfc;" horiz-adv-x="604" 
d="M372 500h180v-500h-171v73q-25 -36 -66.5 -60t-94.5 -24q-86 0 -129 49.5t-43 136.5v325h180v-272q0 -102 69 -102q35 0 55 32t20 84v258zM115 562v132h150v-132h-150zM335 562v132h150v-132h-150z" />
    <glyph glyph-name="yacute" unicode="&#xfd;" horiz-adv-x="591" 
d="M385 -28q-35 -90 -96 -124t-150 -34q-43 0 -81 5v135q25 -3 53 -3q32 0 52 8.5t33 33.5l1 2l-193 505h192l102 -319l102 319h188zM277 694h179l-107 -149h-135z" />
    <glyph glyph-name="thorn" unicode="&#xfe;" horiz-adv-x="641" 
d="M385 511q102 0 163.5 -70.5t61.5 -190.5t-61.5 -190.5t-163.5 -70.5q-96 0 -153 65v-229h-180v869h180v-248q60 65 153 65zM326 388q-46 0 -71 -38.5t-25 -99.5t25 -99.5t71 -38.5t71 38.5t25 99.5t-25 99.5t-71 38.5z" />
    <glyph glyph-name="ydieresis" unicode="&#xff;" horiz-adv-x="591" 
d="M385 -28q-35 -90 -96 -124t-150 -34q-43 0 -81 5v135q25 -3 53 -3q32 0 52 8.5t33 33.5l1 2l-193 505h192l102 -319l102 319h188zM112 562v132h150v-132h-150zM332 562v132h150v-132h-150z" />
    <glyph glyph-name="Amacron" unicode="&#x100;" horiz-adv-x="761" 
d="M548 0l-35 112h-269l-35 -112h-194l241 694h249l241 -694h-198zM379 542l-88 -281h175zM525 765h-286v114h286v-114z" />
    <glyph glyph-name="amacron" unicode="&#x101;" horiz-adv-x="597" 
d="M551 0h-163v80q-50 -91 -180 -91q-79 0 -127.5 41t-48.5 111q0 124 167 152l176 30v10q0 70 -75 70q-77 0 -80 -65h-169q4 82 65 127.5t184 45.5q133 0 192 -54t59 -164v-293zM270 104q42 0 73.5 25.5t31.5 74.5v25l-109 -19q-65 -12 -65 -58q0 -48 69 -48zM443 572h-286
v114h286v-114z" />
    <glyph glyph-name="Abreve" unicode="&#x102;" horiz-adv-x="761" 
d="M548 0l-35 112h-269l-35 -112h-194l241 694h249l241 -694h-198zM379 542l-88 -281h175zM382 726q-75 0 -120.5 44t-45.5 117h109q0 -21 15 -38t43 -17t43 17t15 38h109q0 -73 -46 -117t-122 -44z" />
    <glyph glyph-name="abreve" unicode="&#x103;" horiz-adv-x="597" 
d="M551 0h-163v80q-50 -91 -180 -91q-79 0 -127.5 41t-48.5 111q0 124 167 152l176 30v10q0 70 -75 70q-77 0 -80 -65h-169q4 82 65 127.5t184 45.5q133 0 192 -54t59 -164v-293zM270 104q42 0 73.5 25.5t31.5 74.5v25l-109 -19q-65 -12 -65 -58q0 -48 69 -48zM300 542
q-75 0 -120.5 44t-45.5 117h109q0 -21 15 -38t43 -17t43 17t15 38h109q0 -73 -46 -117t-122 -44z" />
    <glyph glyph-name="Aogonek" unicode="&#x104;" horiz-adv-x="761" 
d="M548 0l-35 112h-269l-35 -112h-194l241 694h249l241 -694h-112q-30 -35 -30 -60q0 -15 10 -23t26 -8q28 0 53 9v-93q-30 -13 -96 -13q-46 0 -75 22t-29 59q0 48 55 107zM379 542l-88 -281h175z" />
    <glyph glyph-name="aogonek" unicode="&#x105;" horiz-adv-x="597" 
d="M551 0h-76q-30 -35 -30 -60q0 -15 10 -23t26 -8q28 0 53 9v-93q-30 -13 -96 -13q-46 0 -75 22t-29 59q0 47 54 107v80q-50 -91 -180 -91q-79 0 -127.5 41t-48.5 111q0 124 167 152l176 30v10q0 70 -75 70q-77 0 -80 -65h-169q4 82 65 127.5t184 45.5q133 0 192 -54
t59 -164v-293zM270 104q42 0 73.5 25.5t31.5 74.5v25l-109 -19q-65 -12 -65 -58q0 -48 69 -48z" />
    <glyph glyph-name="Cacute" unicode="&#x106;" horiz-adv-x="772" 
d="M231 347q0 -88 45 -144.5t120 -56.5q63 0 102 31.5t48 79.5h199q-12 -130 -110 -199.5t-239 -69.5q-171 0 -267.5 97.5t-96.5 261.5t96.5 261.5t267.5 97.5q91 0 165 -28.5t124.5 -90.5t58.5 -150h-198q-9 48 -48 79.5t-102 31.5q-75 0 -120 -56.5t-45 -144.5zM376 887
h179l-107 -149h-135z" />
    <glyph glyph-name="cacute" unicode="&#x107;" horiz-adv-x="609" 
d="M216 250q0 -66 26.5 -102t69.5 -36q34 0 57 22.5t25 59.5h187q-7 -96 -81 -150.5t-188 -54.5q-131 0 -207.5 70t-76.5 191t76.5 191t207.5 70q114 0 188 -54.5t81 -150.5h-187q-2 37 -25 59.5t-57 22.5q-43 0 -69.5 -36t-26.5 -102zM292 694h179l-107 -149h-135z" />
    <glyph glyph-name="Ccircumflex" unicode="&#x108;" horiz-adv-x="772" 
d="M231 347q0 -88 45 -144.5t120 -56.5q63 0 102 31.5t48 79.5h199q-12 -130 -110 -199.5t-239 -69.5q-171 0 -267.5 97.5t-96.5 261.5t96.5 261.5t267.5 97.5q91 0 165 -28.5t124.5 -90.5t58.5 -150h-198q-9 48 -48 79.5t-102 31.5q-75 0 -120 -56.5t-45 -144.5zM312 887
h167l102 -149h-117l-68 53l-68 -53h-117z" />
    <glyph glyph-name="ccircumflex" unicode="&#x109;" horiz-adv-x="609" 
d="M216 250q0 -66 26.5 -102t69.5 -36q34 0 57 22.5t25 59.5h187q-7 -96 -81 -150.5t-188 -54.5q-131 0 -207.5 70t-76.5 191t76.5 191t207.5 70q114 0 188 -54.5t81 -150.5h-187q-2 37 -25 59.5t-57 22.5q-43 0 -69.5 -36t-26.5 -102zM228 694h167l102 -149h-117l-68 53
l-68 -53h-117z" />
    <glyph glyph-name="Cdotaccent" unicode="&#x10a;" horiz-adv-x="772" 
d="M231 347q0 -88 45 -144.5t120 -56.5q63 0 102 31.5t48 79.5h199q-12 -130 -110 -199.5t-239 -69.5q-171 0 -267.5 97.5t-96.5 261.5t96.5 261.5t267.5 97.5q91 0 165 -28.5t124.5 -90.5t58.5 -150h-198q-9 48 -48 79.5t-102 31.5q-75 0 -120 -56.5t-45 -144.5zM296 755
v132h200v-132h-200z" />
    <glyph glyph-name="cdotaccent" unicode="&#x10b;" horiz-adv-x="609" 
d="M216 250q0 -66 26.5 -102t69.5 -36q34 0 57 22.5t25 59.5h187q-7 -96 -81 -150.5t-188 -54.5q-131 0 -207.5 70t-76.5 191t76.5 191t207.5 70q114 0 188 -54.5t81 -150.5h-187q-2 37 -25 59.5t-57 22.5q-43 0 -69.5 -36t-26.5 -102zM212 562v132h200v-132h-200z" />
    <glyph glyph-name="Ccaron" unicode="&#x10c;" horiz-adv-x="772" 
d="M231 347q0 -88 45 -144.5t120 -56.5q63 0 102 31.5t48 79.5h199q-12 -130 -110 -199.5t-239 -69.5q-171 0 -267.5 97.5t-96.5 261.5t96.5 261.5t267.5 97.5q91 0 165 -28.5t124.5 -90.5t58.5 -150h-198q-9 48 -48 79.5t-102 31.5q-75 0 -120 -56.5t-45 -144.5zM479 738
h-167l-101 149h117l68 -53l68 53h117z" />
    <glyph glyph-name="ccaron" unicode="&#x10d;" horiz-adv-x="609" 
d="M216 250q0 -66 26.5 -102t69.5 -36q34 0 57 22.5t25 59.5h187q-7 -96 -81 -150.5t-188 -54.5q-131 0 -207.5 70t-76.5 191t76.5 191t207.5 70q114 0 188 -54.5t81 -150.5h-187q-2 37 -25 59.5t-57 22.5q-43 0 -69.5 -36t-26.5 -102zM395 545h-167l-101 149h117l68 -53
l68 53h117z" />
    <glyph glyph-name="Dcaron" unicode="&#x10e;" horiz-adv-x="769" 
d="M737 347q0 -157 -92.5 -252t-286.5 -95h-291v694h291q194 0 286.5 -95t92.5 -252zM539 347q0 98 -49 143t-135 45h-99v-376h99q86 0 135 45t49 143zM444 738h-167l-101 149h117l68 -53l68 53h117z" />
    <glyph glyph-name="dcaron" unicode="&#x10f;" horiz-adv-x="787" 
d="M256 511q93 0 153 -65v248h180v-694h-171v64q-59 -75 -162 -75q-102 0 -163.5 70.5t-61.5 190.5t61.5 190.5t163.5 70.5zM315 388q-46 0 -71 -38.5t-25 -99.5t25 -99.5t71 -38.5t71 38.5t25 99.5t-25 99.5t-71 38.5zM672 694h165l-88 -190h-120z" />
    <glyph glyph-name="Dcroat" unicode="&#x110;" horiz-adv-x="801" 
d="M769 347q0 -157 -92.5 -252t-286.5 -95h-291v277h-74v140h74v277h291q194 0 286.5 -95t92.5 -252zM571 347q0 187 -184 187h-99v-117h100v-140h-100v-117h99q184 0 184 187z" />
    <glyph glyph-name="dcroat" unicode="&#x111;" horiz-adv-x="649" 
d="M649 528h-60v-528h-171v64q-59 -75 -162 -75q-102 0 -163.5 70.5t-61.5 190.5t61.5 190.5t163.5 70.5q93 0 153 -65v82h-104v107h104v58h180v-58h60v-107zM315 388q-46 0 -71 -38.5t-25 -99.5t25 -99.5t71 -38.5t71 38.5t25 99.5t-25 99.5t-71 38.5z" />
    <glyph glyph-name="Emacron" unicode="&#x112;" horiz-adv-x="667" 
d="M67 0v694h541v-158h-352v-109h317v-150h-317v-119h361v-158h-550zM479 765h-286v114h286v-114z" />
    <glyph glyph-name="emacron" unicode="&#x113;" horiz-adv-x="619" 
d="M28 250q0 117 75 189t205 72q135 0 207 -69.5t72 -189.5v-45h-378q5 -43 32 -70.5t68 -27.5q33 0 56.5 15.5t30.5 44.5h186q-17 -85 -91 -132.5t-183 -47.5q-124 0 -202 68.5t-78 192.5zM211 305h195q-4 45 -29.5 68.5t-64.5 23.5q-41 0 -68.5 -25.5t-32.5 -66.5z
M451 572h-286v114h286v-114z" />
    <glyph glyph-name="Ebreve" unicode="&#x114;" horiz-adv-x="667" 
d="M67 0v694h541v-158h-352v-109h317v-150h-317v-119h361v-158h-550zM336 726q-75 0 -120.5 44t-45.5 117h109q0 -21 15 -38t43 -17t43 17t15 38h109q0 -73 -46 -117t-122 -44z" />
    <glyph glyph-name="ebreve" unicode="&#x115;" horiz-adv-x="619" 
d="M28 250q0 117 75 189t205 72q135 0 207 -69.5t72 -189.5v-45h-378q5 -43 32 -70.5t68 -27.5q33 0 56.5 15.5t30.5 44.5h186q-17 -85 -91 -132.5t-183 -47.5q-124 0 -202 68.5t-78 192.5zM211 305h195q-4 45 -29.5 68.5t-64.5 23.5q-41 0 -68.5 -25.5t-32.5 -66.5z
M308 533q-75 0 -120.5 44t-45.5 117h109q0 -21 15 -38t43 -17t43 17t15 38h109q0 -73 -46 -117t-122 -44z" />
    <glyph glyph-name="Edotaccent" unicode="&#x116;" horiz-adv-x="667" 
d="M67 0v694h541v-158h-352v-109h317v-150h-317v-119h361v-158h-550zM236 755v132h200v-132h-200z" />
    <glyph glyph-name="edotaccent" unicode="&#x117;" horiz-adv-x="619" 
d="M28 250q0 117 75 189t205 72q135 0 207 -69.5t72 -189.5v-45h-378q5 -43 32 -70.5t68 -27.5q33 0 56.5 15.5t30.5 44.5h186q-17 -85 -91 -132.5t-183 -47.5q-124 0 -202 68.5t-78 192.5zM211 305h195q-4 45 -29.5 68.5t-64.5 23.5q-41 0 -68.5 -25.5t-32.5 -66.5z
M208 562v132h200v-132h-200z" />
    <glyph glyph-name="Eogonek" unicode="&#x118;" horiz-adv-x="667" 
d="M67 0v694h541v-158h-352v-109h317v-150h-317v-119h361v-158q-31 -34 -31 -60q0 -15 10 -23t26 -8q28 0 53 9v-93q-30 -13 -96 -13q-46 0 -75 22t-29 59q0 48 55 107h-463z" />
    <glyph glyph-name="eogonek" unicode="&#x119;" horiz-adv-x="619" 
d="M28 250q0 117 75 189t205 72q135 0 207 -69.5t72 -189.5v-45h-378q5 -43 32 -70.5t68 -27.5q33 0 56.5 15.5t30.5 44.5h186q-9 -44 -31.5 -74.5t-67.5 -73.5q-49 -46 -49 -81q0 -15 10 -23t26 -8q28 0 53 9v-93q-30 -13 -96 -13q-46 0 -75 22t-29 59q0 45 48 99
q-25 -3 -63 -3q-124 0 -202 68.5t-78 192.5zM211 305h195q-4 45 -29.5 68.5t-64.5 23.5q-41 0 -68.5 -25.5t-32.5 -66.5z" />
    <glyph glyph-name="Ecaron" unicode="&#x11a;" horiz-adv-x="667" 
d="M67 0v694h541v-158h-352v-109h317v-150h-317v-119h361v-158h-550zM419 738h-167l-101 149h117l68 -53l68 53h117z" />
    <glyph glyph-name="ecaron" unicode="&#x11b;" horiz-adv-x="619" 
d="M28 250q0 117 75 189t205 72q135 0 207 -69.5t72 -189.5v-45h-378q5 -43 32 -70.5t68 -27.5q33 0 56.5 15.5t30.5 44.5h186q-17 -85 -91 -132.5t-183 -47.5q-124 0 -202 68.5t-78 192.5zM211 305h195q-4 45 -29.5 68.5t-64.5 23.5q-41 0 -68.5 -25.5t-32.5 -66.5z
M391 545h-167l-101 149h117l68 -53l68 53h117z" />
    <glyph glyph-name="Gcircumflex" unicode="&#x11c;" horiz-adv-x="810" 
d="M419 253v138h328v-391h-167v85q-78 -97 -220 -97q-143 0 -235.5 99t-92.5 260q0 164 98 261.5t271 97.5q140 0 234 -66t110 -183h-201q-12 45 -49.5 68t-89.5 23q-81 0 -127.5 -56t-46.5 -145q0 -95 48 -150t128 -55q62 0 107.5 29.5t58.5 81.5h-154zM312 887h167
l102 -149h-117l-68 53l-68 -53h-117z" />
    <glyph glyph-name="gcircumflex" unicode="&#x11d;" horiz-adv-x="641" 
d="M589 500v-449q0 -124 -72.5 -183.5t-204.5 -59.5q-140 0 -206 47t-68 128h184q7 -65 92 -65q95 0 95 110v54q-54 -65 -149 -65q-102 0 -165.5 68.5t-63.5 178.5q0 111 64.5 179t163.5 68q100 0 159 -74v63h171zM219 264q0 -53 25.5 -89t70.5 -36t71 36t26 89
q0 54 -25.5 90t-71.5 36q-45 0 -70.5 -36t-25.5 -90zM228 694h167l102 -149h-117l-68 53l-68 -53h-117z" />
    <glyph glyph-name="Gbreve" unicode="&#x11e;" horiz-adv-x="810" 
d="M419 253v138h328v-391h-167v85q-78 -97 -220 -97q-143 0 -235.5 99t-92.5 260q0 164 98 261.5t271 97.5q140 0 234 -66t110 -183h-201q-12 45 -49.5 68t-89.5 23q-81 0 -127.5 -56t-46.5 -145q0 -95 48 -150t128 -55q62 0 107.5 29.5t58.5 81.5h-154zM396 726
q-75 0 -120.5 44t-45.5 117h109q0 -21 15 -38t43 -17t43 17t15 38h109q0 -73 -46 -117t-122 -44z" />
    <glyph glyph-name="gbreve" unicode="&#x11f;" horiz-adv-x="641" 
d="M589 500v-449q0 -124 -72.5 -183.5t-204.5 -59.5q-140 0 -206 47t-68 128h184q7 -65 92 -65q95 0 95 110v54q-54 -65 -149 -65q-102 0 -165.5 68.5t-63.5 178.5q0 111 64.5 179t163.5 68q100 0 159 -74v63h171zM219 264q0 -53 25.5 -89t70.5 -36t71 36t26 89
q0 54 -25.5 90t-71.5 36q-45 0 -70.5 -36t-25.5 -90zM312 533q-75 0 -120.5 44t-45.5 117h109q0 -21 15 -38t43 -17t43 17t15 38h109q0 -73 -46 -117t-122 -44z" />
    <glyph glyph-name="Gdotaccent" unicode="&#x120;" horiz-adv-x="810" 
d="M419 253v138h328v-391h-167v85q-78 -97 -220 -97q-143 0 -235.5 99t-92.5 260q0 164 98 261.5t271 97.5q140 0 234 -66t110 -183h-201q-12 45 -49.5 68t-89.5 23q-81 0 -127.5 -56t-46.5 -145q0 -95 48 -150t128 -55q62 0 107.5 29.5t58.5 81.5h-154zM296 755v132h200
v-132h-200z" />
    <glyph glyph-name="gdotaccent" unicode="&#x121;" horiz-adv-x="641" 
d="M589 500v-449q0 -124 -72.5 -183.5t-204.5 -59.5q-140 0 -206 47t-68 128h184q7 -65 92 -65q95 0 95 110v54q-54 -65 -149 -65q-102 0 -165.5 68.5t-63.5 178.5q0 111 64.5 179t163.5 68q100 0 159 -74v63h171zM219 264q0 -53 25.5 -89t70.5 -36t71 36t26 89
q0 54 -25.5 90t-71.5 36q-45 0 -70.5 -36t-25.5 -90zM212 562v132h200v-132h-200z" />
    <glyph glyph-name="Gcommaaccent" unicode="&#x122;" horiz-adv-x="810" 
d="M419 253v138h328v-391h-167v85q-78 -97 -220 -97q-143 0 -235.5 99t-92.5 260q0 164 98 261.5t271 97.5q140 0 234 -66t110 -183h-201q-12 45 -49.5 68t-89.5 23q-81 0 -127.5 -56t-46.5 -145q0 -95 48 -150t128 -55q62 0 107.5 29.5t58.5 81.5h-154zM472 -45v-92
q0 -76 -44 -108.5t-141 -32.5v72q50 0 68 13.5t18 38.5v2h-88v107h187z" />
    <glyph glyph-name="gcommaaccent" unicode="&#x123;" horiz-adv-x="641" 
d="M589 500v-449q0 -124 -72.5 -183.5t-204.5 -59.5q-140 0 -206 47t-68 128h184q7 -65 92 -65q95 0 95 110v54q-54 -65 -149 -65q-102 0 -165.5 68.5t-63.5 178.5q0 111 64.5 179t163.5 68q100 0 159 -74v63h171zM219 264q0 -53 25.5 -89t70.5 -36t71 36t26 89
q0 54 -25.5 90t-71.5 36q-45 0 -70.5 -36t-25.5 -90zM219 552v92q0 76 44 108.5t141 32.5v-72q-50 0 -68 -13.5t-18 -38.5v-2h88v-107h-187z" />
    <glyph glyph-name="Hcircumflex" unicode="&#x124;" horiz-adv-x="796" 
d="M67 0v694h189v-263h284v263h189v-694h-189v268h-284v-268h-189zM314 887h167l102 -149h-117l-68 53l-68 -53h-117z" />
    <glyph glyph-name="hcircumflex" unicode="&#x125;" horiz-adv-x="610" 
d="M382 0v279q0 95 -73 95q-37 0 -57.5 -29.5t-20.5 -80.5v-264h-180v694h180v-262q21 35 63 57t93 22q87 0 131 -49.5t44 -136.5v-325h-180zM57 867h167l102 -149h-117l-68 53l-68 -53h-117z" />
    <glyph glyph-name="Hbar" unicode="&#x126;" horiz-adv-x="856" 
d="M831 427h-72v-427h-189v172h-284v-172h-189v427h-72v140h72v127h189v-127h284v127h189v-127h72v-140zM286 334h284v93h-284v-93z" />
    <glyph glyph-name="hbar" unicode="&#x127;" horiz-adv-x="619" 
d="M391 0v279q0 95 -73 95q-37 0 -57.5 -29.5t-20.5 -80.5v-264h-180v528h-60v107h60v59h180v-59h104v-107h-104v-96q21 35 63 57t93 22q87 0 131 -49.5t44 -136.5v-325h-180z" />
    <glyph glyph-name="Itilde" unicode="&#x128;" horiz-adv-x="323" 
d="M67 0v694h189v-694h-189zM237 747q-24 0 -68 18t-52 18q-22 0 -22 -36h-103q0 36 7.5 67t30 56.5t58.5 25.5q24 0 68 -18t52 -18q23 0 23 36h102q0 -59 -22 -104t-74 -45z" />
    <glyph glyph-name="itilde" unicode="&#x129;" horiz-adv-x="284" 
d="M52 500h180v-500h-180v500zM217 554q-24 0 -68 18t-52 18q-22 0 -22 -36h-103q0 36 7.5 67t30 56.5t58.5 25.5q24 0 68 -18t52 -18q23 0 23 36h102q0 -59 -22 -104t-74 -45z" />
    <glyph glyph-name="Imacron" unicode="&#x12a;" horiz-adv-x="323" 
d="M67 0v694h189v-694h-189zM305 765h-286v114h286v-114z" />
    <glyph glyph-name="imacron" unicode="&#x12b;" horiz-adv-x="284" 
d="M52 500h180v-500h-180v500zM285 572h-286v114h286v-114z" />
    <glyph glyph-name="Ibreve" unicode="&#x12c;" horiz-adv-x="323" 
d="M67 0v694h189v-694h-189zM162 726q-75 0 -120.5 44t-45.5 117h109q0 -21 15 -38t43 -17t43 17t15 38h109q0 -73 -46 -117t-122 -44z" />
    <glyph glyph-name="ibreve" unicode="&#x12d;" horiz-adv-x="284" 
d="M52 500h180v-500h-180v500zM142 533q-75 0 -120.5 44t-45.5 117h109q0 -21 15 -38t43 -17t43 17t15 38h109q0 -73 -46 -117t-122 -44z" />
    <glyph glyph-name="Iogonek" unicode="&#x12e;" horiz-adv-x="323" 
d="M166 -188q-46 0 -75 22t-29 59q0 28 21.5 59.5t53.5 47.5h-70v694h189v-694q-36 -4 -59.5 -22t-23.5 -38q0 -15 10 -23t26 -8q28 0 53 9v-93q-30 -13 -96 -13z" />
    <glyph glyph-name="iogonek" unicode="&#x12f;" horiz-adv-x="284" 
d="M146 -188q-46 0 -75 22t-29 59q0 62 72 107h-62v500h180v-500q-41 -7 -60 -24.5t-19 -33.5t10 -24.5t26 -8.5q28 0 53 9v-93q-30 -13 -96 -13zM42 562v132h200v-132h-200z" />
    <glyph glyph-name="Idotaccent" unicode="&#x130;" horiz-adv-x="323" 
d="M67 0v694h189v-694h-189zM62 755v132h200v-132h-200z" />
    <glyph glyph-name="dotlessi" unicode="&#x131;" horiz-adv-x="284" 
d="M52 500h180v-500h-180v500z" />
    <glyph glyph-name="IJ" unicode="&#x132;" horiz-adv-x="993" 
d="M67 0v694h189v-694h-189zM634 150q103 0 103 134v410h189v-407q0 -148 -69.5 -223.5t-222.5 -75.5t-222 75.5t-69 223.5v25h189v-28q0 -134 102 -134z" />
    <glyph glyph-name="ij" unicode="&#x133;" horiz-adv-x="570" 
d="M52 500h180v-500h-180v500zM42 562v132h200v-132h-200zM230 -180v133q16 -2 42 -2q36 0 51 17.5t15 54.5v477h180v-510q0 -86 -52.5 -131t-149.5 -45q-46 0 -86 6zM328 562v132h200v-132h-200z" />
    <glyph glyph-name="Jcircumflex" unicode="&#x134;" horiz-adv-x="663" 
d="M311 150q103 0 103 134v410h189v-407q0 -148 -69.5 -223.5t-222.5 -75.5t-222 75.5t-69 223.5v25h189v-28q0 -134 102 -134zM425 887h167l102 -149h-117l-68 53l-68 -53h-117z" />
    <glyph glyph-name="jcircumflex" unicode="&#x135;" horiz-adv-x="286" 
d="M-54 -179v129q24 -3 45 -3q36 0 49.5 17t13.5 55v481h180v-510q0 -176 -192 -176q-58 0 -96 7zM60 694h167l102 -149h-117l-68 53l-68 -53h-117z" />
    <glyph glyph-name="Kcommaaccent" unicode="&#x136;" horiz-adv-x="756" 
d="M67 0v694h189v-297l258 297h230l-253 -289l255 -405h-220l-176 282l-94 -105v-177h-189zM466 -45v-92q0 -76 -44 -108.5t-141 -32.5v72q50 0 68 13.5t18 38.5v2h-88v107h187z" />
    <glyph glyph-name="kcommaaccent" unicode="&#x137;" horiz-adv-x="624" 
d="M427 304l194 -304h-207l-117 189l-65 -72v-117h-180v694h180v-380l172 186h202zM392 -45v-92q0 -76 -44 -108.5t-141 -32.5v72q50 0 68 13.5t18 38.5v2h-88v107h187z" />
    <glyph glyph-name="kgreenlandic" unicode="&#x138;" horiz-adv-x="624" 
d="M232 0h-180v500h180v-186l172 186h202l-179 -196l194 -304h-207l-117 189l-65 -72v-117z" />
    <glyph glyph-name="Lacute" unicode="&#x139;" horiz-adv-x="619" 
d="M67 0v694h189v-531h333v-163h-522zM142 887h179l-107 -149h-135z" />
    <glyph glyph-name="lacute" unicode="&#x13a;" horiz-adv-x="284" 
d="M52 694h180v-694h-180v694zM132 867h179l-107 -149h-135z" />
    <glyph glyph-name="Lcommaaccent" unicode="&#x13b;" horiz-adv-x="619" 
d="M67 0v694h189v-531h333v-163h-522zM422 -45v-92q0 -76 -44 -108.5t-141 -32.5v72q50 0 68 13.5t18 38.5v2h-88v107h187z" />
    <glyph glyph-name="lcommaaccent" unicode="&#x13c;" horiz-adv-x="284" 
d="M52 694h180v-694h-180v694zM237 -45v-92q0 -76 -44 -108.5t-141 -32.5v72q50 0 68 13.5t18 38.5v2h-88v107h187z" />
    <glyph glyph-name="Lcaron" unicode="&#x13d;" horiz-adv-x="619" 
d="M67 0v694h189v-531h333v-163h-522zM368 694h165l-88 -190h-120z" />
    <glyph glyph-name="lcaron" unicode="&#x13e;" horiz-adv-x="430" 
d="M52 694h180v-694h-180v694zM315 694h165l-88 -190h-120z" />
    <glyph glyph-name="Ldot" unicode="&#x13f;" horiz-adv-x="629" 
d="M67 0v694h189v-531h333v-163h-522zM382 299v191h187v-191h-187z" />
    <glyph glyph-name="ldot" unicode="&#x140;" horiz-adv-x="511" 
d="M52 694h180v-694h-180v694zM304 223v191h187v-191h-187z" />
    <glyph glyph-name="Lslash" unicode="&#x141;" horiz-adv-x="647" 
d="M25 192v150l70 28v324h189v-247l124 51v-150l-124 -51v-134h333v-163h-522v220z" />
    <glyph glyph-name="lslash" unicode="&#x142;" horiz-adv-x="350" 
d="M265 0h-180v229l-60 -26v127l60 26v338h180v-260l60 26v-127l-60 -26v-307z" />
    <glyph glyph-name="Nacute" unicode="&#x143;" horiz-adv-x="801" 
d="M734 694v-694h-223l-260 452v-452h-184v694h221l262 -454v454h184zM382 887h179l-107 -149h-135z" />
    <glyph glyph-name="nacute" unicode="&#x144;" horiz-adv-x="611" 
d="M232 0h-180v500h171v-73q25 36 67.5 60t96.5 24q88 0 132 -49.5t44 -136.5v-325h-180v277q0 97 -73 97q-37 0 -57.5 -29.5t-20.5 -81.5v-263zM288 694h179l-107 -149h-135z" />
    <glyph glyph-name="Ncommaaccent" unicode="&#x145;" horiz-adv-x="801" 
d="M734 694v-694h-223l-260 452v-452h-184v694h221l262 -454v454h184zM491 -45v-92q0 -76 -44 -108.5t-141 -32.5v72q50 0 68 13.5t18 38.5v2h-88v107h187z" />
    <glyph glyph-name="ncommaaccent" unicode="&#x146;" horiz-adv-x="611" 
d="M232 0h-180v500h171v-73q25 36 67.5 60t96.5 24q88 0 132 -49.5t44 -136.5v-325h-180v277q0 97 -73 97q-37 0 -57.5 -29.5t-20.5 -81.5v-263zM397 -45v-92q0 -76 -44 -108.5t-141 -32.5v72q50 0 68 13.5t18 38.5v2h-88v107h187z" />
    <glyph glyph-name="Ncaron" unicode="&#x147;" horiz-adv-x="801" 
d="M734 694v-694h-223l-260 452v-452h-184v694h221l262 -454v454h184zM485 738h-167l-101 149h117l68 -53l68 53h117z" />
    <glyph glyph-name="ncaron" unicode="&#x148;" horiz-adv-x="611" 
d="M232 0h-180v500h171v-73q25 36 67.5 60t96.5 24q88 0 132 -49.5t44 -136.5v-325h-180v277q0 97 -73 97q-37 0 -57.5 -29.5t-20.5 -81.5v-263zM391 545h-167l-101 149h117l68 -53l68 53h117z" />
    <glyph glyph-name="napostrophe" unicode="&#x149;" horiz-adv-x="852" 
d="M473 0h-180v500h171v-73q25 36 67.5 60t96.5 24q88 0 132 -49.5t44 -136.5v-325h-180v277q0 97 -73 97q-37 0 -57.5 -29.5t-20.5 -81.5v-263zM240 694v-186q0 -152 -188 -152v87q53 2 72 20.5t19 57.5v2h-86v171h183z" />
    <glyph glyph-name="Eng" unicode="&#x14a;" horiz-adv-x="801" 
d="M534 -186q-54 0 -86 6v133q16 -2 50 -2q29 0 43 13t14 32v4h-44l-260 452v-452h-186v694h223l262 -454v454h186v-704q0 -86 -52.5 -131t-149.5 -45z" />
    <glyph glyph-name="eng" unicode="&#x14b;" horiz-adv-x="611" 
d="M232 0h-180v500h171v-73q25 36 67.5 60t96.5 24q88 0 132 -49.5t44 -136.5v-335q0 -86 -51.5 -131t-148.5 -45q-56 0 -88 6v133q16 -2 43 -2q36 0 50.5 17.5t14.5 55.5v253q0 97 -73 97q-37 0 -57.5 -29.5t-20.5 -81.5v-263z" />
    <glyph glyph-name="Omacron" unicode="&#x14c;" horiz-adv-x="792" 
d="M760 347q0 -164 -96.5 -261.5t-267.5 -97.5t-267.5 97.5t-96.5 261.5t96.5 261.5t267.5 97.5t267.5 -97.5t96.5 -261.5zM561 347q0 88 -45 144.5t-120 56.5t-120 -56.5t-45 -144.5t45 -144.5t120 -56.5t120 56.5t45 144.5zM539 765h-286v114h286v-114z" />
    <glyph glyph-name="omacron" unicode="&#x14d;" horiz-adv-x="624" 
d="M312 -11q-130 0 -207 70t-77 191t77 191t207 70t207 -70t77 -191t-77 -191t-207 -70zM312 112q46 0 71 38.5t25 99.5t-25 99.5t-71 38.5t-71 -38.5t-25 -99.5t25 -99.5t71 -38.5zM455 572h-286v114h286v-114z" />
    <glyph glyph-name="Obreve" unicode="&#x14e;" horiz-adv-x="792" 
d="M760 347q0 -164 -96.5 -261.5t-267.5 -97.5t-267.5 97.5t-96.5 261.5t96.5 261.5t267.5 97.5t267.5 -97.5t96.5 -261.5zM561 347q0 88 -45 144.5t-120 56.5t-120 -56.5t-45 -144.5t45 -144.5t120 -56.5t120 56.5t45 144.5zM396 726q-75 0 -120.5 44t-45.5 117h109
q0 -21 15 -38t43 -17t43 17t15 38h109q0 -73 -46 -117t-122 -44z" />
    <glyph glyph-name="obreve" unicode="&#x14f;" horiz-adv-x="624" 
d="M312 -11q-130 0 -207 70t-77 191t77 191t207 70t207 -70t77 -191t-77 -191t-207 -70zM312 112q46 0 71 38.5t25 99.5t-25 99.5t-71 38.5t-71 -38.5t-25 -99.5t25 -99.5t71 -38.5zM312 533q-75 0 -120.5 44t-45.5 117h109q0 -21 15 -38t43 -17t43 17t15 38h109
q0 -73 -46 -117t-122 -44z" />
    <glyph glyph-name="Ohungarumlaut" unicode="&#x150;" horiz-adv-x="792" 
d="M760 347q0 -164 -96.5 -261.5t-267.5 -97.5t-267.5 97.5t-96.5 261.5t96.5 261.5t267.5 97.5t267.5 -97.5t96.5 -261.5zM561 347q0 88 -45 144.5t-120 56.5t-120 -56.5t-45 -144.5t45 -144.5t120 -56.5t120 56.5t45 144.5zM307 887h159l-112 -159h-115zM505 887h159
l-112 -159h-115z" />
    <glyph glyph-name="ohungarumlaut" unicode="&#x151;" horiz-adv-x="624" 
d="M312 -11q-130 0 -207 70t-77 191t77 191t207 70t207 -70t77 -191t-77 -191t-207 -70zM312 112q46 0 71 38.5t25 99.5t-25 99.5t-71 38.5t-71 -38.5t-25 -99.5t25 -99.5t71 -38.5zM223 694h159l-112 -159h-115zM421 694h159l-112 -159h-115z" />
    <glyph glyph-name="OE" unicode="&#x152;" horiz-adv-x="1163" 
d="M561 0v44q-82 -56 -183 -56q-159 0 -252.5 98t-93.5 261t93.5 261t252.5 98q101 0 183 -56v44h543v-157h-350v-109h315v-152h-315v-119h359v-157h-552zM561 347q0 88 -45 144.5t-120 56.5t-120 -56.5t-45 -144.5t45 -144.5t120 -56.5t120 56.5t45 144.5z" />
    <glyph glyph-name="oe" unicode="&#x153;" horiz-adv-x="985" 
d="M681 -11q-51 0 -102 20t-83 56q-70 -76 -194 -76q-123 0 -198.5 70.5t-75.5 190.5t75.5 190.5t198.5 70.5q125 0 193 -76q31 35 84 55.5t107 20.5q134 0 201.5 -69t67.5 -190v-47h-378q6 -42 32 -68t67 -26q32 0 55.5 15.5t30.5 43.5h188q-16 -85 -88 -133t-181 -48z
M216 250q0 -61 25 -99.5t71 -38.5t71 38.5t25 99.5t-25 99.5t-71 38.5t-71 -38.5t-25 -99.5zM580 305h192q-4 45 -29 68.5t-63 23.5q-41 0 -68 -25.5t-32 -66.5z" />
    <glyph glyph-name="Racute" unicode="&#x154;" horiz-adv-x="728" 
d="M67 0v694h339q268 0 268 -214q0 -65 -32.5 -117.5t-85.5 -75.5l148 -287h-206l-128 246h-114v-246h-189zM256 379h119q102 0 102 85t-102 85h-119v-170zM350 887h179l-107 -149h-135z" />
    <glyph glyph-name="racute" unicode="&#x155;" horiz-adv-x="433" 
d="M413 510v-166q-30 2 -56 2q-61 0 -93 -34t-32 -96v-216h-180v500h171v-117q22 69 64.5 98t120.5 29h5zM207 694h179l-107 -149h-135z" />
    <glyph glyph-name="Rcommaaccent" unicode="&#x156;" horiz-adv-x="728" 
d="M67 0v694h339q268 0 268 -214q0 -65 -32.5 -117.5t-85.5 -75.5l148 -287h-206l-128 246h-114v-246h-189zM256 379h119q102 0 102 85t-102 85h-119v-170zM457 -45v-92q0 -76 -44 -108.5t-141 -32.5v72q50 0 68 13.5t18 38.5v2h-88v107h187z" />
    <glyph glyph-name="rcommaaccent" unicode="&#x157;" horiz-adv-x="433" 
d="M413 510v-166q-30 2 -56 2q-61 0 -93 -34t-32 -96v-216h-180v500h171v-117q22 69 64.5 98t120.5 29h5zM236 -45v-92q0 -76 -44 -108.5t-141 -32.5v72q50 0 68 13.5t18 38.5v2h-88v107h187z" />
    <glyph glyph-name="Rcaron" unicode="&#x158;" horiz-adv-x="728" 
d="M67 0v694h339q268 0 268 -214q0 -65 -32.5 -117.5t-85.5 -75.5l148 -287h-206l-128 246h-114v-246h-189zM256 379h119q102 0 102 85t-102 85h-119v-170zM453 738h-167l-101 149h117l68 -53l68 53h117z" />
    <glyph glyph-name="rcaron" unicode="&#x159;" horiz-adv-x="433" 
d="M413 510v-166q-30 2 -56 2q-61 0 -93 -34t-32 -96v-216h-180v500h171v-117q22 69 64.5 98t120.5 29h5zM307 545h-167l-101 149h117l68 -53l68 53h117z" />
    <glyph glyph-name="Sacute" unicode="&#x15a;" horiz-adv-x="698" 
d="M355 -12q-153 0 -234 67t-84 186h186q3 -53 40.5 -82.5t96.5 -29.5q52 0 81.5 18t29.5 51q0 24 -17 38.5t-61 23.5l-150 31q-192 39 -192 197q0 100 80 159t207 59q140 0 226.5 -56.5t86.5 -174.5h-186q-4 46 -38 69.5t-88 23.5q-46 0 -72 -17.5t-26 -44.5
q0 -24 17 -38.5t61 -23.5l150 -31q192 -39 192 -197q0 -105 -82.5 -166.5t-223.5 -61.5zM318 887h179l-107 -149h-135z" />
    <glyph glyph-name="sacute" unicode="&#x15b;" horiz-adv-x="577" 
d="M42 345q0 76 67.5 121t176.5 45q108 0 178.5 -43t71.5 -125h-168q0 31 -22 47.5t-60 16.5q-31 0 -48 -11t-17 -29q0 -17 12 -26t40 -14l122 -22q150 -27 150 -146q0 -80 -66 -125t-186 -45q-248 0 -261 179h178q2 -36 24 -55.5t62 -19.5q31 0 50.5 12.5t19.5 31.5
q0 17 -12 26t-40 14l-122 22q-150 27 -150 146zM266 694h179l-107 -149h-135z" />
    <glyph glyph-name="Scircumflex" unicode="&#x15c;" horiz-adv-x="698" 
d="M355 -12q-153 0 -234 67t-84 186h186q3 -53 40.5 -82.5t96.5 -29.5q52 0 81.5 18t29.5 51q0 24 -17 38.5t-61 23.5l-150 31q-192 39 -192 197q0 100 80 159t207 59q140 0 226.5 -56.5t86.5 -174.5h-186q-4 46 -38 69.5t-88 23.5q-46 0 -72 -17.5t-26 -44.5
q0 -24 17 -38.5t61 -23.5l150 -31q192 -39 192 -197q0 -105 -82.5 -166.5t-223.5 -61.5zM254 887h167l102 -149h-117l-68 53l-68 -53h-117z" />
    <glyph glyph-name="scircumflex" unicode="&#x15d;" horiz-adv-x="577" 
d="M42 345q0 76 67.5 121t176.5 45q108 0 178.5 -43t71.5 -125h-168q0 31 -22 47.5t-60 16.5q-31 0 -48 -11t-17 -29q0 -17 12 -26t40 -14l122 -22q150 -27 150 -146q0 -80 -66 -125t-186 -45q-248 0 -261 179h178q2 -36 24 -55.5t62 -19.5q31 0 50.5 12.5t19.5 31.5
q0 17 -12 26t-40 14l-122 22q-150 27 -150 146zM202 694h167l102 -149h-117l-68 53l-68 -53h-117z" />
    <glyph glyph-name="Scedilla" unicode="&#x15e;" horiz-adv-x="698" 
d="M468 -112q-1 -48 -38.5 -73t-97.5 -25q-36 0 -79 13v80q41 -17 80 -17q43 0 43 22q0 20 -32 20q-10 0 -46 -11l-28 36l44 56q-134 9 -204.5 75t-72.5 177h186q3 -53 40.5 -82.5t96.5 -29.5q52 0 81.5 18t29.5 51q0 24 -17 38.5t-61 23.5l-150 31q-192 39 -192 197
q0 100 80 159t207 59q140 0 226.5 -56.5t86.5 -174.5h-186q-4 46 -38 69.5t-88 23.5q-46 0 -72 -17.5t-26 -44.5q0 -24 17 -38.5t61 -23.5l150 -31q192 -39 192 -197q0 -100 -74.5 -160.5t-203.5 -66.5h-1l-23 -29q4 1 11 1q94 0 98 -73z" />
    <glyph glyph-name="scedilla" unicode="&#x15f;" horiz-adv-x="577" 
d="M409 -112q-1 -48 -38.5 -73t-97.5 -25q-36 0 -79 13v80q41 -17 80 -17q43 0 43 22q0 20 -32 20q-10 0 -46 -11l-28 36l45 57q-213 13 -224 178h178q2 -36 24 -55.5t62 -19.5q31 0 50.5 12.5t19.5 31.5q0 17 -12 26t-40 14l-122 22q-150 27 -150 146q0 76 67.5 121
t176.5 45q108 0 178.5 -43t71.5 -125h-168q0 31 -22 47.5t-60 16.5q-31 0 -48 -11t-17 -29q0 -17 12 -26t40 -14l122 -22q150 -27 150 -146q0 -75 -57.5 -119t-163.5 -50l-24 -30q4 1 11 1q94 0 98 -73z" />
    <glyph glyph-name="Scaron" unicode="&#x160;" horiz-adv-x="698" 
d="M355 -12q-153 0 -234 67t-84 186h186q3 -53 40.5 -82.5t96.5 -29.5q52 0 81.5 18t29.5 51q0 24 -17 38.5t-61 23.5l-150 31q-192 39 -192 197q0 100 80 159t207 59q140 0 226.5 -56.5t86.5 -174.5h-186q-4 46 -38 69.5t-88 23.5q-46 0 -72 -17.5t-26 -44.5
q0 -24 17 -38.5t61 -23.5l150 -31q192 -39 192 -197q0 -105 -82.5 -166.5t-223.5 -61.5zM421 738h-167l-101 149h117l68 -53l68 53h117z" />
    <glyph glyph-name="scaron" unicode="&#x161;" horiz-adv-x="577" 
d="M42 345q0 76 67.5 121t176.5 45q108 0 178.5 -43t71.5 -125h-168q0 31 -22 47.5t-60 16.5q-31 0 -48 -11t-17 -29q0 -17 12 -26t40 -14l122 -22q150 -27 150 -146q0 -80 -66 -125t-186 -45q-248 0 -261 179h178q2 -36 24 -55.5t62 -19.5q31 0 50.5 12.5t19.5 31.5
q0 17 -12 26t-40 14l-122 22q-150 27 -150 146zM369 545h-167l-101 149h117l68 -53l68 53h117z" />
    <glyph glyph-name="Tcommaaccent" unicode="&#x162;" horiz-adv-x="661" 
d="M446 -112q-1 -48 -38.5 -73t-97.5 -25q-36 0 -79 13v80q41 -17 80 -17q43 0 43 22q0 20 -32 20q-10 0 -46 -11l-28 36l54 67h-66v532h-219v162h627v-162h-219v-532h-55l-33 -40q4 1 11 1q94 0 98 -73z" />
    <glyph glyph-name="tcommaaccent" unicode="&#x163;" horiz-adv-x="430" 
d="M336 -112q-1 -48 -38.5 -73t-97.5 -25q-36 0 -79 13v80q41 -17 80 -17q43 0 43 22q0 20 -32 20q-10 0 -46 -11l-28 36l58 71q-107 26 -107 162v201h-71v133h71v121h180v-121h125v-133h-125v-163q0 -38 14.5 -54t53.5 -16q29 0 57 5v-135q-46 -9 -117 -9q-14 0 -21 1
l-29 -36q4 1 11 1q94 0 98 -73z" />
    <glyph glyph-name="Tcaron" unicode="&#x164;" horiz-adv-x="661" 
d="M17 532v162h627v-162h-219v-532h-189v532h-219zM413 738h-167l-101 149h117l68 -53l68 53h117z" />
    <glyph glyph-name="tcaron" unicode="&#x165;" horiz-adv-x="430" 
d="M18 367v133h71v121h180v-121h125v-133h-125v-161q0 -38 14.5 -54.5t53.5 -16.5q29 0 57 5v-135q-51 -10 -127 -10q-94 0 -136 44t-42 132v196h-71zM361 744h165l-88 -190h-120z" />
    <glyph glyph-name="Tbar" unicode="&#x166;" horiz-adv-x="661" 
d="M527 255h-102v-255h-189v255h-102v140h102v137h-219v162h627v-162h-219v-137h102v-140z" />
    <glyph glyph-name="tbar" unicode="&#x167;" horiz-adv-x="448" 
d="M277 208v-7q0 -37 14 -53.5t50 -16.5q33 0 61 5v-132q-49 -9 -126 -9q-92 0 -135.5 42.5t-43.5 128.5v42h-71v107h76v52h-76v133h71v121h180v-121h125v-133h-130v-52h114v-107h-109z" />
    <glyph glyph-name="Utilde" unicode="&#x168;" horiz-adv-x="747" 
d="M374 -12q-314 0 -314 302v404h189v-404q0 -69 33 -105t92 -36t91.5 36t32.5 105v404h189v-404q0 -302 -313 -302zM449 747q-24 0 -68 18t-52 18q-22 0 -22 -36h-103q0 36 7.5 67t30 56.5t58.5 25.5q24 0 68 -18t52 -18q23 0 23 36h102q0 -59 -22 -104t-74 -45z" />
    <glyph glyph-name="utilde" unicode="&#x169;" horiz-adv-x="604" 
d="M372 500h180v-500h-171v73q-25 -36 -66.5 -60t-94.5 -24q-86 0 -129 49.5t-43 136.5v325h180v-272q0 -102 69 -102q35 0 55 32t20 84v258zM375 554q-24 0 -68 18t-52 18q-22 0 -22 -36h-103q0 36 7.5 67t30 56.5t58.5 25.5q24 0 68 -18t52 -18q23 0 23 36h102
q0 -59 -22 -104t-74 -45z" />
    <glyph glyph-name="Umacron" unicode="&#x16a;" horiz-adv-x="747" 
d="M374 -12q-314 0 -314 302v404h189v-404q0 -69 33 -105t92 -36t91.5 36t32.5 105v404h189v-404q0 -302 -313 -302zM517 765h-286v114h286v-114z" />
    <glyph glyph-name="umacron" unicode="&#x16b;" horiz-adv-x="604" 
d="M372 500h180v-500h-171v73q-25 -36 -66.5 -60t-94.5 -24q-86 0 -129 49.5t-43 136.5v325h180v-272q0 -102 69 -102q35 0 55 32t20 84v258zM443 572h-286v114h286v-114z" />
    <glyph glyph-name="Ubreve" unicode="&#x16c;" horiz-adv-x="747" 
d="M374 -12q-314 0 -314 302v404h189v-404q0 -69 33 -105t92 -36t91.5 36t32.5 105v404h189v-404q0 -302 -313 -302zM374 726q-75 0 -120.5 44t-45.5 117h109q0 -21 15 -38t43 -17t43 17t15 38h109q0 -73 -46 -117t-122 -44z" />
    <glyph glyph-name="ubreve" unicode="&#x16d;" horiz-adv-x="604" 
d="M372 500h180v-500h-171v73q-25 -36 -66.5 -60t-94.5 -24q-86 0 -129 49.5t-43 136.5v325h180v-272q0 -102 69 -102q35 0 55 32t20 84v258zM300 533q-75 0 -120.5 44t-45.5 117h109q0 -21 15 -38t43 -17t43 17t15 38h109q0 -73 -46 -117t-122 -44z" />
    <glyph glyph-name="Uring" unicode="&#x16e;" horiz-adv-x="747" 
d="M374 -12q-314 0 -314 302v404h189v-404q0 -69 33 -105t92 -36t91.5 36t32.5 105v404h189v-404q0 -302 -313 -302zM245 837q0 52 37.5 88.5t91.5 36.5t92 -36.5t38 -88.5t-38 -88t-92 -36t-91.5 36t-37.5 88zM323 837q0 -23 14.5 -38t36.5 -15t37.5 15t15.5 38t-15.5 39
t-37.5 16t-36.5 -16t-14.5 -39z" />
    <glyph glyph-name="uring" unicode="&#x16f;" horiz-adv-x="604" 
d="M372 500h180v-500h-171v73q-25 -36 -66.5 -60t-94.5 -24q-86 0 -129 49.5t-43 136.5v325h180v-272q0 -102 69 -102q35 0 55 32t20 84v258zM171 644q0 52 37.5 88.5t91.5 36.5t92 -36.5t38 -88.5t-38 -88t-92 -36t-91.5 36t-37.5 88zM249 644q0 -23 14.5 -38t36.5 -15
t37.5 15.5t15.5 37.5q0 23 -15.5 39t-37.5 16t-36.5 -16t-14.5 -39z" />
    <glyph glyph-name="Uhungarumlaut" unicode="&#x170;" horiz-adv-x="747" 
d="M374 -12q-314 0 -314 302v404h189v-404q0 -69 33 -105t92 -36t91.5 36t32.5 105v404h189v-404q0 -302 -313 -302zM285 887h159l-112 -159h-115zM483 887h159l-112 -159h-115z" />
    <glyph glyph-name="uhungarumlaut" unicode="&#x171;" horiz-adv-x="604" 
d="M372 500h180v-500h-171v73q-25 -36 -66.5 -60t-94.5 -24q-86 0 -129 49.5t-43 136.5v325h180v-272q0 -102 69 -102q35 0 55 32t20 84v258zM211 694h159l-112 -159h-115zM409 694h159l-112 -159h-115z" />
    <glyph glyph-name="Uogonek" unicode="&#x172;" horiz-adv-x="747" 
d="M687 290q0 -287 -281 -301q-21 -31 -21 -49q0 -15 10 -23t26 -8q28 0 53 9v-93q-30 -13 -96 -13q-46 0 -75 22t-29 59q0 43 46 98q-260 23 -260 299v404h189v-404q0 -69 33 -105t92 -36t91.5 36t32.5 105v404h189v-404z" />
    <glyph glyph-name="uogonek" unicode="&#x173;" horiz-adv-x="604" 
d="M381 0v73q-25 -36 -66.5 -60t-94.5 -24q-86 0 -129 49.5t-43 136.5v325h180v-272q0 -102 69 -102q35 0 55 32t20 84v258h180v-500h-85q-30 -35 -30 -60q0 -15 10 -23t26 -8q28 0 53 9v-93q-30 -13 -96 -13q-46 0 -75 22t-29 59q0 48 55 107z" />
    <glyph glyph-name="Wcircumflex" unicode="&#x174;" horiz-adv-x="1076" 
d="M886 0h-220l-128 496l-128 -496h-220l-168 694h191l108 -474l120 474h194l122 -480l109 480h188zM450 887h167l102 -149h-117l-68 53l-68 -53h-117z" />
    <glyph glyph-name="wcircumflex" unicode="&#x175;" horiz-adv-x="888" 
d="M444 313l-88 -313h-192l-154 500h188l81 -320l85 320h164l85 -320l81 320h184l-154 -500h-192zM361 694h167l102 -149h-117l-68 53l-68 -53h-117z" />
    <glyph glyph-name="Ycircumflex" unicode="&#x176;" horiz-adv-x="735" 
d="M272 0v249l-278 445h221l156 -256l157 256h213l-280 -446v-248h-189zM286 887h167l102 -149h-117l-68 53l-68 -53h-117z" />
    <glyph glyph-name="ycircumflex" unicode="&#x177;" horiz-adv-x="591" 
d="M385 -28q-35 -90 -96 -124t-150 -34q-43 0 -81 5v135q25 -3 53 -3q32 0 52 8.5t33 33.5l1 2l-193 505h192l102 -319l102 319h188zM213 694h167l102 -149h-117l-68 53l-68 -53h-117z" />
    <glyph glyph-name="Ydieresis" unicode="&#x178;" horiz-adv-x="735" 
d="M272 0v249l-278 445h221l156 -256l157 256h213l-280 -446v-248h-189zM185 755v132h150v-132h-150zM405 755v132h150v-132h-150z" />
    <glyph glyph-name="Zacute" unicode="&#x179;" horiz-adv-x="698" 
d="M64 694h567v-142l-339 -392h362v-160h-608v142l339 392h-321v160zM326 887h179l-107 -149h-135z" />
    <glyph glyph-name="zacute" unicode="&#x17a;" horiz-adv-x="552" 
d="M54 500h453v-124l-248 -243h263v-133h-488v124l247 243h-227v133zM262 694h179l-107 -149h-135z" />
    <glyph glyph-name="Zdotaccent" unicode="&#x17b;" horiz-adv-x="698" 
d="M64 694h567v-142l-339 -392h362v-160h-608v142l339 392h-321v160zM246 755v132h200v-132h-200z" />
    <glyph glyph-name="zdotaccent" unicode="&#x17c;" horiz-adv-x="552" 
d="M54 500h453v-124l-248 -243h263v-133h-488v124l247 243h-227v133zM182 562v132h200v-132h-200z" />
    <glyph glyph-name="Zcaron" unicode="&#x17d;" horiz-adv-x="698" 
d="M64 694h567v-142l-339 -392h362v-160h-608v142l339 392h-321v160zM429 738h-167l-101 149h117l68 -53l68 53h117z" />
    <glyph glyph-name="zcaron" unicode="&#x17e;" horiz-adv-x="552" 
d="M54 500h453v-124l-248 -243h263v-133h-488v124l247 243h-227v133zM365 545h-167l-101 149h117l68 -53l68 53h117z" />
    <glyph glyph-name="florin" unicode="&#x192;" horiz-adv-x="464" 
d="M426 273h-114v-283q0 -86 -52.5 -131t-149.5 -45q-54 0 -86 6v133q16 -2 43 -2q36 0 50.5 17t14.5 55v250h-91v133h91v122q0 178 199 178q60 0 111 -8v-130q-32 5 -65 5q-36 0 -50.5 -16t-14.5 -49v-102h114v-133z" />
    <glyph glyph-name="uni01B5" unicode="&#x1b5;" horiz-adv-x="698" 
d="M64 694h567v-142l-129 -143h64v-124h-170l-109 -125h367v-160h-608v142l128 143h-63v124h170l109 125h-326v160z" />
    <glyph glyph-name="uni01B6" unicode="&#x1b6;" horiz-adv-x="552" 
d="M54 500h453v-124l-98 -85h55v-83h-143l-80 -76h281v-132h-487v124l90 84h-45v83h136l84 76h-246v133z" />
    <glyph glyph-name="Aringacute" unicode="&#x1fa;" horiz-adv-x="761" 
d="M360 966h130l-94 -95q49 -5 82.5 -40.5t33.5 -83.5q0 -25 -9 -47l243 -700h-198l-35 112h-269l-35 -112h-194l245 706q-7 18 -7 41q0 33 22 71zM379 542l-88 -281h175zM331 747q0 -23 14.5 -38t36.5 -15t37.5 15t15.5 38t-15.5 39t-37.5 16t-36.5 -16t-14.5 -39z" />
    <glyph glyph-name="aringacute" unicode="&#x1fb;" horiz-adv-x="597" 
d="M551 0h-163v80q-50 -91 -180 -91q-79 0 -127.5 41t-48.5 111q0 124 167 152l176 30v10q0 70 -75 70q-77 0 -80 -65h-169q4 82 65 127.5t184 45.5q133 0 192 -54t59 -164v-293zM270 104q42 0 73.5 25.5t31.5 74.5v25l-109 -19q-65 -12 -65 -58q0 -48 69 -48zM300 520
q-54 0 -91.5 36t-37.5 88q0 32 22 71l85 148h130l-94 -95q49 -5 82.5 -40.5t33.5 -83.5q0 -52 -38 -88t-92 -36zM300 591q22 0 37.5 15.5t15.5 37.5q0 23 -15.5 39t-37.5 16t-36.5 -16t-14.5 -39t14.5 -38t36.5 -15z" />
    <glyph glyph-name="AEacute" unicode="&#x1fc;" horiz-adv-x="1118" 
d="M1068 0h-552v112h-258l-65 -112h-213l410 694h669v-157h-350v-109h315v-152h-315v-119h359v-157zM516 261v291l-171 -291h171zM670 887h179l-107 -149h-135z" />
    <glyph glyph-name="aeacute" unicode="&#x1fd;" horiz-adv-x="949" 
d="M268 305h107v28q0 70 -75 70q-77 0 -80 -65h-169q4 82 65 127.5t184 45.5t178 -67q64 67 179 67q119 0 189.5 -70.5t70.5 -188.5v-45h-378q5 -43 32 -70.5t68 -27.5q33 0 56.5 15.5t30.5 44.5h186q-17 -85 -88.5 -132.5t-180.5 -47.5q-114 0 -194 83q-36 -38 -93 -60.5
t-117 -22.5q-105 0 -156 41t-51 111q0 74 58.5 119t177.5 45zM541 305h195q-4 45 -29.5 68.5t-64.5 23.5q-41 0 -68.5 -25.5t-32.5 -66.5zM375 204v1h-99q-75 0 -75 -53q0 -22 17 -35t48 -13q45 0 77 25.5t32 74.5zM474 694h179l-107 -149h-135z" />
    <glyph glyph-name="Oslashacute" unicode="&#x1fe;" horiz-adv-x="800" 
d="M401 -12q-101 0 -177 35l-49 -63h-145l100 129q-93 96 -93 258q0 164 96.5 261.5t267.5 97.5q101 0 177 -35l48 62h146l-100 -129q93 -95 93 -257q0 -164 -96.5 -261.5t-267.5 -97.5zM576 347q0 58 -20 106l-232 -300q34 -18 77 -18q79 0 127 59.5t48 152.5zM226 347
q0 -59 20 -107l232 301q-38 18 -77 18q-79 0 -127 -59.5t-48 -152.5zM381 887h179l-107 -149h-135z" />
    <glyph glyph-name="oslashacute" unicode="&#x1ff;" horiz-adv-x="632" 
d="M600 250q0 -121 -77 -191t-207 -70q-58 0 -108 15l-30 -44h-121l62 90q-87 70 -87 200q0 121 77 191t207 70q58 0 108 -15l23 34h122l-56 -81q87 -71 87 -199zM434 250q0 36 -11 67l-145 -211q18 -6 38 -6q54 0 86 42.5t32 107.5zM198 250q0 -37 11 -68l145 211
q-21 7 -38 7q-54 0 -86 -42.5t-32 -107.5zM296 694h179l-107 -149h-135z" />
    <glyph glyph-name="Scommaaccent" unicode="&#x218;" horiz-adv-x="698" 
d="M355 -12q-153 0 -234 67t-84 186h186q3 -53 40.5 -82.5t96.5 -29.5q52 0 81.5 18t29.5 51q0 24 -17 38.5t-61 23.5l-150 31q-192 39 -192 197q0 100 80 159t207 59q140 0 226.5 -56.5t86.5 -174.5h-186q-4 46 -38 69.5t-88 23.5q-46 0 -72 -17.5t-26 -44.5
q0 -24 17 -38.5t61 -23.5l150 -31q192 -39 192 -197q0 -105 -82.5 -166.5t-223.5 -61.5zM436 -45v-92q0 -76 -44 -108.5t-141 -32.5v72q50 0 68 13.5t18 38.5v2h-88v107h187z" />
    <glyph glyph-name="scommaaccent" unicode="&#x219;" horiz-adv-x="577" 
d="M42 345q0 76 67.5 121t176.5 45q108 0 178.5 -43t71.5 -125h-168q0 31 -22 47.5t-60 16.5q-31 0 -48 -11t-17 -29q0 -17 12 -26t40 -14l122 -22q150 -27 150 -146q0 -80 -66 -125t-186 -45q-248 0 -261 179h178q2 -36 24 -55.5t62 -19.5q31 0 50.5 12.5t19.5 31.5
q0 17 -12 26t-40 14l-122 22q-150 27 -150 146zM382 -45v-92q0 -76 -44 -108.5t-141 -32.5v72q50 0 68 13.5t18 38.5v2h-88v107h187z" />
    <glyph glyph-name="uni021A" unicode="&#x21a;" horiz-adv-x="661" 
d="M17 532v162h627v-162h-219v-532h-189v532h-219zM419 -45v-92q0 -76 -44 -108.5t-141 -32.5v72q50 0 68 13.5t18 38.5v2h-88v107h187z" />
    <glyph glyph-name="uni021B" unicode="&#x21b;" horiz-adv-x="430" 
d="M18 367v133h71v121h180v-121h125v-133h-125v-161q0 -38 14.5 -54.5t53.5 -16.5q29 0 57 5v-135q-51 -10 -127 -10q-94 0 -136 44t-42 132v196h-71zM321 -45v-92q0 -76 -44 -108.5t-141 -32.5v72q50 0 68 13.5t18 38.5v2h-88v107h187z" />
    <glyph glyph-name="dotlessj" unicode="&#x237;" horiz-adv-x="286" 
d="M-54 -179v129q24 -3 45 -3q36 0 49.5 17t13.5 55v481h180v-510q0 -176 -192 -176q-58 0 -96 7z" />
    <glyph glyph-name="circumflex" unicode="&#x2c6;" horiz-adv-x="400" 
d="M116 694h167l102 -149h-117l-68 53l-68 -53h-117z" />
    <glyph glyph-name="caron" unicode="&#x2c7;" horiz-adv-x="400" 
d="M283 545h-167l-101 149h117l68 -53l68 53h117z" />
    <glyph glyph-name="breve" unicode="&#x2d8;" horiz-adv-x="372" 
d="M185 533q-75 0 -120.5 44t-45.5 117h109q0 -21 15 -38t43 -17t43 17t15 38h109q0 -73 -46 -117t-122 -44z" />
    <glyph glyph-name="dotaccent" unicode="&#x2d9;" horiz-adv-x="310" 
d="M55 562v132h200v-132h-200z" />
    <glyph glyph-name="ring" unicode="&#x2da;" horiz-adv-x="319" 
d="M30 644q0 52 37.5 88.5t91.5 36.5t92 -36.5t38 -88.5t-38 -88t-92 -36t-91.5 36t-37.5 88zM108 644q0 -23 14.5 -38t36.5 -15q23 0 38 15.5t15 37.5q0 23 -15.5 39t-37.5 16t-36.5 -16t-14.5 -39z" />
    <glyph glyph-name="ogonek" unicode="&#x2db;" horiz-adv-x="250" 
d="M110 24h83q-52 -52 -52 -84q0 -15 10 -23t26 -8q28 0 53 9v-93q-30 -13 -96 -13q-46 0 -75 22t-29 59q0 60 80 131z" />
    <glyph glyph-name="tilde" unicode="&#x2dc;" horiz-adv-x="397" 
d="M273 554q-24 0 -68 18t-52 18q-22 0 -22 -36h-103q0 36 7.5 67t30 56.5t58.5 25.5q24 0 68 -18t52 -18q23 0 23 36h102q0 -59 -22 -104t-74 -45z" />
    <glyph glyph-name="hungarumlaut" unicode="&#x2dd;" horiz-adv-x="426" 
d="M83 694h159l-112 -159h-115zM281 694h159l-112 -159h-115z" />
    <glyph glyph-name="pi" unicode="&#x3c0;" horiz-adv-x="671" 
d="M641 367h-71v-367h-180v367h-109v-367h-180v367h-71v133h611v-133z" />
    <glyph glyph-name="Wgrave" unicode="&#x1e80;" horiz-adv-x="1076" 
d="M886 0h-220l-128 496l-128 -496h-220l-168 694h191l108 -474l120 474h194l122 -480l109 480h188zM375 887h179l63 -149h-135z" />
    <glyph glyph-name="wgrave" unicode="&#x1e81;" horiz-adv-x="888" 
d="M444 313l-88 -313h-192l-154 500h188l81 -320l85 320h164l85 -320l81 320h184l-154 -500h-192zM286 694h179l63 -149h-135z" />
    <glyph glyph-name="Wacute" unicode="&#x1e82;" horiz-adv-x="1076" 
d="M886 0h-220l-128 496l-128 -496h-220l-168 694h191l108 -474l120 474h194l122 -480l109 480h188zM514 887h179l-107 -149h-135z" />
    <glyph glyph-name="wacute" unicode="&#x1e83;" horiz-adv-x="888" 
d="M444 313l-88 -313h-192l-154 500h188l81 -320l85 320h164l85 -320l81 320h184l-154 -500h-192zM425 694h179l-107 -149h-135z" />
    <glyph glyph-name="Wdieresis" unicode="&#x1e84;" horiz-adv-x="1076" 
d="M886 0h-220l-128 496l-128 -496h-220l-168 694h191l108 -474l120 474h194l122 -480l109 480h188zM349 755v132h150v-132h-150zM569 755v132h150v-132h-150z" />
    <glyph glyph-name="wdieresis" unicode="&#x1e85;" horiz-adv-x="888" 
d="M444 313l-88 -313h-192l-154 500h188l81 -320l85 320h164l85 -320l81 320h184l-154 -500h-192zM260 562v132h150v-132h-150zM480 562v132h150v-132h-150z" />
    <glyph glyph-name="uni1E8A" unicode="&#x1e8a;" horiz-adv-x="747" 
d="M227 0h-215l243 348l-241 346h230l132 -201l135 201h215l-240 -343l249 -351h-229l-141 206zM273 744v132h200v-132h-200z" />
    <glyph glyph-name="uni1E8B" unicode="&#x1e8b;" horiz-adv-x="612" 
d="M203 0h-198l191 250l-190 250h203l97 -135l102 135h198l-189 -248l190 -252h-203l-97 136zM206 562v132h200v-132h-200z" />
    <glyph glyph-name="Ygrave" unicode="&#x1ef2;" horiz-adv-x="735" 
d="M272 0v249l-278 445h221l156 -256l157 256h213l-280 -446v-248h-189zM211 887h179l63 -149h-135z" />
    <glyph glyph-name="ygrave" unicode="&#x1ef3;" horiz-adv-x="591" 
d="M385 -28q-35 -90 -96 -124t-150 -34q-43 0 -81 5v135q25 -3 53 -3q32 0 52 8.5t33 33.5l1 2l-193 505h192l102 -319l102 319h188zM138 694h179l63 -149h-135z" />
    <glyph glyph-name="endash" unicode="&#x2013;" horiz-adv-x="500" 
d="M36 220v102h428v-102h-428z" />
    <glyph glyph-name="emdash" unicode="&#x2014;" horiz-adv-x="1000" 
d="M36 220v102h928v-102h-928z" />
    <glyph glyph-name="quoteleft" unicode="&#x2018;" horiz-adv-x="292" 
d="M52 368v186q0 152 188 152v-87q-53 -2 -72 -20.5t-19 -57.5v-2h86v-171h-183z" />
    <glyph glyph-name="quoteright" unicode="&#x2019;" horiz-adv-x="292" 
d="M240 694v-186q0 -152 -188 -152v87q53 2 72 20.5t19 57.5v2h-86v171h183z" />
    <glyph glyph-name="quotesinglbase" unicode="&#x201a;" horiz-adv-x="292" 
d="M240 171v-186q0 -152 -188 -152v87q53 2 72 20.5t19 57.5v2h-86v171h183z" />
    <glyph glyph-name="quotedblleft" unicode="&#x201c;" horiz-adv-x="549" 
d="M309 368v186q0 152 188 152v-87q-53 -2 -72 -20.5t-19 -57.5v-2h86v-171h-183zM52 368v186q0 152 188 152v-87q-53 -2 -72 -20.5t-19 -57.5v-2h86v-171h-183z" />
    <glyph glyph-name="quotedblright" unicode="&#x201d;" horiz-adv-x="549" 
d="M240 694v-186q0 -152 -188 -152v87q53 2 72 20.5t19 57.5v2h-86v171h183zM497 694v-186q0 -152 -188 -152v87q53 2 72 20.5t19 57.5v2h-86v171h183z" />
    <glyph glyph-name="quotedblbase" unicode="&#x201e;" horiz-adv-x="549" 
d="M240 171v-186q0 -152 -188 -152v87q53 2 72 20.5t19 57.5v2h-86v171h183zM497 171v-186q0 -152 -188 -152v87q53 2 72 20.5t19 57.5v2h-86v171h183z" />
    <glyph glyph-name="dagger" unicode="&#x2020;" horiz-adv-x="426" 
d="M391 564v-102h-125v-207h-107v207h-124v102h124v130h107v-130h125z" />
    <glyph glyph-name="daggerdbl" unicode="&#x2021;" horiz-adv-x="436" 
d="M396 406v-102h-125v-131h-107v131h-124v102h124v56h-124v102h124v130h107v-130h125v-102h-125v-56h125z" />
    <glyph glyph-name="bullet" unicode="&#x2022;" horiz-adv-x="410" 
d="M80 290q0 52 36.5 88.5t88.5 36.5t88.5 -36.5t36.5 -88.5t-36.5 -88.5t-88.5 -36.5t-88.5 36.5t-36.5 88.5z" />
    <glyph glyph-name="ellipsis" unicode="&#x2026;" horiz-adv-x="891" 
d="M65 0v191h187v-191h-187zM352 0v191h187v-191h-187zM639 0v191h187v-191h-187z" />
    <glyph glyph-name="perthousand" unicode="&#x2030;" horiz-adv-x="1256" 
d="M258 0h-106l465 694h106zM164 526q0 -40 17 -63t47 -23t47 23t17 63t-17 63t-47 23t-47 -23t-17 -63zM401 526q0 -84 -51 -130.5t-122 -46.5t-122 46.5t-51 130.5t51 130.5t122 46.5t122 -46.5t51 -130.5zM585 166q0 -40 17 -63t47 -23t47 23t17 63t-17 63t-47 23
t-47 -23t-17 -63zM822 166q0 -84 -51 -130.5t-122 -46.5t-122 46.5t-51 130.5t51 130.5t122 46.5t122 -46.5t51 -130.5zM984 166q0 -40 17 -63t47 -23t47 23t17 63t-17 63t-47 23t-47 -23t-17 -63zM1221 166q0 -84 -51 -130.5t-122 -46.5t-122 46.5t-51 130.5t51 130.5
t122 46.5t122 -46.5t51 -130.5z" />
    <glyph glyph-name="guilsinglleft" unicode="&#x2039;" horiz-adv-x="357" 
d="M194 234l113 -200h-133l-129 200l129 200h133z" />
    <glyph glyph-name="guilsinglright" unicode="&#x203a;" horiz-adv-x="357" 
d="M50 34l113 200l-113 200h133l129 -200l-129 -200h-133z" />
    <glyph glyph-name="fraction" unicode="&#x2044;" horiz-adv-x="230" 
d="M-200 0l520 694h110l-518 -694h-112z" />
    <glyph glyph-name="uni2070" unicode="&#x2070;" horiz-adv-x="382" 
d="M191 313q-74 0 -120 46t-46 148t46 148t120 46t120 -46t46 -148t-46 -148t-120 -46zM191 402q45 0 45 105t-45 105t-45 -105t45 -105z" />
    <glyph glyph-name="uni2074" unicode="&#x2074;" horiz-adv-x="400" 
d="M319 320h-108v66h-189v93l172 215h125v-219h48v-89h-48v-66zM211 475v101l-81 -101h81z" />
    <glyph glyph-name="uni2075" unicode="&#x2075;" horiz-adv-x="369" 
d="M190 313q-165 0 -165 118h118q4 -34 42 -34q20 0 31.5 12.5t11.5 31.5q0 20 -12 32t-30 12q-31 0 -42 -27h-104l19 236h251v-98h-154l-6 -51q28 20 79 20q49 0 82 -32.5t33 -86.5q0 -60 -39.5 -96.5t-114.5 -36.5z" />
    <glyph glyph-name="uni2076" unicode="&#x2076;" horiz-adv-x="375" 
d="M192 313q-79 0 -123 49.5t-44 141.5q0 197 169 197q67 0 106.5 -30t45.5 -81h-118q-8 26 -35 26q-48 0 -48 -82q35 31 84 31q53 0 87 -32.5t34 -89.5q0 -62 -45 -96t-113 -34zM192 396q20 0 30.5 12.5t10.5 31.5t-10.5 31.5t-30.5 12.5t-30.5 -12.5t-10.5 -31.5
t10.5 -31.5t30.5 -12.5z" />
    <glyph glyph-name="uni2077" unicode="&#x2077;" horiz-adv-x="335" 
d="M23 590v104h289v-99l-128 -275h-123l127 270h-165z" />
    <glyph glyph-name="uni2078" unicode="&#x2078;" horiz-adv-x="390" 
d="M195 313q-80 0 -122.5 30.5t-42.5 85.5q0 64 69 88q-25 7 -40.5 29.5t-15.5 47.5q0 49 42 78t110 29t110 -29t42 -78q0 -25 -15.5 -47.5t-40.5 -29.5q69 -24 69 -88q0 -55 -42.5 -85.5t-122.5 -30.5zM195 394q19 0 31 11.5t12 28.5t-12 28.5t-31 11.5t-31 -11.5
t-12 -28.5t12 -28.5t31 -11.5zM195 547q18 0 29 10t11 26t-11 26t-29 10t-29 -10t-11 -26t11 -26t29 -10z" />
    <glyph glyph-name="uni2079" unicode="&#x2079;" horiz-adv-x="375" 
d="M183 701q79 0 123 -49.5t44 -141.5q0 -197 -169 -197q-67 0 -106.5 30t-45.5 81h118q8 -26 35 -26q48 0 48 82q-35 -31 -84 -31q-53 0 -87 32.5t-34 89.5q0 62 45 96t113 34zM183 618q-20 0 -30.5 -12.5t-10.5 -31.5t10.5 -31.5t30.5 -12.5t30.5 12.5t10.5 31.5
t-10.5 31.5t-30.5 12.5z" />
    <glyph glyph-name="parenleft.sups" unicode="&#x207d;" horiz-adv-x="267" 
d="M172 508q1 -118 75 -219h-110q-77 103 -77 219t77 218h110q-74 -103 -75 -218z" />
    <glyph glyph-name="parenright.sups" unicode="&#x207e;" horiz-adv-x="267" 
d="M95 508q-1 117 -75 218h110q77 -100 77 -218t-77 -219h-110q74 99 75 219z" />
    <glyph glyph-name="uni2080" unicode="&#x2080;" horiz-adv-x="382" 
d="M191 -117q-74 0 -120 46t-46 148t46 148t120 46t120 -46t46 -148t-46 -148t-120 -46zM191 -28q45 0 45 105t-45 105t-45 -105t45 -105z" />
    <glyph glyph-name="uni2081" unicode="&#x2081;" horiz-adv-x="305" 
d="M250 -110h-121v259l-94 -61v112l98 64h117v-374z" />
    <glyph glyph-name="uni2082" unicode="&#x2082;" horiz-adv-x="371" 
d="M33 -110v91l161 127q24 19 24 43q0 14 -9 23t-25 9q-38 0 -38 -46h-116q-1 66 37.5 100t119.5 34q69 0 109.5 -29t40.5 -87q0 -63 -66 -113l-75 -55h146v-97h-309z" />
    <glyph glyph-name="uni2083" unicode="&#x2083;" horiz-adv-x="378" 
d="M190 -117q-165 0 -167 118h118q3 -34 41 -34q18 0 30 10t12 28q0 37 -55 37h-23v73h12q63 0 63 40q0 16 -10.5 25t-26.5 9q-34 0 -34 -34h-116q-2 56 37 86t117 30q73 0 110 -31t37 -73q0 -27 -15.5 -50.5t-42.5 -29.5q29 -8 50 -32t21 -57q0 -52 -41 -83.5t-117 -31.5z
" />
    <glyph glyph-name="uni2084" unicode="&#x2084;" horiz-adv-x="400" 
d="M319 -110h-108v66h-189v93l172 215h125v-219h48v-89h-48v-66zM211 45v101l-81 -101h81z" />
    <glyph glyph-name="uni2085" unicode="&#x2085;" horiz-adv-x="369" 
d="M190 -117q-165 0 -165 118h118q4 -34 42 -34q20 0 31.5 12.5t11.5 31.5q0 20 -12 32t-30 12q-31 0 -42 -27h-104l19 236h251v-98h-154l-6 -51q28 20 79 20q49 0 82 -32.5t33 -86.5q0 -60 -39.5 -96.5t-114.5 -36.5z" />
    <glyph glyph-name="uni2086" unicode="&#x2086;" horiz-adv-x="375" 
d="M192 -117q-79 0 -123 49.5t-44 141.5q0 197 169 197q67 0 106.5 -30t45.5 -81h-118q-8 26 -35 26q-48 0 -48 -82q35 31 84 31q53 0 87 -32.5t34 -89.5q0 -62 -45 -96t-113 -34zM192 -34q20 0 30.5 12.5t10.5 31.5t-10.5 31.5t-30.5 12.5t-30.5 -12.5t-10.5 -31.5
t10.5 -31.5t30.5 -12.5z" />
    <glyph glyph-name="uni2087" unicode="&#x2087;" horiz-adv-x="335" 
d="M23 160v104h289v-99l-128 -275h-123l127 270h-165z" />
    <glyph glyph-name="uni2088" unicode="&#x2088;" horiz-adv-x="390" 
d="M195 -117q-80 0 -122.5 30.5t-42.5 85.5q0 64 69 88q-25 7 -40.5 29.5t-15.5 47.5q0 49 42 78t110 29t110 -29t42 -78q0 -25 -15.5 -47.5t-40.5 -29.5q69 -24 69 -88q0 -55 -42.5 -85.5t-122.5 -30.5zM195 -36q19 0 31 11.5t12 28.5t-12 28.5t-31 11.5t-31 -11.5
t-12 -28.5t12 -28.5t31 -11.5zM195 117q18 0 29 10t11 26t-11 26t-29 10t-29 -10t-11 -26t11 -26t29 -10z" />
    <glyph glyph-name="uni2089" unicode="&#x2089;" horiz-adv-x="375" 
d="M183 271q79 0 123 -49.5t44 -141.5q0 -197 -169 -197q-67 0 -106.5 30t-45.5 81h118q8 -26 35 -26q48 0 48 82q-35 -31 -84 -31q-53 0 -87 32.5t-34 89.5q0 62 45 96t113 34zM183 188q-20 0 -30.5 -12.5t-10.5 -31.5t10.5 -31.5t30.5 -12.5t30.5 12.5t10.5 31.5
t-10.5 31.5t-30.5 12.5z" />
    <glyph glyph-name="Euro" unicode="&#x20ac;" horiz-adv-x="756" 
d="M62 370v102h75q25 110 98 172t187 62q121 0 197 -61t81 -173h-182q-17 90 -95 90q-74 0 -103 -90h137v-102h-154v-49h154v-102h-136q31 -87 102 -87q78 0 95 91h183q-5 -112 -81.5 -173.5t-197.5 -61.5q-113 0 -185.5 60.5t-98.5 170.5h-76v102h62v49h-62z" />
    <glyph glyph-name="trademark" unicode="&#x2122;" horiz-adv-x="869" 
d="M25 599v95h314v-95h-108v-236h-99v236h-107zM552 362l-72 212v-212h-98v332h140l83 -245l83 245h141v-332h-99v212l-71 -212h-107z" />
    <glyph glyph-name="Omega" unicode="&#x2126;" horiz-adv-x="864" 
d="M595 346q0 89 -44 145t-119 56t-119 -56t-44 -145q0 -70 26.5 -124t74.5 -74v-148h-310v154h105q-46 31 -72.5 89t-26.5 129q0 147 98 240.5t268 93.5t268 -93.5t98 -240.5q0 -71 -26.5 -129t-72.5 -89h105v-154h-310v148q48 20 74.5 74t26.5 124z" />
    <glyph glyph-name="uni2153" unicode="&#x2153;" horiz-adv-x="863" 
d="M95 0l520 694h110l-518 -694h-112zM250 320h-121v259l-94 -61v112l98 64h117v-374zM675 -7q-165 0 -167 118h118q3 -34 41 -34q18 0 30 10t12 28q0 37 -55 37h-23v73h12q63 0 63 40q0 16 -10.5 25t-26.5 9q-34 0 -34 -34h-116q-2 56 37 86t117 30q73 0 110 -31t37 -73
q0 -27 -15.5 -50.5t-42.5 -29.5q29 -8 50 -32t21 -57q0 -52 -41 -83.5t-117 -31.5z" />
    <glyph glyph-name="uni2154" unicode="&#x2154;" horiz-adv-x="939" 
d="M342 320h-309v91l161 127q24 19 24 43q0 14 -9 23t-25 9q-38 0 -38 -46h-116q-1 66 37.5 100t119.5 34q69 0 109.5 -29t40.5 -87q0 -63 -66 -113l-75 -55h146v-97zM171 0l520 694h110l-518 -694h-112zM751 -7q-165 0 -167 118h118q3 -34 41 -34q18 0 30 10t12 28
q0 37 -55 37h-23v73h12q63 0 63 40q0 16 -10.5 25t-26.5 9q-34 0 -34 -34h-116q-2 56 37 86t117 30q73 0 110 -31t37 -73q0 -27 -15.5 -50.5t-42.5 -29.5q29 -8 50 -32t21 -57q0 -52 -41 -83.5t-117 -31.5z" />
    <glyph glyph-name="uni2155" unicode="&#x2155;" horiz-adv-x="874" 
d="M95 0l520 694h110l-518 -694h-112zM250 320h-121v259l-94 -61v112l98 64h117v-374zM695 -7q-165 0 -165 118h118q4 -34 42 -34q20 0 31.5 12.5t11.5 31.5q0 20 -12 32t-30 12q-31 0 -42 -27h-104l19 236h251v-98h-154l-6 -51q28 20 79 20q49 0 82 -32.5t33 -86.5
q0 -60 -39.5 -96.5t-114.5 -36.5z" />
    <glyph glyph-name="uni2156" unicode="&#x2156;" horiz-adv-x="950" 
d="M342 320h-309v91l161 127q24 19 24 43q0 14 -9 23t-25 9q-38 0 -38 -46h-116q-1 66 37.5 100t119.5 34q69 0 109.5 -29t40.5 -87q0 -63 -66 -113l-75 -55h146v-97zM171 0l520 694h110l-518 -694h-112zM771 -7q-165 0 -165 118h118q4 -34 42 -34q20 0 31.5 12.5t11.5 31.5
q0 20 -12 32t-30 12q-31 0 -42 -27h-104l19 236h251v-98h-154l-6 -51q28 20 79 20q49 0 82 -32.5t33 -86.5q0 -60 -39.5 -96.5t-114.5 -36.5z" />
    <glyph glyph-name="uni2157" unicode="&#x2157;" horiz-adv-x="937" 
d="M190 313q-165 0 -167 118h118q3 -34 41 -34q18 0 30 10t12 28q0 37 -55 37h-23v73h12q63 0 63 40q0 16 -10.5 25t-26.5 9q-34 0 -34 -34h-116q-2 56 37 86t117 30q73 0 110 -31t37 -73q0 -27 -15.5 -50.5t-42.5 -29.5q29 -8 50 -32t21 -57q0 -52 -41 -83.5t-117 -31.5z
M158 0l520 694h110l-518 -694h-112zM758 -7q-165 0 -165 118h118q4 -34 42 -34q20 0 31.5 12.5t11.5 31.5q0 20 -12 32t-30 12q-31 0 -42 -27h-104l19 236h251v-98h-154l-6 -51q28 20 79 20q49 0 82 -32.5t33 -86.5q0 -60 -39.5 -96.5t-114.5 -36.5z" />
    <glyph glyph-name="uni2158" unicode="&#x2158;" horiz-adv-x="969" 
d="M319 320h-108v66h-189v93l172 215h125v-219h48v-89h-48v-66zM211 475v101l-81 -101h81zM190 0l520 694h110l-518 -694h-112zM790 -7q-165 0 -165 118h118q4 -34 42 -34q20 0 31.5 12.5t11.5 31.5q0 20 -12 32t-30 12q-31 0 -42 -27h-104l19 236h251v-98h-154l-6 -51
q28 20 79 20q49 0 82 -32.5t33 -86.5q0 -60 -39.5 -96.5t-114.5 -36.5z" />
    <glyph glyph-name="uni2159" unicode="&#x2159;" horiz-adv-x="855" 
d="M95 0l520 694h110l-518 -694h-112zM250 320h-121v259l-94 -61v112l98 64h117v-374zM672 -7q-79 0 -123 49.5t-44 141.5q0 197 169 197q67 0 106.5 -30t45.5 -81h-118q-8 26 -35 26q-48 0 -48 -82q35 31 84 31q53 0 87 -32.5t34 -89.5q0 -62 -45 -96t-113 -34zM672 76
q20 0 30.5 12.5t10.5 31.5t-10.5 31.5t-30.5 12.5t-30.5 -12.5t-10.5 -31.5t10.5 -31.5t30.5 -12.5z" />
    <glyph glyph-name="uni215A" unicode="&#x215a;" horiz-adv-x="909" 
d="M190 313q-165 0 -165 118h118q4 -34 42 -34q20 0 31.5 12.5t11.5 31.5q0 20 -12 32t-30 12q-31 0 -42 -27h-104l19 236h251v-98h-154l-6 -51q28 20 79 20q49 0 82 -32.5t33 -86.5q0 -60 -39.5 -96.5t-114.5 -36.5zM149 0l520 694h110l-518 -694h-112zM726 -7
q-79 0 -123 49.5t-44 141.5q0 197 169 197q67 0 106.5 -30t45.5 -81h-118q-8 26 -35 26q-48 0 -48 -82q35 31 84 31q53 0 87 -32.5t34 -89.5q0 -62 -45 -96t-113 -34zM726 76q20 0 30.5 12.5t10.5 31.5t-10.5 31.5t-30.5 12.5t-30.5 -12.5t-10.5 -31.5t10.5 -31.5
t30.5 -12.5z" />
    <glyph glyph-name="uni215B" unicode="&#x215b;" horiz-adv-x="899" 
d="M250 320h-121v259l-94 -61v112l98 64h117v-374zM120 0l520 694h110l-518 -694h-112zM704 -7q-80 0 -122.5 30.5t-42.5 85.5q0 64 69 88q-25 7 -40.5 29.5t-15.5 47.5q0 49 42 78t110 29t110 -29t42 -78q0 -25 -15.5 -47.5t-40.5 -29.5q69 -24 69 -88q0 -55 -42.5 -85.5
t-122.5 -30.5zM704 74q19 0 31 11.5t12 28.5t-12 28.5t-31 11.5t-31 -11.5t-12 -28.5t12 -28.5t31 -11.5zM704 227q18 0 29 10t11 26t-11 26t-29 10t-29 -10t-11 -26t11 -26t29 -10z" />
    <glyph glyph-name="uni215C" unicode="&#x215c;" horiz-adv-x="937" 
d="M190 313q-165 0 -167 118h118q3 -34 41 -34q18 0 30 10t12 28q0 37 -55 37h-23v73h12q63 0 63 40q0 16 -10.5 25t-26.5 9q-34 0 -34 -34h-116q-2 56 37 86t117 30q73 0 110 -31t37 -73q0 -27 -15.5 -50.5t-42.5 -29.5q29 -8 50 -32t21 -57q0 -52 -41 -83.5t-117 -31.5z
M158 0l520 694h110l-518 -694h-112zM742 -7q-80 0 -122.5 30.5t-42.5 85.5q0 64 69 88q-25 7 -40.5 29.5t-15.5 47.5q0 49 42 78t110 29t110 -29t42 -78q0 -25 -15.5 -47.5t-40.5 -29.5q69 -24 69 -88q0 -55 -42.5 -85.5t-122.5 -30.5zM742 74q19 0 31 11.5t12 28.5
t-12 28.5t-31 11.5t-31 -11.5t-12 -28.5t12 -28.5t31 -11.5zM742 227q18 0 29 10t11 26t-11 26t-29 10t-29 -10t-11 -26t11 -26t29 -10z" />
    <glyph glyph-name="uni215D" unicode="&#x215d;" horiz-adv-x="928" 
d="M190 313q-165 0 -165 118h118q4 -34 42 -34q20 0 31.5 12.5t11.5 31.5q0 20 -12 32t-30 12q-31 0 -42 -27h-104l19 236h251v-98h-154l-6 -51q28 20 79 20q49 0 82 -32.5t33 -86.5q0 -60 -39.5 -96.5t-114.5 -36.5zM149 0l520 694h110l-518 -694h-112zM733 -7
q-80 0 -122.5 30.5t-42.5 85.5q0 64 69 88q-25 7 -40.5 29.5t-15.5 47.5q0 49 42 78t110 29t110 -29t42 -78q0 -25 -15.5 -47.5t-40.5 -29.5q69 -24 69 -88q0 -55 -42.5 -85.5t-122.5 -30.5zM733 74q19 0 31 11.5t12 28.5t-12 28.5t-31 11.5t-31 -11.5t-12 -28.5t12 -28.5
t31 -11.5zM733 227q18 0 29 10t11 26t-11 26t-29 10t-29 -10t-11 -26t11 -26t29 -10z" />
    <glyph glyph-name="uni215E" unicode="&#x215e;" horiz-adv-x="854" 
d="M23 590v104h289v-99l-128 -275h-123l127 270h-165zM75 0l520 694h110l-518 -694h-112zM659 -7q-80 0 -122.5 30.5t-42.5 85.5q0 64 69 88q-25 7 -40.5 29.5t-15.5 47.5q0 49 42 78t110 29t110 -29t42 -78q0 -25 -15.5 -47.5t-40.5 -29.5q69 -24 69 -88q0 -55 -42.5 -85.5
t-122.5 -30.5zM659 74q19 0 31 11.5t12 28.5t-12 28.5t-31 11.5t-31 -11.5t-12 -28.5t12 -28.5t31 -11.5zM659 227q18 0 29 10t11 26t-11 26t-29 10t-29 -10t-11 -26t11 -26t29 -10z" />
    <glyph glyph-name="uni2190" unicode="&#x2190;" 
d="M335 644h116l-252 -254h586v-83h-589l255 -257h-116l-296 297z" />
    <glyph glyph-name="uni2191" unicode="&#x2191;" 
d="M709 424v-116l-254 252v-586h-83v589l-257 -255v116l297 296z" />
    <glyph glyph-name="uni2192" unicode="&#x2192;" 
d="M373 644h116l296 -297l-296 -297h-116l255 257h-589v83h586z" />
    <glyph glyph-name="uni2193" unicode="&#x2193;" 
d="M709 386v-116l-297 -296l-297 296v116l257 -255v589h83v-586z" />
    <glyph glyph-name="partialdiff" unicode="&#x2202;" horiz-adv-x="627" 
d="M190 694h207q199 -179 199 -403q0 -149 -74 -225.5t-210 -76.5q-125 0 -204.5 68.5t-79.5 192.5q0 119 72.5 190t181.5 71q49 0 88 -16q-80 117 -180 199zM216 250q0 -61 25 -99.5t71 -38.5t71 38.5t25 99.5t-25 99.5t-71 38.5t-71 -38.5t-25 -99.5z" />
    <glyph glyph-name="Delta" unicode="&#x2206;" horiz-adv-x="736" 
d="M681 136v-136h-637v135l194 559h249zM361 542l-120 -383h239z" />
    <glyph glyph-name="product" unicode="&#x220f;" horiz-adv-x="796" 
d="M65 0v694h666v-694h-193v532h-280v-532h-193z" />
    <glyph glyph-name="summation" unicode="&#x2211;" horiz-adv-x="667" 
d="M67 158l220 194l-220 184v158h541v-158h-288l133 -109v-150l-133 -119h297v-158h-550v158z" />
    <glyph glyph-name="minus" unicode="&#x2212;" horiz-adv-x="650" 
d="M92 258v129h466v-129h-466z" />
    <glyph glyph-name="radical" unicode="&#x221a;" horiz-adv-x="700" 
d="M30 257v154h223l86 -235l185 518h166l-250 -694h-210l-94 257h-106z" />
    <glyph glyph-name="infinity" unicode="&#x221e;" horiz-adv-x="710" 
d="M202 502q86 0 153 -89q65 89 153 89q80 0 126 -51.5t46 -131.5t-46 -131.5t-126 -51.5q-90 0 -153 89q-65 -89 -153 -89q-80 0 -126 51.5t-46 131.5t46 131.5t126 51.5zM502 399q-29 0 -49 -20.5t-40 -59.5q20 -39 40 -59.5t49 -20.5q32 0 51 23t19 57t-19 57t-51 23z
M208 239q29 0 48.5 20t40.5 60q-22 40 -41 60t-48 20q-32 0 -51 -23.5t-19 -56.5t19 -56.5t51 -23.5z" />
    <glyph glyph-name="integral" unicode="&#x222b;" horiz-adv-x="428" 
d="M307 508v-518q0 -86 -52.5 -131t-149.5 -45q-54 0 -86 6v133q16 -2 43 -2q36 0 50.5 17t14.5 55v505q0 178 199 178q60 0 111 -8v-130q-32 5 -65 5q-36 0 -50.5 -16t-14.5 -49z" />
    <glyph glyph-name="approxequal" unicode="&#x2248;" horiz-adv-x="650" 
d="M459 357q-43 0 -126.5 30t-104.5 30q-18 0 -25 -9t-7 -30v-23h-125v63q0 63 34 94.5t86 31.5q42 0 126 -29.5t105 -29.5q18 0 25 8.5t7 29.5v23h125v-63q0 -63 -34 -94.5t-86 -31.5zM459 127q-43 0 -126.5 30t-104.5 30q-18 0 -25 -9t-7 -30v-23h-125v63q0 63 34 94.5
t86 31.5q42 0 126 -29.5t105 -29.5q18 0 25 8.5t7 29.5v23h125v-63q0 -63 -34 -94.5t-86 -31.5z" />
    <glyph glyph-name="notequal" unicode="&#x2260;" horiz-adv-x="650" 
d="M92 372v119h234l32 80h129l-32 -80h103v-119h-150l-39 -99h189v-119h-236l-31 -80h-129l31 80h-101v119h148l39 99h-187z" />
    <glyph glyph-name="lessequal" unicode="&#x2264;" horiz-adv-x="650" 
d="M83 324v157l482 133v-132l-337 -79l337 -79v-133zM72 0v129h505v-129h-505z" />
    <glyph glyph-name="greaterequal" unicode="&#x2265;" horiz-adv-x="650" 
d="M566 481v-157l-482 -133v133l337 79l-337 79v132zM577 129v-129h-505v129h505z" />
    <glyph glyph-name="uni2295" unicode="&#x2295;" 
d="M770 347q0 -151 -103.5 -254.5t-254.5 -103.5t-254.5 103.5t-103.5 254.5t103.5 254.5t254.5 103.5t254.5 -103.5t103.5 -254.5zM454 75q90 13 153.5 76t76.5 154h-230v-230zM140 305q13 -91 76 -154t155 -76v230h-231zM454 619v-231h230q-13 91 -76 154t-154 77z
M371 619q-91 -13 -154.5 -76.5t-76.5 -154.5h231v231z" />
    <glyph glyph-name="uni2296" unicode="&#x2296;" 
d="M412 -11q-151 0 -254.5 103.5t-103.5 254.5t103.5 254.5t254.5 103.5t254.5 -103.5t103.5 -254.5t-103.5 -254.5t-254.5 -103.5zM412 72q105 0 181 65.5t91 167.5h-544q14 -102 90 -167.5t182 -65.5zM412 622q-106 0 -182 -66t-90 -168h544q-14 102 -90 168t-182 66z" />
    <glyph glyph-name="uni2297" unicode="&#x2297;" 
d="M770 347q0 -151 -103.5 -254.5t-254.5 -103.5t-254.5 103.5t-103.5 254.5t103.5 254.5t254.5 103.5t254.5 -103.5t103.5 -254.5zM137 347q0 -93 52 -165l164 165l-164 164q-52 -72 -52 -164zM412 72q92 0 164 52l-164 164l-164 -164q71 -52 164 -52zM412 622
q-93 0 -164 -52l164 -164l163 164q-71 52 -163 52zM687 347q0 92 -52 164l-164 -164l163 -165q53 74 53 165z" />
    <glyph glyph-name="uni2299" unicode="&#x2299;" 
d="M286 347q0 53 36.5 89.5t89.5 36.5t89.5 -36.5t36.5 -89.5t-36.5 -89.5t-89.5 -36.5t-89.5 36.5t-36.5 89.5zM137 347q0 -117 79 -196t196 -79t196 79t79 196t-79 196t-196 79t-196 -79t-79 -196zM770 347q0 -151 -103.5 -254.5t-254.5 -103.5t-254.5 103.5t-103.5 254.5
t103.5 254.5t254.5 103.5t254.5 -103.5t103.5 -254.5z" />
    <glyph glyph-name="uni22A0" unicode="&#x22a0;" 
d="M759 0h-694v694h694v-694zM617 83l-205 205l-205 -205h410zM676 141v411l-205 -205zM616 611h-408l204 -205zM148 552v-411l205 206z" />
    <glyph glyph-name="uni2460" unicode="&#x2460;" horiz-adv-x="950" 
d="M475 684q-143 0 -240 -97t-97 -240t97 -240t240 -97t240 97t97 240t-97 240t-240 97zM475 767q177 0 298.5 -121.5t121.5 -298.5t-121.5 -298.5t-298.5 -121.5t-298.5 121.5t-121.5 298.5t121.5 298.5t298.5 121.5zM554 95h-133v370l-101 -68v130l103 73h131v-505z" />
    <glyph glyph-name="uni2461" unicode="&#x2461;" horiz-adv-x="950" 
d="M288 95v106l198 176q42 37 42 78q0 22 -15 37t-39 15q-56 0 -56 -74h-135q0 83 48.5 128.5t144.5 45.5q83 0 134.5 -40.5t51.5 -107.5q0 -49 -23 -85t-62 -71l-109 -96h195v-112h-375zM475 684q-143 0 -240 -97t-97 -240t97 -240t240 -97t240 97t97 240t-97 240t-240 97z
M475 767q177 0 298.5 -121.5t121.5 -298.5t-121.5 -298.5t-298.5 -121.5t-298.5 121.5t-121.5 298.5t121.5 298.5t298.5 121.5z" />
    <glyph glyph-name="uni2462" unicode="&#x2462;" horiz-adv-x="950" 
d="M475 87q-98 0 -150.5 42t-53.5 115h136q1 -26 19 -41.5t46 -15.5t47 16.5t19 42.5q0 61 -78 61h-32v90h22q77 0 77 60q0 25 -15.5 39.5t-39.5 14.5q-55 0 -55 -59h-134q1 75 50 116t142 41q89 0 138 -42t49 -102q0 -80 -73 -104q35 -12 59.5 -42.5t24.5 -74.5
q0 -70 -51 -113.5t-147 -43.5zM475 684q-143 0 -240 -97t-97 -240t97 -240t240 -97t240 97t97 240t-97 240t-240 97zM475 767q177 0 298.5 -121.5t121.5 -298.5t-121.5 -298.5t-298.5 -121.5t-298.5 121.5t-121.5 298.5t121.5 298.5t298.5 121.5z" />
    <glyph glyph-name="uni2463" unicode="&#x2463;" horiz-adv-x="950" 
d="M603 95h-130v95h-247v109l224 301h153v-304h54v-106h-54v-95zM473 296v164l-119 -164h119zM475 684q-143 0 -240 -97t-97 -240t97 -240t240 -97t240 97t97 240t-97 240t-240 97zM475 767q177 0 298.5 -121.5t121.5 -298.5t-121.5 -298.5t-298.5 -121.5t-298.5 121.5
t-121.5 298.5t121.5 298.5t298.5 121.5z" />
    <glyph glyph-name="uni2464" unicode="&#x2464;" horiz-adv-x="950" 
d="M471 186q31 0 47.5 19.5t16.5 53.5t-16.5 53.5t-47.5 19.5q-45 0 -59 -42h-121l26 310h314v-112h-203l-9 -93q34 32 95 32q69 0 113 -45.5t44 -121.5q0 -73 -53.5 -122.5t-141.5 -49.5q-98 0 -149 44t-51 111h136q0 -24 17.5 -40.5t41.5 -16.5zM475 684q-143 0 -240 -97
t-97 -240t97 -240t240 -97t240 97t97 240t-97 240t-240 97zM475 767q177 0 298.5 -121.5t121.5 -298.5t-121.5 -298.5t-298.5 -121.5t-298.5 121.5t-121.5 298.5t121.5 298.5t298.5 121.5z" />
    <glyph glyph-name="uni2465" unicode="&#x2465;" horiz-adv-x="950" 
d="M471 88q-100 0 -153.5 67t-53.5 187q0 131 53 199.5t158 68.5q86 0 133.5 -39t53.5 -105h-136q-8 44 -53 44q-71 0 -71 -131q42 50 108 50q68 0 113 -44.5t45 -120.5q0 -82 -59 -129t-138 -47zM471 186q28 0 44.5 20.5t16.5 53.5q0 32 -16.5 52.5t-44.5 20.5t-45 -20.5
t-17 -52.5q0 -33 17 -53.5t45 -20.5zM475 10q143 0 240 97t97 240t-97 240t-240 97t-240 -97t-97 -240t97 -240t240 -97zM475 -73q-177 0 -298.5 121.5t-121.5 298.5t121.5 298.5t298.5 121.5t298.5 -121.5t121.5 -298.5t-121.5 -298.5t-298.5 -121.5z" />
    <glyph glyph-name="uni2466" unicode="&#x2466;" horiz-adv-x="950" 
d="M299 479v121h361v-114l-172 -391h-145l169 384h-213zM475 684q-143 0 -240 -97t-97 -240t97 -240t240 -97t240 97t97 240t-97 240t-240 97zM475 767q177 0 298.5 -121.5t121.5 -298.5t-121.5 -298.5t-298.5 -121.5t-298.5 121.5t-121.5 298.5t121.5 298.5t298.5 121.5z
" />
    <glyph glyph-name="uni2467" unicode="&#x2467;" horiz-adv-x="950" 
d="M475 694q-146 0 -246.5 -100.5t-100.5 -246.5t100.5 -246.5t246.5 -100.5t246.5 100.5t100.5 246.5t-100.5 246.5t-246.5 100.5zM475 767q177 0 298.5 -121.5t121.5 -298.5t-121.5 -298.5t-298.5 -121.5t-298.5 121.5t-121.5 298.5t121.5 298.5t298.5 121.5zM475 88
q-97 0 -149 40t-52 113q0 41 21 74t61 47q-32 12 -51 39.5t-19 63.5q0 65 52 105t137 40q86 0 138 -40t52 -105q0 -36 -19.5 -63.5t-50.5 -39.5q39 -14 60 -47t21 -74q0 -73 -52 -113t-149 -40zM475 184q30 0 48 17t18 45q0 30 -18 48.5t-48 18.5t-47.5 -18.5t-17.5 -48.5
q0 -28 17.5 -45t47.5 -17zM475 399q25 0 40.5 16.5t15.5 43.5q0 25 -15.5 40t-40.5 15t-40.5 -15t-15.5 -40q0 -27 15.5 -43.5t40.5 -16.5z" />
    <glyph glyph-name="uni2468" unicode="&#x2468;" horiz-adv-x="950" 
d="M478 610q100 0 153.5 -67t53.5 -187q0 -130 -52.5 -199t-157.5 -69q-86 0 -133.5 39t-54.5 105h136q8 -44 54 -44q70 0 70 131q-40 -50 -107 -50q-68 0 -113 44.5t-45 120.5q0 82 58.5 129t137.5 47zM478 512q-27 0 -44 -20.5t-17 -53.5q0 -32 17 -52.5t44 -20.5
q29 0 45.5 20.5t16.5 52.5q0 33 -16.5 53.5t-45.5 20.5zM475 0q146 0 246.5 100.5t100.5 246.5t-100.5 246.5t-246.5 100.5t-246.5 -100.5t-100.5 -246.5t100.5 -246.5t246.5 -100.5zM475 -73q-177 0 -298.5 121.5t-121.5 298.5t121.5 298.5t298.5 121.5t298.5 -121.5
t121.5 -298.5t-121.5 -298.5t-298.5 -121.5z" />
    <glyph glyph-name="uni2469" unicode="&#x2469;" horiz-adv-x="949" 
d="M475 694q-146 0 -246.5 -100.5t-100.5 -246.5t100.5 -246.5t246.5 -100.5t246.5 100.5t100.5 246.5t-100.5 246.5t-246.5 100.5zM475 767q177 0 298.5 -121.5t121.5 -298.5t-121.5 -298.5t-298.5 -121.5t-298.5 121.5t-121.5 298.5t121.5 298.5t298.5 121.5zM574 86
q-79 0 -120 62t-41 199t41 199t120 62q80 0 121 -62t41 -199t-41 -199t-121 -62zM574 191q26 0 36.5 34t10.5 122t-10.5 122t-36.5 34t-36.5 -34t-10.5 -122t10.5 -122t36.5 -34zM264 95v504h111v-504h-111z" />
    <glyph glyph-name="uni25A0" unicode="&#x25a0;" 
d="M759 694v-694h-694v694h694z" />
    <glyph glyph-name="uni25A1" unicode="&#x25a1;" 
d="M759 694v-694h-694v694h694zM148 611v-528h528v528h-528z" />
    <glyph glyph-name="uni25B2" unicode="&#x25b2;" 
d="M412 705l355 -705h-709z" />
    <glyph glyph-name="uni25B3" unicode="&#x25b3;" 
d="M412 705l355 -705h-709zM194 83h437l-219 432z" />
    <glyph glyph-name="uni25B6" unicode="&#x25b6;" 
d="M60 702l705 -355l-705 -354v709z" />
    <glyph glyph-name="uni25B7" unicode="&#x25b7;" 
d="M60 702l705 -354l-705 -355v709zM143 566v-437l432 219z" />
    <glyph glyph-name="uni25BC" unicode="&#x25bc;" 
d="M767 694l-355 -705l-354 705h709z" />
    <glyph glyph-name="uni25BD" unicode="&#x25bd;" 
d="M767 694l-355 -705l-354 705h709zM631 611h-437l218 -432z" />
    <glyph glyph-name="uni25C0" unicode="&#x25c0;" 
d="M60 347l705 355v-709z" />
    <glyph glyph-name="uni25C1" unicode="&#x25c1;" 
d="M60 348l705 354v-709zM682 129v437l-432 -218z" />
    <glyph glyph-name="lozenge" unicode="&#x25ca;" horiz-adv-x="760" 
d="M15 347l258 347h214l258 -347l-258 -347h-214zM385 555l-151 -208l151 -208l150 208z" />
    <glyph glyph-name="uni25CB" unicode="&#x25cb;" 
d="M137 347q0 -117 79 -196t196 -79t196 79t79 196t-79 196t-196 79t-196 -79t-79 -196zM770 347q0 -151 -103.5 -254.5t-254.5 -103.5t-254.5 103.5t-103.5 254.5t103.5 254.5t254.5 103.5t254.5 -103.5t103.5 -254.5z" />
    <glyph glyph-name="uni25CF" unicode="&#x25cf;" 
d="M54 347q0 151 103.5 254.5t254.5 103.5t254.5 -103.5t103.5 -254.5t-103.5 -254.5t-254.5 -103.5t-254.5 103.5t-103.5 254.5z" />
    <glyph glyph-name="uni25D0" unicode="&#x25d0;" 
d="M412 622v-550q117 0 196 79t79 196t-79 196t-196 79zM412 -11q-151 0 -254.5 103.5t-103.5 254.5t103.5 254.5t254.5 103.5t254.5 -103.5t103.5 -254.5t-103.5 -254.5t-254.5 -103.5z" />
    <glyph glyph-name="uni25D1" unicode="&#x25d1;" 
d="M412 72v550q-117 0 -196 -79t-79 -196t79 -196t196 -79zM412 -11q-151 0 -254.5 103.5t-103.5 254.5t103.5 254.5t254.5 103.5t254.5 -103.5t103.5 -254.5t-103.5 -254.5t-254.5 -103.5z" />
    <glyph glyph-name="uni25D2" unicode="&#x25d2;" 
d="M137 347h550q0 117 -79 196t-196 79t-196 -79t-79 -196zM770 347q0 -151 -103.5 -254.5t-254.5 -103.5t-254.5 103.5t-103.5 254.5t103.5 254.5t254.5 103.5t254.5 -103.5t103.5 -254.5z" />
    <glyph glyph-name="uni25D3" unicode="&#x25d3;" 
d="M687 347h-550q0 -117 79 -196t196 -79t196 79t79 196zM770 347q0 -151 -103.5 -254.5t-254.5 -103.5t-254.5 103.5t-103.5 254.5t103.5 254.5t254.5 103.5t254.5 -103.5t103.5 -254.5z" />
    <glyph glyph-name="uni25D4" unicode="&#x25d4;" 
d="M770 347q0 -151 -103.5 -254.5t-254.5 -103.5t-254.5 103.5t-103.5 254.5t103.5 254.5t254.5 103.5t254.5 -103.5t103.5 -254.5zM687 347h-275v275q-117 0 -196 -79t-79 -196t79 -196t196 -79t196 79t79 196z" />
    <glyph glyph-name="uni25D5" unicode="&#x25d5;" 
d="M412 347v275q-117 0 -196 -79t-79 -196h275zM412 -11q-151 0 -254.5 103.5t-103.5 254.5t103.5 254.5t254.5 103.5t254.5 -103.5t103.5 -254.5t-103.5 -254.5t-254.5 -103.5z" />
    <glyph glyph-name="uni25E7" unicode="&#x25e7;" 
d="M65 694h694v-694h-694v694zM676 83v528h-264v-528h264z" />
    <glyph glyph-name="uni25E8" unicode="&#x25e8;" 
d="M65 694h694v-694h-694v694zM148 611v-528h264v528h-264z" />
    <glyph glyph-name="uni25E9" unicode="&#x25e9;" 
d="M65 0v694h694v-694h-694zM676 83v528l-528 -528h528z" />
    <glyph glyph-name="uni25EA" unicode="&#x25ea;" 
d="M759 694v-694h-694v694h694zM148 611v-528l528 528h-528z" />
    <glyph glyph-name="uni2690" unicode="&#x2690;" 
d="M148 294v-294h-83v694h694v-400h-611zM148 611v-234h528v234h-528z" />
    <glyph glyph-name="uni2691" unicode="&#x2691;" 
d="M148 294v-294h-83v694h694v-400h-611z" />
    <glyph glyph-name="uni278A" unicode="&#x278a;" horiz-adv-x="950" 
d="M475 767q177 0 298.5 -121.5t121.5 -298.5t-121.5 -298.5t-298.5 -121.5t-298.5 121.5t-121.5 298.5t121.5 298.5t298.5 121.5zM421 95h133v505h-131l-103 -73v-130l101 68v-370z" />
    <glyph glyph-name="uni278B" unicode="&#x278b;" horiz-adv-x="950" 
d="M288 201v-106h375v112h-195l109 96q39 35 62 71t23 85q0 67 -51.5 107.5t-134.5 40.5q-96 0 -144.5 -45.5t-48.5 -128.5h135q0 74 56 74q24 0 39 -15t15 -37q0 -41 -42 -78zM475 767q177 0 298.5 -121.5t121.5 -298.5t-121.5 -298.5t-298.5 -121.5t-298.5 121.5
t-121.5 298.5t121.5 298.5t298.5 121.5z" />
    <glyph glyph-name="uni278C" unicode="&#x278c;" horiz-adv-x="950" 
d="M475 87q96 0 147 43.5t51 113.5q0 44 -24.5 74.5t-59.5 42.5q73 24 73 104q0 60 -49 102t-138 42q-93 0 -142 -41t-50 -116h134q0 59 55 59q24 0 39.5 -14.5t15.5 -39.5q0 -60 -77 -60h-22v-90h32q78 0 78 -61q0 -26 -19 -42.5t-47 -16.5t-46 15.5t-19 41.5h-136
q1 -73 53.5 -115t150.5 -42zM475 767q177 0 298.5 -121.5t121.5 -298.5t-121.5 -298.5t-298.5 -121.5t-298.5 121.5t-121.5 298.5t121.5 298.5t298.5 121.5z" />
    <glyph glyph-name="uni278D" unicode="&#x278d;" horiz-adv-x="950" 
d="M473 95h130v95h54v106h-54v304h-153l-224 -301v-109h247v-95zM473 460v-164h-119zM475 767q177 0 298.5 -121.5t121.5 -298.5t-121.5 -298.5t-298.5 -121.5t-298.5 121.5t-121.5 298.5t121.5 298.5t298.5 121.5z" />
    <glyph glyph-name="uni278E" unicode="&#x278e;" horiz-adv-x="950" 
d="M471 186q-24 0 -41.5 16.5t-17.5 40.5h-136q0 -67 51 -111t149 -44q88 0 141.5 49.5t53.5 122.5q0 76 -44 121.5t-113 45.5q-61 0 -95 -32l9 93h203v112h-314l-26 -310h121q14 42 59 42q31 0 47.5 -19.5t16.5 -53.5t-16.5 -53.5t-47.5 -19.5zM475 767q177 0 298.5 -121.5
t121.5 -298.5t-121.5 -298.5t-298.5 -121.5t-298.5 121.5t-121.5 298.5t121.5 298.5t298.5 121.5z" />
    <glyph glyph-name="uni278F" unicode="&#x278f;" horiz-adv-x="950" 
d="M471 88q79 0 138 47t59 129q0 76 -45 120.5t-113 44.5q-66 0 -108 -50q0 131 71 131q45 0 53 -44h136q-6 66 -53.5 105t-133.5 39q-105 0 -158 -68.5t-53 -199.5q0 -120 53.5 -187t153.5 -67zM471 186q-28 0 -45 20.5t-17 53.5q0 32 17 52.5t45 20.5t44.5 -20.5
t16.5 -52.5q0 -33 -16.5 -53.5t-44.5 -20.5zM475 -73q-177 0 -298.5 121.5t-121.5 298.5t121.5 298.5t298.5 121.5t298.5 -121.5t121.5 -298.5t-121.5 -298.5t-298.5 -121.5z" />
    <glyph glyph-name="uni2790" unicode="&#x2790;" horiz-adv-x="950" 
d="M299 600v-121h213l-169 -384h145l172 391v114h-361zM475 767q177 0 298.5 -121.5t121.5 -298.5t-121.5 -298.5t-298.5 -121.5t-298.5 121.5t-121.5 298.5t121.5 298.5t298.5 121.5z" />
    <glyph glyph-name="uni2791" unicode="&#x2791;" horiz-adv-x="950" 
d="M475 767q177 0 298.5 -121.5t121.5 -298.5t-121.5 -298.5t-298.5 -121.5t-298.5 121.5t-121.5 298.5t121.5 298.5t298.5 121.5zM475 88q97 0 149 40t52 113q0 41 -21 74t-60 47q31 12 50.5 39.5t19.5 63.5q0 65 -52 105t-138 40q-85 0 -137 -40t-52 -105q0 -36 19 -63.5
t51 -39.5q-40 -14 -61 -47t-21 -74q0 -73 52 -113t149 -40zM475 184q-30 0 -47.5 17t-17.5 45q0 30 17.5 48.5t47.5 18.5t48 -18.5t18 -48.5q0 -28 -18 -45t-48 -17zM475 399q-25 0 -40.5 16.5t-15.5 43.5q0 25 15.5 40t40.5 15t40.5 -15t15.5 -40q0 -27 -15.5 -43.5
t-40.5 -16.5z" />
    <glyph glyph-name="uni2792" unicode="&#x2792;" horiz-adv-x="950" 
d="M478 610q-79 0 -137.5 -47t-58.5 -129q0 -76 45 -120.5t113 -44.5q67 0 107 50q0 -131 -70 -131q-46 0 -54 44h-136q7 -66 54.5 -105t133.5 -39q105 0 157.5 69t52.5 199q0 120 -53.5 187t-153.5 67zM478 512q29 0 45.5 -20.5t16.5 -53.5q0 -32 -16.5 -52.5t-45.5 -20.5
q-27 0 -44 20.5t-17 52.5q0 33 17 53.5t44 20.5zM475 -73q-177 0 -298.5 121.5t-121.5 298.5t121.5 298.5t298.5 121.5t298.5 -121.5t121.5 -298.5t-121.5 -298.5t-298.5 -121.5z" />
    <glyph glyph-name="uni2793" unicode="&#x2793;" horiz-adv-x="949" 
d="M475 767q177 0 298.5 -121.5t121.5 -298.5t-121.5 -298.5t-298.5 -121.5t-298.5 121.5t-121.5 298.5t121.5 298.5t298.5 121.5zM574 86q80 0 121 62t41 199t-41 199t-121 62q-79 0 -120 -62t-41 -199t41 -199t120 -62zM574 191q-26 0 -36.5 34t-10.5 122t10.5 122
t36.5 34t36.5 -34t10.5 -122t-10.5 -122t-36.5 -34zM264 599v-504h111v504h-111z" />
    <glyph glyph-name="uni29B6" unicode="&#x29b6;" 
d="M770 347q0 -151 -103.5 -254.5t-254.5 -103.5t-254.5 103.5t-103.5 254.5t103.5 254.5t254.5 103.5t254.5 -103.5t103.5 -254.5zM687 347q0 105 -65.5 181t-167.5 91v-544q102 14 167.5 90t65.5 182zM137 347q0 -106 65.5 -182t168.5 -90v544q-103 -14 -168.5 -90
t-65.5 -182z" />
    <glyph glyph-name="uni2B12" unicode="&#x2b12;" 
d="M759 694v-694h-694v694h694zM148 83h528v264h-528v-264z" />
    <glyph glyph-name="uni2B13" unicode="&#x2b13;" 
d="M759 694v-694h-694v694h694zM676 611h-528v-264h528v264z" />
    <glyph glyph-name="uni2B14" unicode="&#x2b14;" 
d="M759 694v-694h-694v694h694zM148 611v-528h528z" />
    <glyph glyph-name="uni2B15" unicode="&#x2b15;" 
d="M65 0v694h694v-694h-694zM676 83v528h-528z" />
    <glyph glyph-name="uni2B16" unicode="&#x2b16;" 
d="M412 -14l-361 361l361 361l361 -361zM656 347l-244 244v-488z" />
    <glyph glyph-name="uni2B17" unicode="&#x2b17;" 
d="M773 347l-361 -361l-361 361l361 361zM412 591l-244 -244l244 -244v488z" />
    <glyph glyph-name="uni2B18" unicode="&#x2b18;" 
d="M773 347l-361 -361l-361 361l361 361zM412 591l-244 -244h488z" />
    <glyph glyph-name="uni2B19" unicode="&#x2b19;" 
d="M412 708l361 -361l-361 -361l-361 361zM168 347l244 -244l244 244h-488z" />
    <glyph glyph-name="uni2B2C" unicode="&#x2b2c;" 
d="M770 348q0 -94 -103.5 -158t-254.5 -64t-254.5 64t-103.5 158t103.5 158t254.5 64t254.5 -64t103.5 -158z" />
    <glyph glyph-name="uni2B2D" unicode="&#x2b2d;" 
d="M139 348q0 -59 78.5 -101.5t194.5 -42.5t194.5 42.5t78.5 101.5t-78.5 101.5t-194.5 42.5t-194.5 -42.5t-78.5 -101.5zM770 348q0 -94 -103.5 -158t-254.5 -64t-254.5 64t-103.5 158t103.5 158t254.5 64t254.5 -64t103.5 -158z" />
    <glyph glyph-name="uni2B2E" unicode="&#x2b2e;" 
d="M412 706q94 0 158 -103.5t64 -254.5t-64 -254.5t-158 -103.5t-158 103.5t-64 254.5t64 254.5t158 103.5z" />
    <glyph glyph-name="uni2B2F" unicode="&#x2b2f;" 
d="M412 75q58 0 99.5 78.5t41.5 194.5t-41.5 194.5t-99.5 78.5t-99.5 -78.5t-41.5 -194.5t41.5 -194.5t99.5 -78.5zM412 706q94 0 158 -103.5t64 -254.5t-64 -254.5t-158 -103.5t-158 103.5t-64 254.5t64 254.5t158 103.5z" />
    <glyph glyph-name="commaaccent" unicode="&#xf6c3;" horiz-adv-x="297" 
d="M242 -45v-92q0 -76 -44 -108.5t-141 -32.5v72q50 0 68 13.5t18 38.5v2h-88v107h187z" />
    <glyph glyph-name="Jacute" horiz-adv-x="663" 
d="M311 150q103 0 103 134v410h189v-407q0 -148 -69.5 -223.5t-222.5 -75.5t-222 75.5t-69 223.5v25h189v-28q0 -134 102 -134zM486 886h179l-107 -149h-135z" />
    <glyph glyph-name="i.trk" horiz-adv-x="284" 
d="M52 500h180v-500h-180v500zM42 562v132h200v-132h-200z" />
    <glyph glyph-name="jacute" horiz-adv-x="286" 
d="M-54 -179v129q24 -3 45 -3q36 0 49.5 17t13.5 55v481h180v-510q0 -176 -192 -176q-58 0 -96 7zM124 694h179l-107 -149h-135z" />
    <glyph glyph-name="ringacute" horiz-adv-x="319" 
d="M159 520q-54 0 -91.5 36t-37.5 88q0 32 22 71l85 148h130l-94 -95q49 -5 82.5 -40.5t33.5 -83.5q0 -52 -38 -88t-92 -36zM159 591q23 0 38 15.5t15 37.5q0 23 -15.5 39t-37.5 16t-36.5 -16t-14.5 -39t14.5 -38t36.5 -15z" />
    <glyph glyph-name="commatop" horiz-adv-x="297" 
d="M55 552v92q0 76 44 108.5t141 32.5v-72q-50 0 -68 -13.5t-18 -38.5v-2h88v-107h-187z" />
    <glyph glyph-name="caron.slovak" horiz-adv-x="242" 
d="M88 694h165l-88 -190h-120z" />
    <glyph glyph-name="parenleft.subs" horiz-adv-x="267" 
d="M172 78q1 -118 75 -219h-110q-77 103 -77 219t77 218h110q-74 -103 -75 -218z" />
    <glyph glyph-name="parenright.subs" horiz-adv-x="267" 
d="M95 78q-1 117 -75 218h110q77 -100 77 -218t-77 -219h-110q74 99 75 219z" />
    <glyph glyph-name="zero.dnom" horiz-adv-x="382" 
d="M191 -7q-74 0 -120 46t-46 148t46 148t120 46t120 -46t46 -148t-46 -148t-120 -46zM191 82q45 0 45 105t-45 105t-45 -105t45 -105z" />
    <glyph glyph-name="one.dnom" horiz-adv-x="305" 
d="M250 0h-121v259l-94 -61v112l98 64h117v-374z" />
    <glyph glyph-name="two.dnom" horiz-adv-x="371" 
d="M33 0v91l161 127q24 19 24 43q0 14 -9 23t-25 9q-38 0 -38 -46h-116q-1 66 37.5 100t119.5 34q69 0 109.5 -29t40.5 -87q0 -63 -66 -113l-75 -55h146v-97h-309z" />
    <glyph glyph-name="three.dnom" horiz-adv-x="378" 
d="M190 -7q-165 0 -167 118h118q3 -34 41 -34q18 0 30 10t12 28q0 37 -55 37h-23v73h12q63 0 63 40q0 16 -10.5 25t-26.5 9q-34 0 -34 -34h-116q-2 56 37 86t117 30q73 0 110 -31t37 -73q0 -27 -15.5 -50.5t-42.5 -29.5q29 -8 50 -32t21 -57q0 -52 -41 -83.5t-117 -31.5z
" />
    <glyph glyph-name="four.dnom" horiz-adv-x="400" 
d="M319 0h-108v66h-189v93l172 215h125v-219h48v-89h-48v-66zM211 155v101l-81 -101h81z" />
    <glyph glyph-name="five.dnom" horiz-adv-x="369" 
d="M190 -7q-165 0 -165 118h118q4 -34 42 -34q20 0 31.5 12.5t11.5 31.5q0 20 -12 32t-30 12q-31 0 -42 -27h-104l19 236h251v-98h-154l-6 -51q28 20 79 20q49 0 82 -32.5t33 -86.5q0 -60 -39.5 -96.5t-114.5 -36.5z" />
    <glyph glyph-name="six.dnom" horiz-adv-x="375" 
d="M192 -7q-79 0 -123 49.5t-44 141.5q0 197 169 197q67 0 106.5 -30t45.5 -81h-118q-8 26 -35 26q-48 0 -48 -82q35 31 84 31q53 0 87 -32.5t34 -89.5q0 -62 -45 -96t-113 -34zM192 76q20 0 30.5 12.5t10.5 31.5t-10.5 31.5t-30.5 12.5t-30.5 -12.5t-10.5 -31.5t10.5 -31.5
t30.5 -12.5z" />
    <glyph glyph-name="seven.dnom" horiz-adv-x="335" 
d="M23 270v104h289v-99l-128 -275h-123l127 270h-165z" />
    <glyph glyph-name="eight.dnom" horiz-adv-x="390" 
d="M195 -7q-80 0 -122.5 30.5t-42.5 85.5q0 64 69 88q-25 7 -40.5 29.5t-15.5 47.5q0 49 42 78t110 29t110 -29t42 -78q0 -25 -15.5 -47.5t-40.5 -29.5q69 -24 69 -88q0 -55 -42.5 -85.5t-122.5 -30.5zM195 74q19 0 31 11.5t12 28.5t-12 28.5t-31 11.5t-31 -11.5t-12 -28.5
t12 -28.5t31 -11.5zM195 227q18 0 29 10t11 26t-11 26t-29 10t-29 -10t-11 -26t11 -26t29 -10z" />
    <glyph glyph-name="nine.dnom" horiz-adv-x="375" 
d="M183 381q79 0 123 -49.5t44 -141.5q0 -197 -169 -197q-67 0 -106.5 30t-45.5 81h118q8 -26 35 -26q48 0 48 82q-35 -31 -84 -31q-53 0 -87 32.5t-34 89.5q0 62 45 96t113 34zM183 298q-20 0 -30.5 -12.5t-10.5 -31.5t10.5 -31.5t30.5 -12.5t30.5 12.5t10.5 31.5
t-10.5 31.5t-30.5 12.5z" />
    <glyph glyph-name="parenleft.dnum" horiz-adv-x="267" 
d="M172 188q1 -118 75 -219h-110q-77 103 -77 219t77 218h110q-74 -103 -75 -218z" />
    <glyph glyph-name="parenright.dnum" horiz-adv-x="267" 
d="M95 188q-1 117 -75 218h110q77 -100 77 -218t-77 -219h-110q74 99 75 219z" />
    <glyph glyph-name="backslash.case" horiz-adv-x="510" 
d="M327 -67l-297 823h154l296 -823h-153z" />
    <glyph glyph-name="bar.case" horiz-adv-x="320" 
d="M85 -67v823h150v-823h-150z" />
    <glyph glyph-name="braceleft.case" horiz-adv-x="436" 
d="M391 59v-126h-124q-71 0 -101 40.5t-30 118.5v83q0 60 -21.5 82.5t-74.5 27.5v120q53 5 74.5 27.5t21.5 82.5v83q0 78 30 118.5t101 40.5h124v-126h-30q-47 0 -63 -18t-16 -81v-57q0 -112 -92 -130q92 -18 92 -130v-57q0 -63 16 -81t63 -18h30z" />
    <glyph glyph-name="braceright.case" horiz-adv-x="436" 
d="M45 -67v126h30q47 0 63 18t16 81v57q0 112 92 130q-92 18 -92 130v57q0 63 -16 81t-63 18h-30v126h124q71 0 101 -40.5t30 -118.5v-83q0 -60 21.5 -82.5t74.5 -27.5v-120q-53 -5 -74.5 -27.5t-21.5 -82.5v-83q0 -78 -30 -118.5t-101 -40.5h-124z" />
    <glyph glyph-name="bracketleft.case" horiz-adv-x="390" 
d="M340 631h-109v-572h109v-126h-260v824h260v-126z" />
    <glyph glyph-name="bracketright.case" horiz-adv-x="390" 
d="M310 -67h-260v126h109v572h-109v126h260v-824z" />
    <glyph glyph-name="emdash.case" horiz-adv-x="1000" 
d="M36 290v102h928v-102h-928z" />
    <glyph glyph-name="endash.case" horiz-adv-x="500" 
d="M36 290v102h428v-102h-428z" />
    <glyph glyph-name="guillemotleft.case" horiz-adv-x="587" 
d="M194 324l113 -200h-133l-129 200l129 200h133zM424 324l113 -200h-133l-129 200l129 200h133z" />
    <glyph glyph-name="guillemotright.case" horiz-adv-x="587" 
d="M280 124l113 200l-113 200h133l129 -200l-129 -200h-133zM50 124l113 200l-113 200h133l129 -200l-129 -200h-133z" />
    <glyph glyph-name="guilsinglleft.case" horiz-adv-x="357" 
d="M194 324l113 -200h-133l-129 200l129 200h133z" />
    <glyph glyph-name="guilsinglright.case" horiz-adv-x="357" 
d="M50 124l113 200l-113 200h133l129 -200l-129 -200h-133z" />
    <glyph glyph-name="hyphen.case" horiz-adv-x="402" 
d="M55 267v148h292v-148h-292z" />
    <glyph glyph-name="parenleft.case" horiz-adv-x="383" 
d="M230 345q4 -225 130 -412h-154q-136 188 -136 412t136 412h154q-126 -187 -130 -412z" />
    <glyph glyph-name="parenright.case" horiz-adv-x="383" 
d="M153 345q-4 225 -130 412h154q136 -188 136 -412t-136 -412h-154q126 187 130 412z" />
    <glyph glyph-name="slash.case" horiz-adv-x="510" 
d="M480 756l-297 -823h-153l296 823h154z" />
    <glyph glyph-name="questiondown.case" horiz-adv-x="535" 
d="M10 181q0 49 29.5 87t64.5 56t65 37t31 35l1 16h139l2 -18q4 -34 -9.5 -60.5t-36 -43t-45 -31t-39 -33t-16.5 -40.5q0 -24 18.5 -40.5t50.5 -16.5q40 0 58 21t23 64h179q-9 -226 -260 -226q-121 0 -188 56.5t-67 136.5zM366 694v-191h-187v191h187z" />
    <glyph glyph-name="exclamdown.case" horiz-adv-x="327" 
d="M97 412h133l27 -280v-132h-187v132zM70 503v191h187v-191h-187z" />
    <glyph glyph-name="zero.tf" horiz-adv-x="650" 
d="M325 -12q-56 0 -104.5 18t-91.5 57.5t-67.5 112t-24.5 171.5t24.5 171.5t67.5 112t91.5 57.5t104.5 18t104.5 -18t91.5 -57.5t67.5 -112t24.5 -171.5t-24.5 -171.5t-67.5 -112t-91.5 -57.5t-104.5 -18zM189 347q0 -46 6 -82l193 288q-29 19 -63 19q-24 0 -45.5 -9
t-43 -31.5t-34.5 -70t-13 -114.5zM325 122q24 0 45.5 9t43 31.5t34.5 70t13 114.5q0 45 -6 81l-193 -288q27 -18 63 -18z" />
    <glyph glyph-name="one.tf" horiz-adv-x="650" 
d="M71 0v153h192v358l-169 -95v178l173 100h178v-541h133v-153h-507z" />
    <glyph glyph-name="two.tf" horiz-adv-x="650" 
d="M69 0v147l273 245q57 50 57 104q0 31 -20 51t-53 20q-38 0 -58 -26.5t-20 -74.5h-185q0 115 66.5 177.5t198.5 62.5q114 0 185.5 -55.5t71.5 -149.5q0 -68 -30.5 -117t-84.5 -97l-149 -132h265v-155h-517z" />
    <glyph glyph-name="three.tf" horiz-adv-x="650" 
d="M329 -12q-135 0 -207.5 57t-74.5 158h187q3 -36 28 -57.5t63 -21.5t64.5 22.5t26.5 59.5q0 84 -107 84h-46v125h31q107 0 107 82q0 34 -21.5 54t-54.5 20q-35 0 -55 -20.5t-21 -59.5h-185q1 103 68.5 159t195.5 56q123 0 191 -57.5t68 -140.5q0 -53 -26.5 -90.5
t-74.5 -52.5q49 -16 83 -58t34 -103q0 -97 -71 -156.5t-203 -59.5z" />
    <glyph glyph-name="four.tf" horiz-adv-x="650" 
d="M547 0h-180v131h-339v150l307 413h212v-418h73v-145h-73v-131zM367 276v226l-164 -226h164z" />
    <glyph glyph-name="five.tf" horiz-adv-x="650" 
d="M328 -12q-135 0 -205 61t-70 153h187q0 -33 23.5 -56t56.5 -23q43 0 66 27t23 73q0 48 -23 75t-66 27q-27 0 -49 -15t-31 -43h-166l35 427h432v-155h-278l-14 -127q49 44 131 44q95 0 155.5 -63t60.5 -168q0 -101 -73.5 -169t-194.5 -68z" />
    <glyph glyph-name="six.tf" horiz-adv-x="650" 
d="M332 -12q-138 0 -211 91.5t-73 257.5q0 181 72 275t217 94q119 0 184 -53.5t74 -144.5h-186q-12 61 -75 61q-97 0 -97 -180q56 67 149 67t155 -61t62 -166q0 -113 -81 -177t-190 -64zM332 123q39 0 61.5 28t22.5 73q0 44 -23 72t-61 28t-61 -28t-23 -72q0 -45 22.5 -73
t61.5 -28z" />
    <glyph glyph-name="seven.tf" horiz-adv-x="650" 
d="M66 528v166h517v-157l-247 -537h-199l242 528h-313z" />
    <glyph glyph-name="eight.tf" horiz-adv-x="650" 
d="M325 -12q-133 0 -205.5 55.5t-72.5 155.5q0 56 29.5 101t84.5 65q-44 17 -71 54t-27 88q0 89 72 144t190 55t190 -55t72 -144q0 -51 -27 -88t-71 -54q55 -20 84.5 -65t29.5 -101q0 -100 -72.5 -155.5t-205.5 -55.5zM325 119q42 0 68 23.5t26 62.5q0 41 -26 66.5t-68 25.5
t-68 -25.5t-26 -66.5q0 -39 26 -62.5t68 -23.5zM325 417q36 0 58 22.5t22 59.5q0 33 -22.5 54t-57.5 21t-57.5 -21t-22.5 -54q0 -37 22 -59.5t58 -22.5z" />
    <glyph glyph-name="nine.tf" horiz-adv-x="650" 
d="M318 706q138 0 211 -91.5t73 -257.5q0 -181 -72 -275t-217 -94q-119 0 -184 53.5t-74 144.5h186q12 -61 75 -61q97 0 97 180q-56 -67 -149 -67t-155 61t-62 166q0 113 81 177t190 64zM318 571q-39 0 -61.5 -28t-22.5 -73q0 -44 23 -72t61 -28t61 28t23 72q0 45 -22.5 73
t-61.5 28z" />
    <glyph glyph-name="cent.tf" horiz-adv-x="650" 
d="M247 0v95q-94 21 -146.5 87t-52.5 165t52.5 165t146.5 87v95h151v-92q88 -15 142 -66.5t61 -132.5h-187q-2 37 -25 59.5t-57 22.5q-43 0 -69.5 -36t-26.5 -102t26.5 -102t69.5 -36q34 0 57 22.5t25 59.5h187q-7 -82 -61 -133.5t-142 -66.5v-91h-151z" />
    <glyph glyph-name="dollar.tf" horiz-adv-x="650" 
d="M59 493q0 83 51.5 138t138.5 70v99h151v-101q89 -17 141.5 -72.5t52.5 -151.5h-177q-6 97 -97 97q-39 0 -61.5 -18.5t-22.5 -46.5q0 -25 16 -40t54 -25l123 -31q174 -44 174 -200q0 -88 -54 -145.5t-149 -72.5v-99h-151v101q-98 17 -149.5 81t-53.5 165h176
q3 -55 32.5 -85.5t77.5 -30.5q43 0 68.5 18t25.5 50q0 52 -69 69l-123 31q-175 46 -175 200z" />
    <glyph glyph-name="yen.tf" horiz-adv-x="650" 
d="M77 246v102h104l-171 346h194l124 -263l125 263h186l-171 -346h102v-102h-154v-49h154v-102h-154v-95h-185v95h-154v102h154v49h-154z" />
    <glyph glyph-name="sterling.tf" horiz-adv-x="650" 
d="M54 254v104h58q-38 80 -38 139q0 92 67 150t191 58q129 0 196.5 -63.5t65.5 -175.5h-184q0 99 -80 99q-73 0 -73 -81q0 -29 29 -126h134v-104h-114q0 -2 0.5 -6.5t0.5 -6.5q0 -49 -28 -86h323v-155h-551v155q13 0 27 3t32.5 11.5t30 27.5t11.5 46q0 7 -1 11h-97z" />
    <glyph glyph-name="Euro.tf" horiz-adv-x="650" 
d="M10 370v102h75q25 110 96.5 172t183.5 62q119 0 193.5 -61t79.5 -173h-182q-12 90 -90 90q-36 0 -61.5 -24t-36.5 -66h132v-102h-149v-49h149v-102h-131q26 -87 97 -87q78 0 90 91h183q-5 -112 -80 -173.5t-194 -61.5q-111 0 -182.5 61t-96.5 170h-76v102h62v49h-62z" />
    <glyph glyph-name="a.ord" horiz-adv-x="398" 
d="M367 320h-109v54q-33 -61 -121 -61q-53 0 -85.5 27t-32.5 74q0 83 112 102l118 20v7q0 47 -50 47q-51 0 -54 -44h-113q7 116 167 116q89 0 128.5 -36t39.5 -110v-196zM179 390q28 0 49 17t21 50v16l-73 -12q-43 -9 -43 -39q0 -32 46 -32z" />
    <glyph glyph-name="b.ord" horiz-adv-x="429" 
d="M258 662q68 0 109.5 -47t41.5 -128q0 -80 -41.5 -127t-109.5 -47q-69 0 -109 50v-43h-114v465h120v-166q41 43 103 43zM218 580q-31 0 -47.5 -26t-16.5 -67t17 -66.5t47 -25.5q31 0 48 25.5t17 66.5t-17 67t-48 26z" />
    <glyph glyph-name="c.ord" horiz-adv-x="408" 
d="M145 487q0 -44 17.5 -68t46.5 -24q23 0 38 15t17 40h125q-4 -65 -53.5 -101t-126.5 -36q-88 0 -139 47t-51 127q0 81 51 128t139 47q77 0 126.5 -36t53.5 -101h-125q-2 25 -17 40t-38 15q-29 0 -46.5 -24.5t-17.5 -68.5z" />
    <glyph glyph-name="d.ord" horiz-adv-x="429" 
d="M172 662q62 0 102 -43v166h121v-465h-115v43q-40 -50 -108 -50t-109.5 47t-41.5 127q0 81 41.5 128t109.5 47zM211 580q-31 0 -47.5 -26t-16.5 -67t17 -66.5t47 -25.5t47 25.5t17 66.5t-16.5 67t-47.5 26z" />
    <glyph glyph-name="e.ord" horiz-adv-x="413" 
d="M19 487q0 79 50 127t137 48q91 0 139 -46.5t48 -126.5v-30h-253q3 -29 21.5 -47.5t45.5 -18.5q49 0 58 40h125q-11 -56 -60.5 -88t-123.5 -32q-83 0 -135 46t-52 128zM141 524h131q-3 30 -20 46t-43 16q-27 0 -45.5 -17.5t-22.5 -44.5z" />
    <glyph glyph-name="f.ord" horiz-adv-x="286" 
d="M271 788v-87q-18 3 -43 3q-44 0 -44 -44v-5h87v-89h-87v-246h-120v246h-48v89h48v19q0 119 133 119q39 0 74 -5z" />
    <glyph glyph-name="g.ord" horiz-adv-x="429" 
d="M395 655v-301q0 -83 -49 -123t-137 -40q-180 0 -184 118h124q3 -44 61 -44q64 0 64 74v36q-36 -44 -100 -44q-69 0 -111 46t-42 120t43 119.5t110 45.5q68 0 106 -49v42h115zM147 497q0 -36 17 -60t47 -24t47.5 24t17.5 60t-17.5 60t-47.5 24t-47 -24t-17 -60z" />
    <glyph glyph-name="h.ord" horiz-adv-x="409" 
d="M257 320v187q0 64 -49 64q-25 0 -39 -20t-14 -54v-177h-120v465h120v-176q34 53 105 53q58 0 87.5 -33t29.5 -91v-218h-120z" />
    <glyph glyph-name="i.ord" horiz-adv-x="190" 
d="M35 655h120v-335h-120v335zM28 697v88h134v-88h-134z" />
    <glyph glyph-name="j.ord" horiz-adv-x="192" 
d="M-36 199v89q11 -1 28 -1q24 0 34 11.5t10 36.5v320h121v-342q0 -57 -35.5 -87.5t-100.5 -30.5q-21 0 -57 4zM29 697v88h134v-88h-134z" />
    <glyph glyph-name="k.ord" horiz-adv-x="417" 
d="M286 524l130 -204h-139l-78 127l-44 -49v-78h-120v465h120v-255l116 125h135z" />
    <glyph glyph-name="l.ord" horiz-adv-x="190" 
d="M35 785h120v-465h-120v465z" />
    <glyph glyph-name="m.ord" horiz-adv-x="616" 
d="M584 534v-214h-120v181q0 69 -45 69q-22 0 -35.5 -19.5t-13.5 -52.5v-178h-121v181q0 69 -44 69q-22 0 -36 -19.5t-14 -52.5v-178h-120v335h114v-49q15 23 44 39.5t65 16.5q70 0 97 -55q40 55 109 55q120 0 120 -128z" />
    <glyph glyph-name="n.ord" horiz-adv-x="409" 
d="M155 320h-120v335h114v-49q39 56 110 56q59 0 88.5 -33t29.5 -91v-218h-120v186q0 65 -49 65q-25 0 -39 -20t-14 -55v-176z" />
    <glyph glyph-name="o.ord" horiz-adv-x="418" 
d="M209 313q-87 0 -138.5 46.5t-51.5 127.5t51.5 128t138.5 47t138.5 -47t51.5 -128t-51.5 -127.5t-138.5 -46.5zM209 395q30 0 47 25.5t17 66.5t-16.5 67t-47.5 26t-47.5 -26t-16.5 -67t17 -66.5t47 -25.5z" />
    <glyph glyph-name="p.ord" horiz-adv-x="429" 
d="M258 313q-62 0 -103 43v-153h-120v452h114v-43q40 50 109 50q68 0 109.5 -47t41.5 -128q0 -80 -41.5 -127t-109.5 -47zM218 395q31 0 48 25.5t17 66.5t-17 67t-48 26t-47.5 -26t-16.5 -67t17 -66.5t47 -25.5z" />
    <glyph glyph-name="q.ord" horiz-adv-x="429" 
d="M172 313q-68 0 -109.5 47t-41.5 127q0 81 41.5 128t109.5 47t108 -50v43h115v-452h-121v153q-40 -43 -102 -43zM211 395q30 0 47 25.5t17 66.5t-16.5 67t-47.5 26t-47.5 -26t-16.5 -67t17 -66.5t47 -25.5z" />
    <glyph glyph-name="r.ord" horiz-adv-x="290" 
d="M277 662v-112q-20 2 -38 2q-41 0 -62.5 -22.5t-21.5 -64.5v-145h-120v335h114v-78q15 46 43.5 65.5t80.5 19.5h4z" />
    <glyph glyph-name="s.ord" horiz-adv-x="387" 
d="M28 551q0 51 45 81t119 30q73 0 119.5 -28.5t47.5 -83.5h-112q0 21 -15 32t-40 11q-44 0 -44 -27q0 -20 35 -27l82 -15q100 -17 100 -98q0 -53 -44 -83t-125 -30q-166 0 -175 120h120q2 -51 57 -51q21 0 34 8.5t13 21.5q0 20 -35 27l-81 14q-101 18 -101 98z" />
    <glyph glyph-name="t.ord" horiz-adv-x="287" 
d="M12 566v89h48v81h120v-81h84v-89h-84v-108q0 -25 10 -36.5t36 -11.5q16 0 38 4v-91q-36 -6 -85 -6q-64 0 -91.5 29t-27.5 89v131h-48z" />
    <glyph glyph-name="u.ord" horiz-adv-x="405" 
d="M249 655h121v-335h-115v49q-37 -56 -108 -56q-58 0 -86.5 33t-28.5 91v218h121v-182q0 -69 46 -69q23 0 36.5 21.5t13.5 56.5v173z" />
    <glyph glyph-name="v.ord" horiz-adv-x="399" 
d="M201 441l68 214h126l-123 -335h-145l-123 335h129z" />
    <glyph glyph-name="w.ord" horiz-adv-x="595" 
d="M297 530l-58 -210h-129l-103 335h126l54 -214l57 214h110l57 -214l54 214h123l-103 -335h-129z" />
    <glyph glyph-name="x.ord" horiz-adv-x="407" 
d="M135 320h-133l128 167l-127 168h136l65 -90l68 90h133l-127 -166l127 -169h-136l-65 91z" />
    <glyph glyph-name="y.ord" horiz-adv-x="396" 
d="M258 301q-24 -61 -65 -83.5t-100 -22.5q-27 0 -54 4v90q22 -2 35 -2q43 0 57 28l1 2l-129 338h128l69 -214l68 214h126z" />
    <glyph glyph-name="z.ord" horiz-adv-x="370" 
d="M35 655h303v-83l-166 -163h176v-89h-327v83l166 163h-152v89z" />
    </font>
</defs>
</svg>
