<svg xmlns="http://www.w3.org/2000/svg" viewBox="0 0 444.78 444.76"><defs><style>.cls-1{fill:#fff;}.cls-2{fill:none;stroke:#fff200;stroke-miterlimit:10;}</style></defs><title>Asset 2</title><g id="Layer_2" data-name="Layer 2"><g id="diseño"><path class="cls-1" d="M152,368.22l-10-20.3c.86-.6,1.68-1.22,2.45-1.86a27.68,27.68,0,0,0,8.25-11.69A41,41,0,0,0,155,320.43V316.8A40.94,40.94,0,0,0,152.73,303a26,26,0,0,0-8.11-11.34q-5.82-4.83-15.69-7.63t-25-2.8H.5V385.39H53.69V360.28A3.31,3.31,0,0,1,57,357H86.08a11.77,11.77,0,0,1,10.55,6.56l10.82,21.86H160.5Zm-51.7-49.46a6.58,6.58,0,0,1-2,4.69q-2,2-7.42,2H56.33a2.63,2.63,0,0,1-2.64-2.63v-8.45a2.64,2.64,0,0,1,2.64-2.63h34.6q5.46,0,7.42,2a6.51,6.51,0,0,1,2,4.76Z"/><path class="cls-2" d="M111.44,222.38H222.38V111.44A110.94,110.94,0,0,0,111.44,222.38Z"/><path class="cls-2" d="M222.38,111.44A111,111,0,0,0,111.44.5V111.44Z"/><path class="cls-2" d="M111.44,222.38V111.44H.5A110.94,110.94,0,0,0,111.44.5H.5V111.44A111,111,0,0,0,111.44,222.38Z"/><path class="cls-2" d="M222.41,333.32V444.26H333.34A110.93,110.93,0,0,1,222.41,333.32Z"/><path class="cls-2" d="M222.41,333.32A110.93,110.93,0,0,1,333.34,444.26,110.94,110.94,0,0,0,444.28,333.32H222.41Z"/><path class="cls-2" d="M444.28,333.32V222.38H333.34A110.94,110.94,0,0,0,444.28,333.32Z"/><path class="cls-2" d="M222.38,333.32A110.94,110.94,0,0,0,333.32,222.38H222.38V333.32Z"/></g></g></svg>