<?xml version="1.0" encoding="utf-8"?>
<!-- Generator: Adobe Illustrator 22.0.1, SVG Export Plug-In . SVG Version: 6.00 Build 0)  -->
<svg version="1.1" xmlns="http://www.w3.org/2000/svg" xmlns:xlink="http://www.w3.org/1999/xlink" x="0px" y="0px"
	 viewBox="0 0 1230.6 743" style="enable-background:new 0 0 1230.6 743;" xml:space="preserve">
<style type="text/css">
	.st0{fill:none;stroke:#1E1E1E;stroke-miterlimit:10;}
	.st1{display:none;}
	.st2{display:inline;fill:#2E3192;}
</style>
<g id="Layer_1">
	<path class="st0" d="M1032.7,108.8l33.4-33.4l-33.4-33.4L999.4,8.7c-18.4,18.4-18.4,48.3,0,66.7L966,42.1
		c-18.4,18.4-18.4,48.3,0,66.7l0,0C984.4,90.4,1014.3,90.4,1032.7,108.8"/>
	<path class="st0" d="M1032.7,108.8c18.4-18.4,18.4-48.3,0-66.7C1014.3,60.5,1014.3,90.4,1032.7,108.8"/>
	<path class="st0" d="M998,372.6c18.4,18.2,48.1,18.1,66.5-0.3l-33.4-33.4l0,0"/>
	<path class="st0" d="M964.3,338.9c18.4,18.4,48.3,18.4,66.7,0"/>
	<path class="st0" d="M997.2,371.9l0.5,0.5l0,0c0.1,0.1,0.2,0.2,0.3,0.3"/>
	<line class="st0" x1="964.3" y1="338.9" x2="997.2" y2="371.9"/>
	<path class="st0" d="M997.2,371.9c-18.5-18-48-17.8-66.3,0.5l33.4,33.4l0,0l33.4,33.4l0,0c18.4-18.4,18.4-48,0.3-66.5"/>
	<path class="st0" d="M997.2,371.9c0.2,0.2,0.3,0.3,0.5,0.4c0,0,0,0,0,0c0,0,0,0,0,0c0.1,0.1,0.2,0.2,0.2,0.3"/>
	<path class="st0" d="M964.3,338.9c18.4-18.4,48.3-18.4,66.7,0"/>
	<polyline class="st0" points="964.3,338.9 997.7,305.6 1031.1,339 	"/>
	<path class="st0" d="M962.6,702.6c18.4,18.4,48.3,18.4,66.7,0l0,0c-18.4-18.4-18.4-48.3,0-66.7L996,669.2L962.6,702.6"/>
	<path class="st0" d="M962.6,702.6c18.4-18.4,18.4-48.3,0-66.7l0,0l-33.4,33.4L962.6,702.6"/>
	<path class="st0" d="M1029.4,635.8L996,602.4l-33.4,33.4C981.1,654.2,1011,654.2,1029.4,635.8z"/>
	<path class="st0" d="M963.5,487.4c-18.4,18.4-18.4,48.3,0,66.7l0.3-0.3c17.9-18.3,18-47.5,0.2-65.9L963.5,487.4"/>
	<path class="st0" d="M963.5,487.4L963.5,487.4l33.4-33.4c18.4,18.4,18.4,48.3,0,66.7l0,0l0,0l33.4,33.4"/>
	<path class="st0" d="M963.5,487.4l-33.4,33.4l33.4,33.4l0,0c18.4,18.4,48.3,18.4,66.7,0"/>
	<path class="st0" d="M1030.2,554.1l33.4-33.4l-33.4-33.4C1011.8,505.8,1011.8,535.7,1030.2,554.1"/>
	<path class="st0" d="M998.5,223.9l-33.4,33.4c18.4,18.4,48.3,18.4,66.7,0"/>
	<path class="st0" d="M965.1,190.5c-18.4,18.4-18.4,48.3,0,66.7l0,0l33.4,33.4l33.4-33.4"/>
	<line class="st0" x1="998.5" y1="223.9" x2="1031.9" y2="190.5"/>
	<line class="st0" x1="1031.9" y1="257.3" x2="998.5" y2="223.9"/>
	<path class="st0" d="M1031.9,257.3L1031.9,257.3c18.4-18.4,18.4-48.3,0-66.7"/>
	<line class="st0" x1="965.1" y1="190.5" x2="998.5" y2="223.9"/>
	<polyline class="st0" points="965.1,190.5 998.5,157.1 1031.9,190.5 	"/>
	<path class="st0" d="M965.1,190.5c18.4,18.4,48.3,18.4,66.7,0"/>
	<path class="st0" d="M1152.4,519.9l-33.3-33.3c18.4,18.4,18.4,48.3-0.1,66.7"/>
	<path class="st0" d="M1152.4,519.9c18.4-18.4,18.4-48.3,0-66.7l-33.4,33.4l0,0l-33.4,33.4l33.4,33.4"/>
	<path class="st0" d="M1185.7,553.3c-18.4,18.4-48.3,18.4-66.7,0"/>
	<polyline class="st0" points="1185.7,553.3 1152.4,519.9 1152.4,519.9 	"/>
	<line class="st0" x1="1152.4" y1="519.9" x2="1119" y2="553.3"/>
	<path class="st0" d="M1185.7,553.3l33.4-33.4l-33.4-33.4C1167.3,505,1167.3,534.9,1185.7,553.3"/>
	<path class="st0" d="M1185.7,189.7c-18.4,18.4-18.4,48.3,0,66.7"/>
	<polyline class="st0" points="1185.7,256.4 1219.1,223.1 1185.7,189.7 	"/>
	<line class="st0" x1="1119" y1="189.7" x2="1152.4" y2="223.1"/>
	<path class="st0" d="M1119,189.7c18.4-18.4,48.3-18.4,66.7,0"/>
	<line class="st0" x1="1185.7" y1="189.7" x2="1152.4" y2="223.1"/>
	<line class="st0" x1="1185.7" y1="256.4" x2="1152.4" y2="223.1"/>
	<path class="st0" d="M1152.4,223.1c-18.4,18.4-18.4,48.3,0,66.7l33.4-33.4"/>
	<path class="st0" d="M1119,189.7l-33.4,33.4l33.4,33.4l0,0C1137.4,238,1137.4,208.1,1119,189.7"/>
	<polyline class="st0" points="1119,338.1 1085.6,371.5 1119,404.9 	"/>
	<path class="st0" d="M1119,338.1c-18.4,18.4-18.4,48.3,0,66.7"/>
	<polyline class="st0" points="1185.7,404.9 1152.4,438.2 1119,404.9 	"/>
	<path class="st0" d="M1185.7,404.9c-18.4-18.4-48.3-18.4-66.7,0"/>
	<path class="st0" d="M1119,338.1l33.4-33.4c18.4,18.4,18.4,48.3,0,66.7"/>
	<line class="st0" x1="1152.4" y1="371.5" x2="1119" y2="404.9"/>
	<path class="st0" d="M1119,338.1c18.4,18.4,18.4,48.3,0,66.7"/>
	<line class="st0" x1="1119" y1="404.9" x2="1119" y2="404.9"/>
	<path class="st0" d="M1185.7,404.9l33.4-33.4c-18.4-18.4-48.3-18.4-66.7,0"/>
	<line class="st0" x1="1152.4" y1="371.5" x2="1185.7" y2="404.9"/>
	<polyline class="st0" points="1119,41.3 1085.6,74.6 1119,108 	"/>
	<path class="st0" d="M1119,41.3c-18.4,18.4-18.4,48.3,0,66.7"/>
	<path class="st0" d="M1119,108c18.4-18.4,18.4-48.3,0-66.7"/>
	<polyline class="st0" points="1119,41.3 1152.4,74.6 1185.7,108 	"/>
	<path class="st0" d="M1119,108c18.4,18.4,48.3,18.4,66.7,0"/>
	<path class="st0" d="M1185.7,41.3l-33.4-33.4L1119,41.3C1137.4,59.7,1167.3,59.7,1185.7,41.3"/>
	<path class="st0" d="M1185.7,41.3c-18.4,18.4-18.4,48.3,0,66.7"/>
	<polyline class="st0" points="1185.7,108 1219.1,74.6 1185.7,41.3 	"/>
	<path class="st0" d="M1119,635c-18.4,18.4-18.4,48.3,0,66.7"/>
	<polyline class="st0" points="1119,635 1085.6,668.3 1119,701.7 	"/>
	<path class="st0" d="M1185.7,701.7c-18.4,18.4-48.3,18.4-66.7,0"/>
	<path class="st0" d="M1119,701.7c18.4-18.4,18.4-48.3,0-66.7"/>
	<polyline class="st0" points="1185.7,701.7 1152.4,668.3 1119,635 	"/>
	<path class="st0" d="M1185.7,635l-33.4-33.4L1119,635C1137.4,653.4,1167.3,653.4,1185.7,635"/>
	<polyline class="st0" points="1185.7,701.7 1219.1,668.3 1185.7,635 	"/>
	<path class="st0" d="M1185.7,635c-18.4,18.4-18.4,48.3,0,66.7"/>
	<path class="st0" d="M1041.6,479.5c18.4,18.4,48.3,18.4,66.7,0"/>
	<polyline class="st0" points="1041.6,479.5 1075,512.9 1108.4,479.5 	"/>
	<polyline class="st0" points="1041.6,412.8 1008.3,446.1 1041.6,479.5 	"/>
	<path class="st0" d="M1041.6,412.8c-18.4,18.4-18.4,48.3,0,66.7"/>
	<line class="st0" x1="1041.6" y1="479.5" x2="1041.6" y2="479.5"/>
	<path class="st0" d="M1041.6,479.5c18.4-18.4,48.3-18.4,66.7,0"/>
	<path class="st0" d="M1041.6,412.8L1041.6,412.8c18.4-18.4,48.3-18.4,66.7,0l-33.4,33.4c18.4-18.4,48.3-18.4,66.7,0l-33.4,33.4"/>
	<path class="st0" d="M1041.6,412.8c18.4,18.4,18.4,48.3,0,66.7"/>
	<line class="st0" x1="1043.3" y1="115.9" x2="1076.7" y2="149.3"/>
	<line class="st0" x1="1110.1" y1="115.9" x2="1076.7" y2="149.3"/>
	<path class="st0" d="M1110.1,182.6L1110.1,182.6c18.4-18.4,18.4-48.3,0-66.7"/>
	<path class="st0" d="M1076.7,149.3l-33.4,33.4c18.4,18.4,48.3,18.4,66.7,0"/>
	<line class="st0" x1="1110.1" y1="182.6" x2="1076.7" y2="149.3"/>
	<path class="st0" d="M1043.3,115.9c-18.4,18.4-18.4,48.3,0,66.7l0,0l33.4,33.4l33.4-33.4"/>
	<path class="st0" d="M1043.3,115.9c18.4,18.4,48.3,18.4,66.7,0"/>
	<polyline class="st0" points="1043.3,115.9 1076.7,82.5 1110.1,115.9 	"/>
	<path class="st0" d="M1040.8,561.2c-18.4,18.4-18.4,48.3,0,66.7l0,0"/>
	<line class="st0" x1="1040.8" y1="561.2" x2="1074.2" y2="594.6"/>
	<line class="st0" x1="1040.8" y1="627.9" x2="1074.2" y2="594.6"/>
	<line class="st0" x1="1074.2" y1="594.6" x2="1107.6" y2="561.2"/>
	<path class="st0" d="M1040.8,627.9c18.4,18.4,48.3,18.4,66.7,0l-33.4-33.4"/>
	<path class="st0" d="M1040.8,627.9l33.4,33.4l33.4-33.4l0,0c18.4-18.4,18.4-48.3,0-66.7"/>
	<polyline class="st0" points="1040.8,561.2 1074.2,527.8 1107.6,561.2 	"/>
	<path class="st0" d="M1040.8,561.2c18.4,18.4,48.3,18.4,66.7,0"/>
	<path class="st0" d="M1044.2,34.2c-9.4-9.4-14-21.9-13.8-34.2"/>
	<polyline class="st0" points="1044.2,34.2 1010.8,0.8 1011.6,0 	"/>
	<path class="st0" d="M1044.2,34.2c18.4,18.4,48.3,18.4,66.7,0"/>
	<polyline class="st0" points="1044.2,34.2 1077.5,67.6 1110.9,34.2 	"/>
	<path class="st0" d="M1110.9,34.2L1110.9,34.2c9.4-9.4,14-21.9,13.8-34.2"/>
	<path class="st0" d="M1044.2,34.2c18.4-18.4,48.3-18.4,66.7,0"/>
	<path class="st0" d="M1044.2,34.2c9.4-9.4,14-21.9,13.8-34.2"/>
	<path class="st0" d="M1078.3,0c-0.3,0.3-0.5,0.6-0.8,0.8l0,0L1078.3,0"/>
	<path class="st0" d="M1042.5,331.1c18.4-18.4,48.3-18.4,66.7,0"/>
	<polyline class="st0" points="1042.5,331.1 1075.9,364.4 1109.2,331.1 	"/>
	<path class="st0" d="M1109.2,331.1c18.4-18.4,18.4-48.3,0-66.7"/>
	<line class="st0" x1="1109.2" y1="264.3" x2="1075.9" y2="297.7"/>
	<line class="st0" x1="1109.2" y1="331.1" x2="1075.9" y2="297.7"/>
	<path class="st0" d="M1042.5,331.1c-18.4-18.4-18.4-48.3,0-66.7l33.4-33.4l33.4,33.4"/>
	<path class="st0" d="M1109.2,264.3c-18.4,18.4-48.3,18.4-66.7,0l33.4,33.4"/>
	<line class="st0" x1="1042.5" y1="331.1" x2="1075.9" y2="297.7"/>
	<path class="st0" d="M1197.2,263.5c9.2-9.2,21.3-13.8,33.4-13.8"/>
	<line class="st0" x1="1197.2" y1="263.5" x2="1230.6" y2="230.1"/>
	<path class="st0" d="M1197.2,263.5l-33.4,33.4c18.4,18.4,48.3,18.4,66.7,0"/>
	<path class="st0" d="M1197.2,263.5c9.2,9.2,21.3,13.8,33.4,13.8"/>
	<line class="st0" x1="1230.6" y1="296.9" x2="1230.6" y2="296.9"/>
	<path class="st0" d="M1230.6,363.6c-18.4-18.4-18.4-48.3,0-66.7"/>
	<line class="st0" x1="1230.6" y1="296.9" x2="1230.6" y2="296.9"/>
	<polyline class="st0" points="1230.6,512 1230.5,512 1197.2,478.7 	"/>
	<path class="st0" d="M1230.6,464.8c-12.1,0-24.2,4.6-33.4,13.8"/>
	<path class="st0" d="M1230.6,378.5l-33.4,33.4c9.2,9.2,21.3,13.8,33.4,13.8"/>
	<path class="st0" d="M1197.2,478.7l33.4-33.4l-33.4-33.4C1178.7,430.3,1178.7,460.2,1197.2,478.7L1197.2,478.7"/>
	<path class="st0" d="M1197.2,33.4c9.2,9.2,21.3,13.8,33.4,13.8"/>
	<line class="st0" x1="1197.2" y1="33.4" x2="1230.6" y2="66.7"/>
	<path class="st0" d="M1183.4,0c0,12.1,4.6,24.2,13.8,33.4"/>
	<path class="st0" d="M1197.2,33.4c9.2-9.2,21.3-13.8,33.4-13.8"/>
	<line class="st0" x1="1230.6" y1="148.4" x2="1230.6" y2="148.4"/>
	<path class="st0" d="M1197.2,115.1c-18.4,18.4-18.4,48.3,0,66.7"/>
	<polyline class="st0" points="1197.2,181.8 1197.2,181.8 1230.6,215.2 	"/>
	<path class="st0" d="M1197.2,181.8c18.2-18.2,18.4-47.5,0.7-66l-0.7-0.7"/>
	<polyline class="st0" points="1197.2,115.1 1163.8,148.4 1197.2,181.8 	"/>
	<path class="st0" d="M1197.2,115.1L1197.2,115.1l33.4-33.4c-18.2,18.2-18.4,47.5-0.7,66l0.7,0.7"/>
	<path class="st0" d="M1230.6,640.9c-12.1,0-24.2-4.6-33.4-13.8"/>
	<line class="st0" x1="1230.6" y1="660.5" x2="1197.2" y2="627.1"/>
	<path class="st0" d="M1230.6,613.3c-12.1,0-24.2,4.6-33.4,13.8"/>
	<path class="st0" d="M1197.2,560.3c-18.4,18.4-18.4,48.3,0,66.7"/>
	<line class="st0" x1="1197.2" y1="560.3" x2="1230.6" y2="593.7"/>
	<line class="st0" x1="1230.6" y1="527" x2="1197.2" y2="560.3"/>
	<path class="st0" d="M1230.6,574.2c-12.1,0-24.2-4.6-33.4-13.8"/>
	<path class="st0" d="M725.1,108.8l33.4-33.4l-33.4-33.4L691.7,8.7c-18.4,18.4-18.4,48.3,0,66.7l-33.4-33.4
		c-18.4,18.4-18.4,48.3,0,66.7l0,0C676.8,90.4,706.7,90.4,725.1,108.8"/>
	<path class="st0" d="M725.1,108.8c18.4-18.4,18.4-48.3,0-66.7C706.7,60.5,706.7,90.4,725.1,108.8"/>
	<line class="st0" x1="689.6" y1="371.9" x2="656.7" y2="338.9"/>
	<path class="st0" d="M690.3,372.6c18.4,18.2,48.1,18.1,66.5-0.3L723.4,339l0,0"/>
	<path class="st0" d="M689.6,371.9l0.5,0.5l0,0c0.1,0.1,0.2,0.2,0.3,0.3"/>
	<path class="st0" d="M656.7,338.9c18.4,18.4,48.3,18.4,66.7,0"/>
	<path class="st0" d="M689.6,371.9c-18.5-18-48-17.8-66.3,0.5l33.4,33.4l0,0l33.4,33.4l0,0c18.4-18.4,18.4-48,0.3-66.5"/>
	<path class="st0" d="M689.6,371.9c0.2,0.2,0.3,0.3,0.5,0.4c0,0,0,0,0,0c0,0,0,0,0,0c0.1,0.1,0.2,0.2,0.2,0.3"/>
	<polyline class="st0" points="656.7,338.9 690.1,305.6 723.4,339 	"/>
	<path class="st0" d="M656.7,338.9c18.4-18.4,48.3-18.4,66.7,0"/>
	<path class="st0" d="M655,702.6c18.4,18.4,48.3,18.4,66.7,0l0,0c-18.4-18.4-18.4-48.3,0-66.7l-33.4,33.4L655,702.6"/>
	<path class="st0" d="M655,702.6c18.4-18.4,18.4-48.3,0-66.7l0,0l-33.4,33.4L655,702.6"/>
	<path class="st0" d="M721.8,635.8l-33.4-33.4L655,635.8C673.4,654.2,703.3,654.2,721.8,635.8z"/>
	<path class="st0" d="M655.8,487.4c-18.4,18.4-18.4,48.3,0,66.7l0.3-0.3c17.9-18.3,18-47.5,0.2-65.9L655.8,487.4"/>
	<path class="st0" d="M655.8,487.4L655.8,487.4l33.4-33.4c18.4,18.4,18.4,48.3,0,66.7l0,0l0,0l33.4,33.4"/>
	<path class="st0" d="M655.8,487.4l-33.4,33.4l33.4,33.4l0,0c18.4,18.4,48.3,18.4,66.7,0"/>
	<path class="st0" d="M722.6,554.1l33.4-33.4l-33.4-33.4C704.1,505.8,704.1,535.7,722.6,554.1"/>
	<line class="st0" x1="724.2" y1="257.3" x2="690.9" y2="223.9"/>
	<path class="st0" d="M724.2,257.3l-33.4,33.4l-33.4-33.4l0,0c-18.4-18.4-18.4-48.3,0-66.7"/>
	<line class="st0" x1="690.9" y1="223.9" x2="657.5" y2="190.5"/>
	<path class="st0" d="M690.9,223.9l-33.4,33.4c18.4,18.4,48.3,18.4,66.7,0"/>
	<line class="st0" x1="690.9" y1="223.9" x2="724.3" y2="190.5"/>
	<path class="st0" d="M724.2,257.3L724.2,257.3c18.4-18.4,18.4-48.3,0-66.7"/>
	<path class="st0" d="M657.5,190.5c18.4,18.4,48.3,18.4,66.7,0"/>
	<polyline class="st0" points="657.5,190.5 690.9,157.1 724.3,190.5 	"/>
	<path class="st0" d="M844.7,519.9l-33.3-33.3c18.4,18.4,18.4,48.3-0.1,66.7"/>
	<path class="st0" d="M844.7,519.9c18.4-18.4,18.4-48.3,0-66.7l-33.4,33.4l0,0L778,519.9l33.4,33.4"/>
	<polyline class="st0" points="878.1,553.3 844.7,519.9 844.7,519.9 	"/>
	<line class="st0" x1="844.7" y1="519.9" x2="811.4" y2="553.3"/>
	<path class="st0" d="M878.1,553.3c-18.4,18.4-48.3,18.4-66.7,0"/>
	<path class="st0" d="M878.1,553.3l33.4-33.4l-33.4-33.4C859.7,505,859.7,534.9,878.1,553.3"/>
	<polyline class="st0" points="878.1,256.4 911.5,223.1 878.1,189.7 	"/>
	<path class="st0" d="M878.1,189.7c-18.4,18.4-18.4,48.3,0,66.7"/>
	<line class="st0" x1="811.4" y1="189.7" x2="844.7" y2="223.1"/>
	<line class="st0" x1="844.7" y1="223.1" x2="878.1" y2="189.7"/>
	<path class="st0" d="M811.4,189.7c18.4-18.4,48.3-18.4,66.7,0"/>
	<path class="st0" d="M844.7,223.1c-18.4,18.4-18.4,48.3,0,66.7l33.4-33.4"/>
	<line class="st0" x1="844.7" y1="223.1" x2="878.1" y2="256.4"/>
	<path class="st0" d="M811.4,189.7L778,223.1l33.4,33.4l0,0C829.8,238,829.8,208.1,811.4,189.7"/>
	<polyline class="st0" points="811.4,338.1 778,371.5 811.4,404.9 	"/>
	<path class="st0" d="M811.4,338.1c-18.4,18.4-18.4,48.3,0,66.7"/>
	<polyline class="st0" points="878.1,404.9 844.7,438.2 811.4,404.9 	"/>
	<path class="st0" d="M878.1,404.9c-18.4-18.4-48.3-18.4-66.7,0"/>
	<path class="st0" d="M811.4,404.9c18.4-18.4,18.4-48.3,0-66.7"/>
	<line class="st0" x1="811.4" y1="404.9" x2="811.4" y2="404.9"/>
	<path class="st0" d="M844.7,371.5c18.4-18.4,18.4-48.3,0-66.7l-33.4,33.4"/>
	<line class="st0" x1="844.7" y1="371.5" x2="811.4" y2="404.9"/>
	<line class="st0" x1="878.1" y1="404.9" x2="844.7" y2="371.5"/>
	<path class="st0" d="M878.1,404.9l33.4-33.4c-18.4-18.4-48.3-18.4-66.7,0"/>
	<path class="st0" d="M811.4,41.3c-18.4,18.4-18.4,48.3,0,66.7"/>
	<polyline class="st0" points="811.4,41.3 778,74.6 811.4,108 	"/>
	<path class="st0" d="M811.4,108c18.4,18.4,48.3,18.4,66.7,0"/>
	<polyline class="st0" points="811.4,41.3 844.7,74.6 878.1,108 	"/>
	<path class="st0" d="M811.4,108c18.4-18.4,18.4-48.3,0-66.7"/>
	<path class="st0" d="M878.1,41.3L844.7,7.9l-33.4,33.4C829.8,59.7,859.7,59.7,878.1,41.3"/>
	<polyline class="st0" points="878.1,108 911.5,74.6 878.1,41.3 	"/>
	<path class="st0" d="M878.1,41.3c-18.4,18.4-18.4,48.3,0,66.7"/>
	<polyline class="st0" points="811.4,635 778,668.3 811.4,701.7 	"/>
	<path class="st0" d="M811.4,635c-18.4,18.4-18.4,48.3,0,66.7"/>
	<path class="st0" d="M878.1,701.7c-18.4,18.4-48.3,18.4-66.7,0"/>
	<polyline class="st0" points="878.1,701.7 844.7,668.3 811.4,635 	"/>
	<path class="st0" d="M811.4,701.7c18.4-18.4,18.4-48.3,0-66.7"/>
	<path class="st0" d="M878.1,635l-33.4-33.4L811.4,635C829.8,653.4,859.7,653.4,878.1,635"/>
	<polyline class="st0" points="878.1,701.7 911.5,668.3 878.1,635 	"/>
	<path class="st0" d="M878.1,635c-18.4,18.4-18.4,48.3,0,66.7"/>
	<path class="st0" d="M734,479.5c18.4,18.4,48.3,18.4,66.7,0"/>
	<polyline class="st0" points="734,479.5 767.4,512.9 800.8,479.5 	"/>
	<polyline class="st0" points="734,412.8 700.6,446.1 734,479.5 	"/>
	<path class="st0" d="M734,412.8c-18.4,18.4-18.4,48.3,0,66.7"/>
	<line class="st0" x1="734" y1="479.5" x2="734" y2="479.5"/>
	<path class="st0" d="M734,412.8c18.4,18.4,18.4,48.3,0,66.7"/>
	<path class="st0" d="M734,479.5c18.4-18.4,48.3-18.4,66.7,0"/>
	<path class="st0" d="M734,412.8L734,412.8c18.4-18.4,48.3-18.4,66.7,0l-33.4,33.4c18.4-18.4,48.3-18.4,66.7,0l-33.4,33.4"/>
	<line class="st0" x1="802.4" y1="182.6" x2="769.1" y2="149.3"/>
	<line class="st0" x1="802.4" y1="115.9" x2="769.1" y2="149.3"/>
	<line class="st0" x1="735.7" y1="115.9" x2="769.1" y2="149.3"/>
	<path class="st0" d="M769.1,149.3l-33.4,33.4c18.4,18.4,48.3,18.4,66.7,0"/>
	<path class="st0" d="M735.7,115.9c-18.4,18.4-18.4,48.3,0,66.7l0,0l33.4,33.4l33.4-33.4"/>
	<path class="st0" d="M802.4,182.6L802.4,182.6c18.4-18.4,18.4-48.3,0-66.7"/>
	<path class="st0" d="M735.7,115.9c18.4,18.4,48.3,18.4,66.7,0"/>
	<polyline class="st0" points="735.7,115.9 769.1,82.5 802.4,115.9 	"/>
	<line class="st0" x1="733.2" y1="561.2" x2="766.6" y2="594.6"/>
	<path class="st0" d="M733.2,561.2c-18.4,18.4-18.4,48.3,0,66.7l0,0"/>
	<path class="st0" d="M733.2,627.9c18.4,18.4,48.3,18.4,66.7,0l-33.4-33.4"/>
	<line class="st0" x1="766.6" y1="594.6" x2="799.9" y2="561.2"/>
	<line class="st0" x1="733.2" y1="627.9" x2="766.6" y2="594.6"/>
	<path class="st0" d="M733.2,627.9l33.4,33.4l33.4-33.4l0,0c18.4-18.4,18.4-48.3,0-66.7"/>
	<polyline class="st0" points="733.2,561.2 766.5,527.8 799.9,561.2 	"/>
	<path class="st0" d="M733.2,561.2c18.4,18.4,48.3,18.4,66.7,0"/>
	<polyline class="st0" points="736.5,34.2 703.1,0.8 704,0 	"/>
	<path class="st0" d="M736.5,34.2c-9.4-9.4-14-21.9-13.8-34.2"/>
	<polyline class="st0" points="736.5,34.2 769.9,67.6 803.3,34.2 	"/>
	<path class="st0" d="M736.5,34.2c18.4,18.4,48.3,18.4,66.7,0"/>
	<path class="st0" d="M736.5,34.2c18.4-18.4,48.3-18.4,66.7,0"/>
	<path class="st0" d="M770.7,0c-0.3,0.3-0.5,0.6-0.8,0.8l0,0L770.7,0"/>
	<path class="st0" d="M736.5,34.2c9.4-9.4,14-21.9,13.8-34.2"/>
	<path class="st0" d="M803.3,34.2L803.3,34.2c9.4-9.4,14-21.9,13.8-34.2"/>
	<polyline class="st0" points="801.6,331.1 768.2,364.4 734.8,331.1 	"/>
	<path class="st0" d="M801.6,331.1c-18.4-18.4-48.3-18.4-66.7,0"/>
	<line class="st0" x1="801.6" y1="264.3" x2="768.2" y2="297.7"/>
	<line class="st0" x1="801.6" y1="331.1" x2="768.2" y2="297.7"/>
	<path class="st0" d="M801.6,331.1c18.4-18.4,18.4-48.3,0-66.7"/>
	<path class="st0" d="M801.6,264.3c-18.4,18.4-48.3,18.4-66.7,0l33.4,33.4"/>
	<path class="st0" d="M801.6,264.3l-33.4-33.4l-33.4,33.4c-18.4,18.4-18.4,48.3,0,66.7"/>
	<line class="st0" x1="734.8" y1="331.1" x2="768.2" y2="297.7"/>
	<path class="st0" d="M956.3,263.5c-18.4-18.4-48.3-18.4-66.7,0"/>
	<polyline class="st0" points="956.3,263.5 922.9,230.1 889.6,263.5 	"/>
	<polyline class="st0" points="956.3,330.2 989.7,296.9 956.3,263.5 	"/>
	<path class="st0" d="M956.3,263.5c-18.4,18.4-18.4,48.3,0,66.7"/>
	<path class="st0" d="M956.3,263.5c-18.4,18.4-48.3,18.4-66.7,0"/>
	<line class="st0" x1="922.9" y1="296.9" x2="956.3" y2="263.5"/>
	<path class="st0" d="M889.6,263.5l-33.4,33.4c18.4,18.4,48.3,18.4,66.7,0"/>
	<line class="st0" x1="922.9" y1="296.9" x2="956.3" y2="330.2"/>
	<path class="st0" d="M922.9,296.9c-18.4,18.4-18.4,48.3,0,66.7l33.4-33.4"/>
	<path class="st0" d="M889.5,478.7l33.4,33.4l33.4-33.4C937.9,460.2,908,460.2,889.5,478.7"/>
	<path class="st0" d="M956.3,411.9l-33.4-33.4l-33.4,33.4C908,430.3,937.9,430.3,956.3,411.9z"/>
	<path class="st0" d="M889.5,478.7l33.4-33.4l-33.4-33.4C871.1,430.3,871.1,460.2,889.5,478.7L889.5,478.7"/>
	<polyline class="st0" points="956.3,411.9 922.9,445.3 956.3,478.7 	"/>
	<path class="st0" d="M956.3,411.9c-18.4,18.4-18.4,48.3,0,66.7"/>
	<polyline class="st0" points="956.3,411.9 989.7,445.3 956.3,478.7 	"/>
	<path class="st0" d="M956.3,411.9c18.4,18.4,18.4,48.3,0,66.7"/>
	<path class="st0" d="M889.5,33.4c18.4,18.4,48.3,18.4,66.7,0"/>
	<polyline class="st0" points="889.5,33.4 922.9,66.7 956.3,33.4 	"/>
	<path class="st0" d="M889.5,33.4c-9.2-9.2-13.8-21.3-13.8-33.4"/>
	<polyline class="st0" points="956.3,33.4 956.3,33.4 922.9,0 	"/>
	<path class="st0" d="M889.5,33.4c18.4-18.4,48.3-18.4,66.7,0"/>
	<path class="st0" d="M942.5,0c0,12.1,4.6,24.2,13.8,33.4l0,0L989.7,0"/>
	<path class="st0" d="M889.5,115.1c-18.4,18.4-18.4,48.3,0,66.7"/>
	<path class="st0" d="M889.6,181.8L889.6,181.8l33.4,33.4c18.4-18.4,18.4-48.3,0-66.7l0,0"/>
	<path class="st0" d="M889.5,115.1L889.5,115.1l33.4-33.4c-18.2,18.2-18.4,47.5-0.7,66l0.7,0.7"/>
	<path class="st0" d="M889.6,181.8c18.2-18.2,18.4-47.5,0.7-66l-0.7-0.7"/>
	<polyline class="st0" points="889.5,115.1 856.2,148.4 889.6,181.8 	"/>
	<path class="st0" d="M922.9,148.4c18.4,18.4,48.3,18.4,66.7,0l-33.4-33.4l0,0l-33.4-33.4C941.4,100.1,941.4,130,922.9,148.4
		L922.9,148.4"/>
	<path class="st0" d="M956.3,627.1c-18.4,18.4-48.3,18.4-66.7,0"/>
	<polyline class="st0" points="956.3,627.1 922.9,660.5 889.5,627.1 	"/>
	<path class="st0" d="M889.5,560.3c-18.4,18.4-18.4,48.3,0,66.7"/>
	<polyline class="st0" points="956.3,627.1 956.3,627.1 922.9,593.7 922.9,593.7 889.5,560.3 	"/>
	<path class="st0" d="M956.3,627.1c-18.4-18.4-48.3-18.4-66.7,0"/>
	<path class="st0" d="M889.5,560.3c18.4,18.4,48.3,18.4,66.7,0l0,0L922.9,527L889.5,560.3"/>
	<path class="st0" d="M989.7,593.7l-33.4-33.4c-18.4,18.4-18.4,48.3,0,66.7l0,0L989.7,593.7z"/>
	<path class="st0" d="M417.4,108.8l33.4-33.4l-33.4-33.4L384.1,8.7c-18.4,18.4-18.4,48.3,0,66.7l-33.4-33.4
		c-18.4,18.4-18.4,48.3,0,66.7l0,0C369.1,90.4,399,90.4,417.4,108.8"/>
	<path class="st0" d="M417.4,108.8c18.4-18.4,18.4-48.3,0-66.7C399,60.5,399,90.4,417.4,108.8"/>
	<path class="st0" d="M382,371.9l0.5,0.5l0,0c0.1,0.1,0.2,0.2,0.3,0.3"/>
	<line class="st0" x1="382" y1="371.9" x2="349" y2="338.9"/>
	<path class="st0" d="M349,338.9c18.4,18.4,48.3,18.4,66.7,0"/>
	<path class="st0" d="M382.7,372.6c18.4,18.2,48.1,18.1,66.5-0.3L415.8,339l0,0"/>
	<path class="st0" d="M382,371.9c0.2,0.2,0.3,0.3,0.5,0.5c0,0,0,0,0,0c0,0,0,0,0,0c0.1,0.1,0.2,0.2,0.2,0.3"/>
	<path class="st0" d="M382,371.9c-18.5-18-48-17.8-66.3,0.5l33.4,33.4l0,0l33.4,33.4l0,0c18.4-18.4,18.4-48,0.3-66.5"/>
	<path class="st0" d="M349,338.9c18.4-18.4,48.3-18.4,66.7,0"/>
	<polyline class="st0" points="349,338.9 382.4,305.6 415.8,339 	"/>
	<path class="st0" d="M347.4,702.6c18.4,18.4,48.3,18.4,66.7,0l0,0c-18.4-18.4-18.4-48.3,0-66.7l-33.4,33.4L347.4,702.6"/>
	<path class="st0" d="M347.4,702.6c18.4-18.4,18.4-48.3,0-66.7l0,0L314,669.2L347.4,702.6"/>
	<path class="st0" d="M414.1,635.8l-33.4-33.4l-33.4,33.4C365.8,654.2,395.7,654.2,414.1,635.8z"/>
	<path class="st0" d="M348.2,487.4c-18.4,18.4-18.4,48.3,0,66.7l0.3-0.3c17.9-18.3,18-47.5,0.2-65.9L348.2,487.4"/>
	<path class="st0" d="M348.2,487.4l-33.4,33.4l33.4,33.4l0,0c18.4,18.4,48.3,18.4,66.7,0"/>
	<path class="st0" d="M348.2,487.4L348.2,487.4l33.4-33.4c18.4,18.4,18.4,48.3,0,66.7l0,0l0,0l33.4,33.4"/>
	<path class="st0" d="M414.9,554.1l33.4-33.4l-33.4-33.4C396.5,505.8,396.5,535.7,414.9,554.1"/>
	<line class="st0" x1="383.2" y1="223.9" x2="349.9" y2="190.5"/>
	<line class="st0" x1="383.2" y1="223.9" x2="416.6" y2="190.5"/>
	<line class="st0" x1="416.6" y1="257.3" x2="383.2" y2="223.9"/>
	<path class="st0" d="M416.6,257.3L416.6,257.3c18.4-18.4,18.4-48.3,0-66.7"/>
	<path class="st0" d="M383.2,223.9l-33.4,33.4c18.4,18.4,48.3,18.4,66.7,0"/>
	<path class="st0" d="M416.6,257.3l-33.4,33.4l-33.4-33.4l0,0c-18.4-18.4-18.4-48.3,0-66.7"/>
	<path class="st0" d="M349.9,190.5c18.4,18.4,48.3,18.4,66.7,0"/>
	<polyline class="st0" points="349.9,190.5 383.2,157.1 416.6,190.5 	"/>
	<path class="st0" d="M537.1,519.9c18.4-18.4,18.4-48.3,0-66.7l-33.4,33.4l0,0l-33.4,33.4l33.4,33.4"/>
	<path class="st0" d="M537.1,519.9l-33.3-33.3c18.4,18.4,18.4,48.3-0.1,66.7"/>
	<path class="st0" d="M570.5,553.3c-18.4,18.4-48.3,18.4-66.7,0"/>
	<polyline class="st0" points="570.5,553.3 537.1,519.9 537.1,519.9 	"/>
	<line class="st0" x1="537.1" y1="519.9" x2="503.7" y2="553.3"/>
	<path class="st0" d="M570.5,553.3l33.4-33.4l-33.4-33.4C552,505,552,534.9,570.5,553.3"/>
	<polyline class="st0" points="570.5,256.4 603.8,223.1 570.5,189.7 	"/>
	<path class="st0" d="M570.5,189.7c-18.4,18.4-18.4,48.3,0,66.7"/>
	<line class="st0" x1="537.1" y1="223.1" x2="570.5" y2="189.7"/>
	<path class="st0" d="M503.7,189.7c18.4-18.4,48.3-18.4,66.7,0"/>
	<line class="st0" x1="503.7" y1="189.7" x2="537.1" y2="223.1"/>
	<line class="st0" x1="537.1" y1="223.1" x2="570.5" y2="256.4"/>
	<path class="st0" d="M537.1,223.1c-18.4,18.4-18.4,48.3,0,66.7l33.4-33.4"/>
	<path class="st0" d="M503.7,189.7l-33.4,33.4l33.4,33.4l0,0C522.2,238,522.1,208.1,503.7,189.7"/>
	<path class="st0" d="M503.7,338.1c-18.4,18.4-18.4,48.3,0,66.7"/>
	<polyline class="st0" points="503.7,338.1 470.3,371.5 503.7,404.9 	"/>
	<path class="st0" d="M570.5,404.9c-18.4-18.4-48.3-18.4-66.7,0"/>
	<polyline class="st0" points="570.5,404.9 537.1,438.2 503.7,404.9 	"/>
	<line class="st0" x1="537.1" y1="371.5" x2="503.7" y2="404.9"/>
	<path class="st0" d="M503.7,404.9c18.4-18.4,18.4-48.3,0-66.7"/>
	<path class="st0" d="M537.1,371.5c18.4-18.4,18.4-48.3,0-66.7l-33.4,33.4"/>
	<line class="st0" x1="503.7" y1="404.9" x2="503.7" y2="404.9"/>
	<line class="st0" x1="570.5" y1="404.9" x2="537.1" y2="371.5"/>
	<path class="st0" d="M570.5,404.9l33.4-33.4c-18.4-18.4-48.3-18.4-66.7,0"/>
	<polyline class="st0" points="503.7,41.3 470.3,74.6 503.7,108 	"/>
	<path class="st0" d="M503.7,41.3c-18.4,18.4-18.4,48.3,0,66.7"/>
	<polyline class="st0" points="503.7,41.3 537.1,74.6 570.5,108 	"/>
	<path class="st0" d="M503.7,108c18.4,18.4,48.3,18.4,66.7,0"/>
	<path class="st0" d="M503.7,108c18.4-18.4,18.4-48.3,0-66.7"/>
	<path class="st0" d="M570.5,41.3L537.1,7.9l-33.4,33.4C522.2,59.7,552,59.7,570.5,41.3"/>
	<polyline class="st0" points="570.5,108 603.8,74.6 570.5,41.3 	"/>
	<path class="st0" d="M570.5,41.3c-18.4,18.4-18.4,48.3,0,66.7"/>
	<path class="st0" d="M503.7,635c-18.4,18.4-18.4,48.3,0,66.7"/>
	<polyline class="st0" points="503.7,635 470.3,668.3 503.7,701.7 	"/>
	<path class="st0" d="M503.7,701.7c18.4-18.4,18.4-48.3,0-66.7"/>
	<polyline class="st0" points="570.5,701.7 537.1,668.3 503.7,635 	"/>
	<path class="st0" d="M570.5,701.7c-18.4,18.4-48.3,18.4-66.7,0"/>
	<path class="st0" d="M570.5,635l-33.4-33.4L503.7,635C522.2,653.4,552,653.4,570.5,635"/>
	<path class="st0" d="M570.5,635c-18.4,18.4-18.4,48.3,0,66.7"/>
	<polyline class="st0" points="570.5,701.7 603.8,668.3 570.5,635 	"/>
	<polyline class="st0" points="426.4,479.5 459.7,512.9 493.1,479.5 	"/>
	<path class="st0" d="M426.4,479.5c18.4,18.4,48.3,18.4,66.7,0"/>
	<polyline class="st0" points="426.4,412.8 393,446.1 426.4,479.5 	"/>
	<path class="st0" d="M426.4,412.8c-18.4,18.4-18.4,48.3,0,66.7"/>
	<path class="st0" d="M426.4,479.5c18.4-18.4,48.3-18.4,66.7,0"/>
	<path class="st0" d="M426.4,412.8c18.4,18.4,18.4,48.3,0,66.7"/>
	<line class="st0" x1="426.4" y1="479.5" x2="426.4" y2="479.5"/>
	<path class="st0" d="M426.4,412.8L426.4,412.8c18.4-18.4,48.3-18.4,66.7,0l-33.4,33.4c18.4-18.4,48.3-18.4,66.7,0l-33.4,33.4"/>
	<line class="st0" x1="494.8" y1="115.9" x2="461.4" y2="149.3"/>
	<path class="st0" d="M428,115.9c-18.4,18.4-18.4,48.3,0,66.7l0,0l33.4,33.4l33.4-33.4"/>
	<line class="st0" x1="428" y1="115.9" x2="461.4" y2="149.3"/>
	<path class="st0" d="M494.8,182.6L494.8,182.6c18.4-18.4,18.4-48.3,0-66.7"/>
	<path class="st0" d="M461.4,149.3l-33.4,33.4c18.4,18.4,48.3,18.4,66.7,0"/>
	<line class="st0" x1="494.8" y1="182.6" x2="461.4" y2="149.3"/>
	<path class="st0" d="M428,115.9c18.4,18.4,48.3,18.4,66.7,0"/>
	<polyline class="st0" points="428,115.9 461.4,82.5 494.8,115.9 	"/>
	<line class="st0" x1="425.5" y1="627.9" x2="458.9" y2="594.6"/>
	<path class="st0" d="M425.5,627.9c18.4,18.4,48.3,18.4,66.7,0l-33.4-33.4"/>
	<line class="st0" x1="458.9" y1="594.6" x2="492.3" y2="561.2"/>
	<path class="st0" d="M425.5,627.9l33.4,33.4l33.4-33.4l0,0c18.4-18.4,18.4-48.3,0-66.7"/>
	<path class="st0" d="M425.5,561.2c-18.4,18.4-18.4,48.3,0,66.7l0,0"/>
	<line class="st0" x1="425.5" y1="561.2" x2="458.9" y2="594.6"/>
	<path class="st0" d="M425.5,561.2c18.4,18.4,48.3,18.4,66.7,0"/>
	<polyline class="st0" points="425.5,561.2 458.9,527.8 492.3,561.2 	"/>
	<path class="st0" d="M428.9,34.2c-9.4-9.4-14-21.9-13.8-34.2"/>
	<polyline class="st0" points="428.9,34.2 395.5,0.8 396.3,0 	"/>
	<polyline class="st0" points="428.9,34.2 462.3,67.6 495.6,34.2 	"/>
	<path class="st0" d="M428.9,34.2c18.4,18.4,48.3,18.4,66.7,0"/>
	<path class="st0" d="M428.9,34.2c18.4-18.4,48.3-18.4,66.7,0"/>
	<path class="st0" d="M428.9,34.2c9.4-9.4,14-21.9,13.8-34.2"/>
	<path class="st0" d="M463,0c-0.3,0.3-0.5,0.6-0.8,0.8l0,0L463,0"/>
	<path class="st0" d="M495.6,34.2L495.6,34.2c9.4-9.4,14-21.9,13.8-34.2"/>
	<path class="st0" d="M494,331.1c-18.4-18.4-48.3-18.4-66.7,0"/>
	<polyline class="st0" points="494,331.1 460.6,364.4 427.2,331.1 	"/>
	<line class="st0" x1="494" y1="264.3" x2="460.6" y2="297.7"/>
	<line class="st0" x1="494" y1="331.1" x2="460.6" y2="297.7"/>
	<path class="st0" d="M494,331.1c18.4-18.4,18.4-48.3,0-66.7"/>
	<path class="st0" d="M494,264.3c-18.4,18.4-48.3,18.4-66.7,0l33.4,33.4"/>
	<path class="st0" d="M494,264.3l-33.4-33.4l-33.4,33.4c-18.4,18.4-18.4,48.3,0,66.7"/>
	<line class="st0" x1="427.2" y1="331.1" x2="460.6" y2="297.7"/>
	<path class="st0" d="M648.7,263.5c-18.4-18.4-48.3-18.4-66.7,0"/>
	<polyline class="st0" points="648.7,263.5 615.3,230.1 581.9,263.5 	"/>
	<polyline class="st0" points="648.7,330.2 682,296.9 648.7,263.5 	"/>
	<path class="st0" d="M648.7,263.5c-18.4,18.4-18.4,48.3,0,66.7"/>
	<path class="st0" d="M648.7,263.5c-18.4,18.4-48.3,18.4-66.7,0"/>
	<line class="st0" x1="615.3" y1="296.9" x2="648.7" y2="263.5"/>
	<path class="st0" d="M581.9,263.5l-33.4,33.4c18.4,18.4,48.3,18.4,66.7,0"/>
	<path class="st0" d="M615.3,296.9c-18.4,18.4-18.4,48.3,0,66.7l33.4-33.4"/>
	<line class="st0" x1="615.3" y1="296.9" x2="648.7" y2="330.2"/>
	<path class="st0" d="M581.9,478.7l33.4,33.4l33.4-33.4C630.2,460.2,600.3,460.2,581.9,478.7"/>
	<path class="st0" d="M648.7,411.9l-33.4-33.4l-33.4,33.4C600.3,430.3,630.2,430.3,648.7,411.9z"/>
	<path class="st0" d="M581.9,478.7l33.4-33.4l-33.4-33.4C563.5,430.3,563.5,460.2,581.9,478.7L581.9,478.7"/>
	<path class="st0" d="M648.7,411.9c-18.4,18.4-18.4,48.3,0,66.7"/>
	<polyline class="st0" points="648.7,411.9 615.3,445.3 648.7,478.7 	"/>
	<polyline class="st0" points="648.7,411.9 682,445.3 648.7,478.7 	"/>
	<path class="st0" d="M648.7,411.9c18.4,18.4,18.4,48.3,0,66.7"/>
	<path class="st0" d="M581.9,33.4c18.4,18.4,48.3,18.4,66.7,0"/>
	<polyline class="st0" points="581.9,33.4 615.3,66.7 648.7,33.4 	"/>
	<path class="st0" d="M581.9,33.4c-9.2-9.2-13.8-21.3-13.8-33.4"/>
	<path class="st0" d="M581.9,33.4c18.4-18.4,48.3-18.4,66.7,0"/>
	<polyline class="st0" points="648.7,33.4 648.7,33.4 615.3,0 	"/>
	<path class="st0" d="M634.8,0c0,12.1,4.6,24.2,13.8,33.4l0,0L682,0"/>
	<path class="st0" d="M581.9,181.8c18.2-18.2,18.4-47.5,0.7-66l-0.7-0.7"/>
	<path class="st0" d="M581.9,115.1c-18.4,18.4-18.4,48.3,0,66.7"/>
	<path class="st0" d="M581.9,181.8L581.9,181.8l33.4,33.4c18.4-18.4,18.4-48.3,0-66.7l0,0"/>
	<polyline class="st0" points="581.9,115.1 548.5,148.4 581.9,181.8 	"/>
	<path class="st0" d="M581.9,115.1L581.9,115.1l33.4-33.4c-18.2,18.2-18.4,47.5-0.7,66l0.7,0.7"/>
	<path class="st0" d="M615.3,148.4c18.4,18.4,48.3,18.4,66.7,0l-33.4-33.4l0,0l-33.4-33.4C633.7,100.1,633.7,130,615.3,148.4
		L615.3,148.4"/>
	<path class="st0" d="M648.7,627.1c-18.4,18.4-48.3,18.4-66.7,0"/>
	<polyline class="st0" points="648.7,627.1 615.3,660.5 581.9,627.1 	"/>
	<polyline class="st0" points="648.7,627.1 648.7,627.1 615.3,593.7 615.3,593.7 581.9,560.3 	"/>
	<path class="st0" d="M581.9,560.3c-18.4,18.4-18.4,48.3,0,66.7"/>
	<path class="st0" d="M648.7,627.1c-18.4-18.4-48.3-18.4-66.7,0"/>
	<path class="st0" d="M581.9,560.3c18.4,18.4,48.3,18.4,66.7,0l0,0L615.3,527L581.9,560.3"/>
	<path class="st0" d="M682,593.7l-33.4-33.4c-18.4,18.4-18.4,48.3,0,66.7l0,0L682,593.7z"/>
	<path class="st0" d="M109.8,108.8l33.4-33.4l-33.4-33.4L76.4,8.7C58,27.2,58,57,76.4,75.5L43.1,42.1c-18.4,18.4-18.4,48.3,0,66.7
		l0,0C61.5,90.4,91.4,90.4,109.8,108.8"/>
	<path class="st0" d="M109.8,108.8c18.4-18.4,18.4-48.3,0-66.7C91.4,60.5,91.4,90.4,109.8,108.8"/>
	<line class="st0" x1="41.4" y1="338.9" x2="74.3" y2="371.9"/>
	<path class="st0" d="M75,372.6c-0.1-0.1-0.2-0.2-0.3-0.3l0,0l-0.5-0.5"/>
	<path class="st0" d="M108.1,339c-18.4,18.4-48.3,18.4-66.7,0"/>
	<path class="st0" d="M75,372.6c18.4,18.2,48.1,18.1,66.5-0.3L108.1,339l0,0"/>
	<path class="st0" d="M75,372.6c-0.1-0.1-0.2-0.2-0.2-0.3c0,0,0,0,0,0c0,0,0,0,0,0c-0.2-0.2-0.3-0.3-0.5-0.5"/>
	<path class="st0" d="M75,372.6c18.2,18.4,18.1,48.1-0.3,66.5l0,0l-33.4-33.4l0,0L8,372.3c18.3-18.3,47.8-18.4,66.3-0.5"/>
	<polyline class="st0" points="108.1,339 74.8,305.6 41.4,338.9 	"/>
	<path class="st0" d="M108.1,339c-18.4-18.4-48.3-18.4-66.7,0"/>
	<path class="st0" d="M39.7,702.6c18.4,18.4,48.3,18.4,66.7,0l0,0c-18.4-18.4-18.4-48.3,0-66.7l-33.4,33.4L39.7,702.6"/>
	<path class="st0" d="M39.7,702.6c18.4-18.4,18.4-48.3,0-66.7l0,0L6.4,669.2L39.7,702.6"/>
	<path class="st0" d="M106.5,635.8l-33.4-33.4l-33.4,33.4C58.2,654.2,88.1,654.2,106.5,635.8z"/>
	<path class="st0" d="M40.6,487.4c-18.4,18.4-18.4,48.3,0,66.7l0.3-0.3c17.9-18.3,18-47.5,0.2-65.9L40.6,487.4"/>
	<path class="st0" d="M40.6,487.4L7.2,520.7l33.4,33.4l0,0c18.4,18.4,48.3,18.4,66.7,0"/>
	<path class="st0" d="M40.6,487.4L40.6,487.4L73.9,454c18.4,18.4,18.4,48.3,0,66.7l0,0l0,0l33.4,33.4"/>
	<path class="st0" d="M107.3,554.1l33.4-33.4l-33.4-33.4C88.9,505.8,88.9,535.7,107.3,554.1"/>
	<line class="st0" x1="75.6" y1="223.9" x2="42.2" y2="190.5"/>
	<line class="st0" x1="109" y1="257.3" x2="75.6" y2="223.9"/>
	<path class="st0" d="M109,257.3l-33.4,33.4l-33.4-33.4l0,0c-18.4-18.4-18.4-48.3,0-66.7"/>
	<path class="st0" d="M75.6,223.9l-33.4,33.4c18.4,18.4,48.3,18.4,66.7,0"/>
	<line class="st0" x1="75.6" y1="223.9" x2="109" y2="190.5"/>
	<path class="st0" d="M109,257.3L109,257.3c18.4-18.4,18.4-48.3,0-66.7"/>
	<polyline class="st0" points="42.2,190.5 75.6,157.1 109,190.5 	"/>
	<path class="st0" d="M42.2,190.5c18.4,18.4,48.3,18.4,66.7,0"/>
	<path class="st0" d="M229.5,519.9c18.4-18.4,18.4-48.3,0-66.7l-33.4,33.4l0,0l-33.4,33.4l33.4,33.4"/>
	<path class="st0" d="M229.5,519.9l-33.3-33.3c18.4,18.4,18.4,48.3-0.1,66.7"/>
	<polyline class="st0" points="262.8,553.3 229.5,519.9 229.5,519.9 	"/>
	<line class="st0" x1="229.5" y1="519.9" x2="196.1" y2="553.3"/>
	<path class="st0" d="M262.8,553.3c-18.4,18.4-48.3,18.4-66.7,0"/>
	<path class="st0" d="M262.8,553.3l33.4-33.4l-33.4-33.4C244.4,505,244.4,534.9,262.8,553.3"/>
	<polyline class="st0" points="262.8,256.4 296.2,223.1 262.8,189.7 	"/>
	<path class="st0" d="M262.8,189.7c-18.4,18.4-18.4,48.3,0,66.7"/>
	<line class="st0" x1="196.1" y1="189.7" x2="229.5" y2="223.1"/>
	<path class="st0" d="M196.1,189.7c18.4-18.4,48.3-18.4,66.7,0"/>
	<line class="st0" x1="229.5" y1="223.1" x2="262.8" y2="189.7"/>
	<path class="st0" d="M229.5,223.1c-18.4,18.4-18.4,48.3,0,66.7l33.4-33.4"/>
	<line class="st0" x1="229.5" y1="223.1" x2="262.8" y2="256.4"/>
	<path class="st0" d="M196.1,189.7l-33.4,33.4l33.4,33.4l0,0C214.5,238,214.5,208.1,196.1,189.7"/>
	<path class="st0" d="M196.1,338.1c-18.4,18.4-18.4,48.3,0,66.7"/>
	<polyline class="st0" points="196.1,338.1 162.7,371.5 196.1,404.9 	"/>
	<polyline class="st0" points="262.8,404.9 229.5,438.2 196.1,404.9 	"/>
	<path class="st0" d="M262.8,404.9c-18.4-18.4-48.3-18.4-66.7,0"/>
	<path class="st0" d="M229.5,371.5c18.4-18.4,18.4-48.3,0-66.7l-33.4,33.4"/>
	<line class="st0" x1="196.1" y1="404.9" x2="196.1" y2="404.9"/>
	<path class="st0" d="M196.1,404.9c18.4-18.4,18.4-48.3,0-66.7"/>
	<line class="st0" x1="229.5" y1="371.5" x2="196.1" y2="404.9"/>
	<line class="st0" x1="262.8" y1="404.9" x2="229.5" y2="371.5"/>
	<path class="st0" d="M262.8,404.9l33.4-33.4c-18.4-18.4-48.3-18.4-66.7,0"/>
	<path class="st0" d="M196.1,41.3c-18.4,18.4-18.4,48.3,0,66.7"/>
	<polyline class="st0" points="196.1,41.3 162.7,74.6 196.1,108 	"/>
	<path class="st0" d="M196.1,108c18.4-18.4,18.4-48.3,0-66.7"/>
	<polyline class="st0" points="196.1,41.3 229.5,74.6 262.8,108 	"/>
	<path class="st0" d="M196.1,108c18.4,18.4,48.3,18.4,66.7,0"/>
	<path class="st0" d="M262.8,41.3L229.5,7.9l-33.4,33.4C214.5,59.7,244.4,59.7,262.8,41.3"/>
	<polyline class="st0" points="262.8,108 296.2,74.6 262.8,41.3 	"/>
	<path class="st0" d="M262.8,41.3c-18.4,18.4-18.4,48.3,0,66.7"/>
	<path class="st0" d="M196.1,635c-18.4,18.4-18.4,48.3,0,66.7"/>
	<polyline class="st0" points="196.1,635 162.7,668.3 196.1,701.7 	"/>
	<path class="st0" d="M196.1,701.7c18.4-18.4,18.4-48.3,0-66.7"/>
	<polyline class="st0" points="262.8,701.7 229.5,668.3 196.1,635 	"/>
	<path class="st0" d="M262.8,701.7c-18.4,18.4-48.3,18.4-66.7,0"/>
	<path class="st0" d="M262.8,635l-33.4-33.4L196.1,635C214.5,653.4,244.4,653.4,262.8,635"/>
	<polyline class="st0" points="262.8,701.7 296.2,668.3 262.8,635 	"/>
	<path class="st0" d="M262.8,635c-18.4,18.4-18.4,48.3,0,66.7"/>
	<polyline class="st0" points="118.7,479.5 152.1,512.9 185.5,479.5 	"/>
	<path class="st0" d="M118.7,479.5c18.4,18.4,48.3,18.4,66.7,0"/>
	<path class="st0" d="M118.7,412.8c-18.4,18.4-18.4,48.3,0,66.7"/>
	<polyline class="st0" points="118.7,412.8 85.4,446.1 118.7,479.5 	"/>
	<path class="st0" d="M118.7,412.8c18.4,18.4,18.4,48.3,0,66.7"/>
	<line class="st0" x1="118.7" y1="479.5" x2="118.7" y2="479.5"/>
	<path class="st0" d="M118.7,412.8L118.7,412.8c18.4-18.4,48.3-18.4,66.7,0l-33.4,33.4c18.4-18.4,48.3-18.4,66.7,0l-33.4,33.4"/>
	<path class="st0" d="M118.7,479.5c18.4-18.4,48.3-18.4,66.7,0"/>
	<line class="st0" x1="120.4" y1="115.9" x2="153.8" y2="149.3"/>
	<line class="st0" x1="187.1" y1="182.6" x2="153.8" y2="149.3"/>
	<line class="st0" x1="187.2" y1="115.9" x2="153.8" y2="149.3"/>
	<path class="st0" d="M153.8,149.3l-33.4,33.4c18.4,18.4,48.3,18.4,66.7,0"/>
	<path class="st0" d="M120.4,115.9c-18.4,18.4-18.4,48.3,0,66.7l0,0l33.4,33.4l33.4-33.4"/>
	<path class="st0" d="M187.1,182.6L187.1,182.6c18.4-18.4,18.4-48.3,0-66.7"/>
	<path class="st0" d="M120.4,115.9c18.4,18.4,48.3,18.4,66.7,0"/>
	<polyline class="st0" points="120.4,115.9 153.8,82.5 187.2,115.9 	"/>
	<path class="st0" d="M117.9,627.9c18.4,18.4,48.3,18.4,66.7,0l-33.4-33.4"/>
	<path class="st0" d="M117.9,627.9l33.4,33.4l33.4-33.4l0,0c18.4-18.4,18.4-48.3,0-66.7"/>
	<path class="st0" d="M117.9,561.2c-18.4,18.4-18.4,48.3,0,66.7l0,0"/>
	<line class="st0" x1="151.3" y1="594.6" x2="184.6" y2="561.2"/>
	<line class="st0" x1="117.9" y1="627.9" x2="151.3" y2="594.6"/>
	<line class="st0" x1="117.9" y1="561.2" x2="151.3" y2="594.6"/>
	<polyline class="st0" points="117.9,561.2 151.3,527.8 184.6,561.2 	"/>
	<path class="st0" d="M117.9,561.2c18.4,18.4,48.3,18.4,66.7,0"/>
	<polyline class="st0" points="121.2,34.2 87.9,0.8 88.7,0 	"/>
	<path class="st0" d="M121.2,34.2c-9.4-9.4-14-21.9-13.8-34.2"/>
	<polyline class="st0" points="121.2,34.2 154.6,67.6 188,34.2 	"/>
	<path class="st0" d="M121.2,34.2c18.4,18.4,48.3,18.4,66.7,0"/>
	<path class="st0" d="M121.2,34.2c9.4-9.4,14-21.9,13.8-34.2"/>
	<path class="st0" d="M188,34.2L188,34.2c9.4-9.4,14-21.9,13.8-34.2"/>
	<path class="st0" d="M121.2,34.2c18.4-18.4,48.3-18.4,66.7,0"/>
	<path class="st0" d="M155.4,0c-0.3,0.3-0.5,0.6-0.8,0.8l0,0L155.4,0"/>
	<polyline class="st0" points="186.3,331.1 152.9,364.4 119.6,331.1 	"/>
	<path class="st0" d="M186.3,331.1c-18.4-18.4-48.3-18.4-66.7,0"/>
	<line class="st0" x1="186.3" y1="331.1" x2="152.9" y2="297.7"/>
	<line class="st0" x1="186.3" y1="264.3" x2="152.9" y2="297.7"/>
	<path class="st0" d="M186.3,331.1c18.4-18.4,18.4-48.3,0-66.7"/>
	<path class="st0" d="M186.3,264.3l-33.4-33.4l-33.4,33.4c-18.4,18.4-18.4,48.3,0,66.7"/>
	<path class="st0" d="M186.3,264.3c-18.4,18.4-48.3,18.4-66.7,0l33.4,33.4"/>
	<line class="st0" x1="119.6" y1="331.1" x2="152.9" y2="297.7"/>
	<path class="st0" d="M341,263.5c-18.4-18.4-48.3-18.4-66.7,0"/>
	<polyline class="st0" points="341,263.5 307.6,230.1 274.3,263.5 	"/>
	<path class="st0" d="M341,263.5c-18.4,18.4-18.4,48.3,0,66.7"/>
	<polyline class="st0" points="341,330.2 374.4,296.9 341,263.5 	"/>
	<path class="st0" d="M274.3,263.5l-33.4,33.4c18.4,18.4,48.3,18.4,66.7,0"/>
	<path class="st0" d="M341,263.5c-18.4,18.4-48.3,18.4-66.7,0"/>
	<line class="st0" x1="307.6" y1="296.9" x2="341" y2="263.5"/>
	<path class="st0" d="M307.6,296.9c-18.4,18.4-18.4,48.3,0,66.7l33.4-33.4"/>
	<line class="st0" x1="307.6" y1="296.9" x2="341" y2="330.2"/>
	<path class="st0" d="M274.3,478.7l33.4,33.4l33.4-33.4C322.6,460.2,292.7,460.2,274.3,478.7"/>
	<path class="st0" d="M341,411.9l-33.4-33.4l-33.4,33.4C292.7,430.3,322.6,430.3,341,411.9z"/>
	<path class="st0" d="M274.3,478.7l33.4-33.4l-33.4-33.4C255.8,430.3,255.8,460.2,274.3,478.7L274.3,478.7"/>
	<path class="st0" d="M341,411.9c-18.4,18.4-18.4,48.3,0,66.7"/>
	<polyline class="st0" points="341,411.9 307.7,445.3 341,478.7 	"/>
	<path class="st0" d="M341,411.9c18.4,18.4,18.4,48.3,0,66.7"/>
	<polyline class="st0" points="341,411.9 374.4,445.3 341,478.7 	"/>
	<polyline class="st0" points="274.3,33.4 307.6,66.7 341,33.4 	"/>
	<path class="st0" d="M274.3,33.4c18.4,18.4,48.3,18.4,66.7,0"/>
	<polyline class="st0" points="341,33.4 341,33.4 307.7,0 	"/>
	<path class="st0" d="M274.3,33.4c18.4-18.4,48.3-18.4,66.7,0"/>
	<path class="st0" d="M274.3,33.4c-9.2-9.2-13.8-21.3-13.8-33.4"/>
	<path class="st0" d="M327.2,0c0,12.1,4.6,24.2,13.8,33.4l0,0L374.4,0"/>
	<path class="st0" d="M274.3,115.1L274.3,115.1l33.4-33.4c-18.2,18.2-18.4,47.5-0.7,66l0.7,0.7"/>
	<path class="st0" d="M274.3,181.8L274.3,181.8l33.4,33.4c18.4-18.4,18.4-48.3,0-66.7l0,0"/>
	<path class="st0" d="M274.3,181.8c18.2-18.2,18.4-47.5,0.7-66l-0.7-0.7"/>
	<polyline class="st0" points="274.3,115.1 240.9,148.4 274.3,181.8 	"/>
	<path class="st0" d="M274.3,115.1c-18.4,18.4-18.4,48.3,0,66.7"/>
	<path class="st0" d="M307.6,148.4c18.4,18.4,48.3,18.4,66.7,0L341,115.1l0,0l-33.4-33.4C326.1,100.1,326.1,130,307.6,148.4
		L307.6,148.4"/>
	<polyline class="st0" points="341,627.1 307.6,660.5 274.3,627.1 	"/>
	<path class="st0" d="M341,627.1c-18.4,18.4-48.3,18.4-66.7,0"/>
	<path class="st0" d="M274.3,560.3c-18.4,18.4-18.4,48.3,0,66.7"/>
	<path class="st0" d="M341,627.1c-18.4-18.4-48.3-18.4-66.7,0"/>
	<polyline class="st0" points="341,627.1 341,627.1 307.6,593.7 307.6,593.7 274.3,560.3 	"/>
	<path class="st0" d="M274.3,560.3c18.4,18.4,48.3,18.4,66.7,0l0,0L307.6,527L274.3,560.3"/>
	<path class="st0" d="M374.4,593.7L341,560.3c-18.4,18.4-18.4,48.3,0,66.7l0,0L374.4,593.7z"/>
	<polyline class="st0" points="33.4,263.5 0,230.1 0,230.1 	"/>
	<path class="st0" d="M33.4,263.5c-9.2-9.2-21.3-13.8-33.4-13.8"/>
	<polyline class="st0" points="33.4,263.5 66.8,296.9 33.4,330.2 	"/>
	<path class="st0" d="M33.4,263.5c-18.4,18.4-18.4,48.3,0,66.7"/>
	<path class="st0" d="M33.4,263.5c-9.2,9.2-21.3,13.8-33.4,13.8"/>
	<line class="st0" x1="0" y1="296.9" x2="0" y2="296.9"/>
	<line class="st0" x1="33.4" y1="263.5" x2="0" y2="296.9"/>
	<line class="st0" x1="0" y1="296.9" x2="33.4" y2="330.2"/>
	<polyline class="st0" points="0,363.6 0,363.6 33.4,330.2 	"/>
	<line class="st0" x1="0" y1="296.9" x2="0" y2="296.9"/>
	<path class="st0" d="M0,512l33.4-33.4c-9.2-9.2-21.3-13.8-33.4-13.8"/>
	<path class="st0" d="M0,425.7c12.1,0,24.2-4.6,33.4-13.8L0,378.5l0,0"/>
	<path class="st0" d="M33.4,478.7c-18.4-18.4-18.4-48.3,0-66.7"/>
	<polyline class="st0" points="33.4,478.7 0,445.3 33.4,411.9 	"/>
	<path class="st0" d="M33.4,478.7c18.4-18.4,18.4-48.3,0-66.7"/>
	<polyline class="st0" points="33.4,478.7 66.8,445.3 33.4,411.9 	"/>
	<polyline class="st0" points="33.4,33.4 0,66.7 0,66.7 	"/>
	<path class="st0" d="M33.4,33.4C24.2,42.6,12.1,47.2,0,47.2"/>
	<polyline class="st0" points="33.4,33.4 33.4,33.4 0,0 	"/>
	<path class="st0" d="M33.4,33.4C24.2,24.1,12.1,19.5,0,19.5"/>
	<path class="st0" d="M19.6,0c0,12.1,4.6,24.2,13.8,33.4l0,0L66.8,0"/>
	<line class="st0" x1="1044.2" y1="710.4" x2="1011.5" y2="743"/>
	<path class="st0" d="M1044.2,710.4c-9,9-13.6,20.8-13.8,32.6"/>
	<path class="st0" d="M1044.2,710.4c9,9,13.6,20.8,13.8,32.6"/>
	<path class="st0" d="M1078.3,743c17.7-18.5,17.5-47.8-0.7-66l-33.4,33.4"/>
	<path class="st0" d="M1124.7,743c-0.2-11.8-4.8-23.6-13.8-32.6l-32.6,32.6"/>
	<path class="st0" d="M1078.3,743c-0.2,0.3-0.5,0.5-0.7,0.8l0,0L1078.3,743"/>
	<line class="st0" x1="1197.2" y1="709.6" x2="1230.6" y2="743"/>
	<path class="st0" d="M1197.2,709.6c-9.2,9.2-13.8,21.3-13.8,33.5"/>
	<path class="st0" d="M1197.2,709.6c9.2,9.2,21.3,13.8,33.4,13.8"/>
	<line class="st0" x1="1197.2" y1="709.6" x2="1230.6" y2="676.2"/>
	<line class="st0" x1="736.5" y1="710.4" x2="703.9" y2="743"/>
	<path class="st0" d="M736.5,710.4c-9,9-13.6,20.8-13.8,32.6"/>
	<path class="st0" d="M736.5,710.4c9,9,13.6,20.8,13.8,32.6"/>
	<path class="st0" d="M817.1,743c-0.2-11.8-4.8-23.6-13.8-32.6L770.7,743"/>
	<path class="st0" d="M770.6,743c-0.2,0.3-0.5,0.5-0.7,0.8l0,0L770.6,743"/>
	<path class="st0" d="M770.6,743c17.7-18.5,17.5-47.8-0.7-66l-33.4,33.4"/>
	<polyline class="st0" points="923,743 922.9,743 922.9,743 889.5,709.6 	"/>
	<path class="st0" d="M889.5,709.6c-9.2,9.2-13.8,21.3-13.8,33.5"/>
	<path class="st0" d="M889.5,709.6c18.4,18.4,48.3,18.4,66.7,0l0,0l-33.4-33.4L889.5,709.6"/>
	<path class="st0" d="M942.5,743c0-12.1,4.6-24.2,13.8-33.4l33.4,33.4l-0.1,0.1"/>
	<line class="st0" x1="428.9" y1="710.4" x2="396.3" y2="743"/>
	<path class="st0" d="M428.9,710.4c-9,9-13.6,20.8-13.8,32.6"/>
	<path class="st0" d="M463,743c-0.2,0.3-0.5,0.5-0.7,0.8l0,0L463,743"/>
	<path class="st0" d="M509.4,743c-0.2-11.8-4.8-23.6-13.8-32.6L463,743"/>
	<path class="st0" d="M463,743c17.7-18.5,17.5-47.8-0.7-66l-33.4,33.4"/>
	<path class="st0" d="M428.9,710.4c9,9,13.6,20.8,13.8,32.6"/>
	<path class="st0" d="M581.9,709.6c-9.2,9.2-13.8,21.3-13.8,33.5"/>
	<polyline class="st0" points="615.4,743 615.3,743 615.3,743 581.9,709.6 	"/>
	<path class="st0" d="M581.9,709.6c18.4,18.4,48.3,18.4,66.7,0l0,0l-33.4-33.4L581.9,709.6"/>
	<path class="st0" d="M634.8,743c0-12.1,4.6-24.2,13.8-33.4L682,743L682,743"/>
	<path class="st0" d="M121.2,710.4c-9,9-13.6,20.8-13.8,32.6"/>
	<line class="st0" x1="121.2" y1="710.4" x2="88.6" y2="743"/>
	<path class="st0" d="M201.8,743c-0.2-11.8-4.8-23.6-13.8-32.6L155.4,743"/>
	<path class="st0" d="M155.3,743c17.7-18.5,17.5-47.8-0.7-66l-33.4,33.4"/>
	<path class="st0" d="M121.2,710.4c9,9,13.6,20.8,13.8,32.6"/>
	<polyline class="st0" points="307.7,743 307.6,743 307.6,743 274.3,709.6 	"/>
	<path class="st0" d="M274.3,709.6c-9.2,9.2-13.8,21.3-13.8,33.5"/>
	<path class="st0" d="M274.3,709.6c18.4,18.4,48.3,18.4,66.7,0l0,0l-33.4-33.4L274.3,709.6"/>
	<path class="st0" d="M327.2,743c0-12.1,4.6-24.2,13.8-33.4l33.4,33.4l-0.1,0.1"/>
	<polyline class="st0" points="0.1,743 0,743 0,743 0,743 	"/>
	<path class="st0" d="M0,723.4c12.1,0,24.2-4.6,33.4-13.8l0,0L0,676.2l0,0"/>
	<path class="st0" d="M19.6,743c0-12.1,4.6-24.2,13.8-33.4L66.8,743l-0.1,0.1"/>
	<line class="st0" x1="0" y1="148.4" x2="0" y2="148.4"/>
	<path class="st0" d="M0,215.2L0,215.2c18.4-18.4,18.4-48.3,0-66.7l0,0"/>
	<path class="st0" d="M0,148.4c18.4,18.4,48.3,18.4,66.7,0l-33.4-33.4l0,0L0,81.7C18.4,100.1,18.4,130,0,148.4L0,148.4"/>
	<polyline class="st0" points="33.4,627.1 0,660.5 0,660.5 	"/>
	<path class="st0" d="M33.4,627.1c-9.2,9.2-21.3,13.8-33.4,13.8"/>
	<polyline class="st0" points="33.4,627.1 33.4,627.1 0,593.7 0,593.7 0,593.7 	"/>
	<path class="st0" d="M33.4,627.1c-9.2-9.2-21.3-13.8-33.4-13.8"/>
	<path class="st0" d="M0,574.2c12.1,0,24.2-4.6,33.4-13.8l0,0L0,527l0,0"/>
	<path class="st0" d="M66.8,593.7l-33.4-33.4c-18.4,18.4-18.4,48.3,0,66.7l0,0L66.8,593.7z"/>
	<line class="st0" x1="770.6" y1="743" x2="770.7" y2="743"/>
	<path class="st0" d="M88.6,743"/>
	<path class="st0" d="M107.4,743"/>
	<path class="st0" d="M0.1,743"/>
	<path class="st0" d="M19.6,743"/>
	<path class="st0" d="M923,743"/>
	<path class="st0" d="M942.5,743"/>
	<path class="st0" d="M135,743"/>
	<path class="st0" d="M107.4,743"/>
	<path class="st0" d="M1230.6,66.7"/>
	<path class="st0" d="M1230.6,47.2"/>
	<path class="st0" d="M875.7,743"/>
	<path class="st0" d="M817.1,743"/>
	<path class="st0" d="M135,743"/>
	<path class="st0" d="M155.3,743"/>
	<path class="st0" d="M1230.6,19.5"/>
	<path class="st0" d="M1230.6,0"/>
	<path class="st0" d="M1183.4,0"/>
	<line class="st0" x1="1078.3" y1="0" x2="1078.4" y2="0"/>
	<path class="st0" d="M1058,0"/>
	<path class="st0" d="M1078.3,0"/>
	<path class="st0" d="M1078.4,0"/>
	<path class="st0" d="M1124.7,0"/>
	<path class="st0" d="M396.3,743"/>
	<path class="st0" d="M415.1,743"/>
	<path class="st0" d="M568.1,743"/>
	<path class="st0" d="M509.4,743"/>
	<path class="st0" d="M260.4,743"/>
	<path class="st0" d="M201.8,743"/>
	<path class="st0" d="M307.7,743"/>
	<path class="st0" d="M327.2,743"/>
	<path class="st0" d="M396.3,743"/>
	<path class="st0" d="M374.3,743"/>
	<path class="st0" d="M88.6,743"/>
	<path class="st0" d="M66.7,743"/>
	<path class="st0" d="M442.7,743"/>
	<path class="st0" d="M415.1,743"/>
	<path class="st0" d="M463,743"/>
	<path class="st0" d="M509.4,743"/>
	<line class="st0" x1="463" y1="743" x2="463" y2="743"/>
	<path class="st0" d="M703.9,743"/>
	<path class="st0" d="M722.7,743"/>
	<path class="st0" d="M615.4,743"/>
	<path class="st0" d="M634.8,743"/>
	<path class="st0" d="M1058,0"/>
	<path class="st0" d="M1030.4,0"/>
	<line class="st0" x1="155.4" y1="0" x2="155.5" y2="0"/>
	<path class="st0" d="M770.7,743"/>
	<path class="st0" d="M817.1,743"/>
	<path class="st0" d="M442.7,743"/>
	<path class="st0" d="M463,743"/>
	<path class="st0" d="M155.4,743"/>
	<path class="st0" d="M201.8,743"/>
	<line class="st0" x1="155.3" y1="743" x2="155.4" y2="743"/>
	<path class="st0" d="M66.7,743"/>
	<path class="st0" d="M19.6,743"/>
	<path class="st0" d="M750.3,743"/>
	<path class="st0" d="M722.7,743"/>
	<path class="st0" d="M703.9,743"/>
	<path class="st0" d="M682,743"/>
	<path class="st0" d="M750.3,743"/>
	<path class="st0" d="M770.6,743"/>
	<path class="st0" d="M1011.6,0"/>
	<path class="st0" d="M1030.4,0"/>
	<path class="st0" d="M1230.6,277.3"/>
	<path class="st0" d="M1230.6,249.7"/>
	<path class="st0" d="M1230.6,296.9"/>
	<path class="st0" d="M1230.6,277.3"/>
	<path class="st0" d="M66.8,0"/>
	<path class="st0" d="M19.6,0"/>
	<path class="st0" d="M1183.4,0"/>
	<path class="st0" d="M1124.7,0"/>
	<path class="st0" d="M1011.5,743"/>
	<path class="st0" d="M1030.4,743"/>
	<path class="st0" d="M1230.6,215.2"/>
	<path class="st0" d="M1230.6,148.4"/>
	<path class="st0" d="M1230.6,593.7"/>
	<path class="st0" d="M1230.6,574.2"/>
	<path class="st0" d="M1230.6,593.7"/>
	<path class="st0" d="M1230.6,613.3"/>
	<path class="st0" d="M1230.6,640.9"/>
	<path class="st0" d="M1230.6,660.5"/>
	<path class="st0" d="M1230.6,296.9"/>
	<path class="st0" d="M1230.6,363.6"/>
	<path class="st0" d="M1230.6,676.2"/>
	<path class="st0" d="M1230.6,723.4"/>
	<path class="st0" d="M1230.6,574.2"/>
	<path class="st0" d="M1230.6,527"/>
	<path class="st0" d="M0,378.5"/>
	<path class="st0" d="M0,425.7"/>
	<path class="st0" d="M1230.6,19.5"/>
	<path class="st0" d="M1230.6,47.2"/>
	<path class="st0" d="M0,249.7"/>
	<path class="st0" d="M0,277.3"/>
	<path class="st0" d="M0,277.3"/>
	<path class="st0" d="M0,296.9"/>
	<path class="st0" d="M0,215.2"/>
	<path class="st0" d="M0,230.1"/>
	<path class="st0" d="M0,464.8"/>
	<path class="st0" d="M0,425.7"/>
	<path class="st0" d="M0,574.2"/>
	<path class="st0" d="M0,527"/>
	<path class="st0" d="M0,613.3"/>
	<path class="st0" d="M0,593.7"/>
	<path class="st0" d="M0,512"/>
	<path class="st0" d="M0,464.8"/>
	<path class="st0" d="M0,660.5"/>
	<path class="st0" d="M0,640.9"/>
	<polyline class="st0" points="0.1,743 0,743 0,743 	"/>
	<path class="st0" d="M1230.6,640.9"/>
	<path class="st0" d="M1230.6,613.3"/>
	<path class="st0" d="M1230.6,723.4"/>
	<path class="st0" d="M1230.6,743"/>
	<path class="st0" d="M0,723.4"/>
	<path class="st0" d="M0,743"/>
	<path class="st0" d="M0,723.4"/>
	<path class="st0" d="M0,676.2"/>
	<path class="st0" d="M0,363.6"/>
	<path class="st0" d="M0,378.5"/>
	<path class="st0" d="M0,574.2"/>
	<path class="st0" d="M0,593.7"/>
	<path class="st0" d="M0,660.5"/>
	<path class="st0" d="M0,676.2"/>
	<path class="st0" d="M0,613.3"/>
	<path class="st0" d="M0,640.9"/>
	<path class="st0" d="M0,527"/>
	<path class="st0" d="M0,512"/>
	<path class="st0" d="M0,249.7"/>
	<path class="st0" d="M0,230.1"/>
	<line class="st0" x1="0" y1="296.9" x2="0" y2="296.9"/>
	<path class="st0" d="M1230.6,676.2"/>
	<path class="st0" d="M1230.6,660.5"/>
	<path class="st0" d="M0,296.9"/>
	<path class="st0" d="M0,363.6"/>
	<line class="st0" x1="770.7" y1="0" x2="770.7" y2="0"/>
	<path class="st0" d="M1230.6,249.7"/>
	<path class="st0" d="M1230.6,230.1"/>
	<line class="st0" x1="1230.6" y1="296.9" x2="1230.6" y2="296.9"/>
	<path class="st0" d="M88.7,0"/>
	<path class="st0" d="M66.8,0"/>
	<path class="st0" d="M1230.6,425.7"/>
	<path class="st0" d="M1230.6,378.5"/>
	<path class="st0" d="M1230.6,464.8"/>
	<path class="st0" d="M1230.6,425.7"/>
	<path class="st0" d="M1230.6,512"/>
	<path class="st0" d="M1230.6,464.8"/>
	<path class="st0" d="M1230.6,527"/>
	<path class="st0" d="M1230.6,512"/>
	<path class="st0" d="M374.3,743"/>
	<path class="st0" d="M327.2,743"/>
	<path class="st0" d="M1230.6,215.2"/>
	<path class="st0" d="M1230.6,230.1"/>
	<path class="st0" d="M260.4,743"/>
	<path class="st0" d="M307.7,743"/>
	<path class="st0" d="M568.1,743"/>
	<path class="st0" d="M615.4,743"/>
	<path class="st0" d="M1058,743"/>
	<path class="st0" d="M1078.3,743"/>
	<path class="st0" d="M1058,743"/>
	<path class="st0" d="M1030.4,743"/>
	<path class="st0" d="M1011.5,743"/>
	<path class="st0" d="M989.6,743"/>
	<line class="st0" x1="1078.3" y1="743" x2="1078.3" y2="743"/>
	<path class="st0" d="M1183.4,743"/>
	<path class="st0" d="M1124.7,743"/>
	<path class="st0" d="M1078.3,743"/>
	<path class="st0" d="M1124.7,743"/>
	<path class="st0" d="M1230.6,378.5"/>
	<path class="st0" d="M1230.6,363.6"/>
	<path class="st0" d="M1230.6,66.7"/>
	<path class="st0" d="M1230.6,148.4"/>
	<path class="st0" d="M0,0"/>
	<path class="st0" d="M19.6,0"/>
	<path class="st0" d="M0,47.2"/>
	<path class="st0" d="M0,19.5"/>
	<line class="st0" x1="463" y1="0" x2="463.1" y2="0"/>
	<path class="st0" d="M0,19.5"/>
	<line class="st0" x1="0" y1="0" x2="0" y2="0"/>
	<path class="st0" d="M0,148.4"/>
	<path class="st0" d="M0,215.2"/>
	<path class="st0" d="M0,47.2"/>
	<path class="st0" d="M0,66.7"/>
	<path class="st0" d="M0,148.4"/>
	<path class="st0" d="M0,66.7"/>
	<path class="st0" d="M875.7,743"/>
	<path class="st0" d="M923,743"/>
	<path class="st0" d="M989.6,743"/>
	<path class="st0" d="M942.5,743"/>
	<path class="st0" d="M682,743"/>
	<path class="st0" d="M634.8,743"/>
	<path class="st0" d="M1183.4,743"/>
	<line class="st0" x1="1230.6" y1="743" x2="1230.6" y2="743"/>
</g>
<g id="Layer_2" class="st1">
	<rect class="st2" width="1230.6" height="743"/>
</g>
</svg>
