<?xml version="1.0" encoding="utf-8"?>
<!-- Generator: Adobe Illustrator 22.0.1, SVG Export Plug-In . SVG Version: 6.00 Build 0)  -->
<svg version="1.1" id="Layer_1" xmlns="http://www.w3.org/2000/svg" xmlns:xlink="http://www.w3.org/1999/xlink" x="0px" y="0px"
	 viewBox="0 0 692.7 184.7" style="enable-background:new 0 0 692.7 184.7;" xml:space="preserve">
<style type="text/css">
	.st0{fill:#FFFFFF;}
</style>
<g>
	<path class="st0" d="M45.6,150.6c-0.4-0.7-1-1.4-1.7-2c-0.7-0.7-1.7-1.3-2.9-1.8c-1.2-0.5-2.6-1-4.3-1.3c-1.7-0.3-3.7-0.5-6-0.5
		h-1.2c-2.4,0-4.5,0.2-6.2,0.5c-1.7,0.4-3.2,0.8-4.4,1.4c-1.2,0.6-2.2,1.3-2.9,2.1c-0.7,0.8-1.3,1.6-1.7,2.4
		c-0.4,0.8-0.7,1.7-0.8,2.6c-0.1,0.8-0.2,1.6-0.2,2.4v0.9c0,0.7,0.1,1.5,0.2,2.4c0.1,0.9,0.4,1.7,0.9,2.6c0.4,0.9,1,1.7,1.8,2.5
		c0.7,0.8,1.7,1.5,2.9,2.1c1.2,0.6,2.7,1.1,4.4,1.5c1.7,0.4,3.8,0.6,6.1,0.6h1.2c2.3,0,4.3-0.2,6-0.5c1.7-0.3,3.1-0.8,4.3-1.3
		c1.2-0.5,2.1-1.1,2.9-1.8c0.7-0.7,1.3-1.4,1.7-2.1c0.4-0.7,0.7-1.4,0.9-2.1c0.1-0.7,0.2-1.3,0.2-1.8v-0.5h-9.1
		c0,0.1-0.1,0.2-0.1,0.5c-0.1,0.2-0.2,0.5-0.4,0.8c-0.2,0.3-0.4,0.6-0.8,0.9c-0.3,0.3-0.8,0.6-1.3,0.8c-0.6,0.2-1.2,0.5-2,0.6
		c-0.8,0.2-1.8,0.2-2.9,0.2c-1.5,0-2.8-0.2-3.8-0.5c-1-0.4-1.8-0.8-2.4-1.4c-0.6-0.6-1-1.2-1.2-1.9c-0.2-0.7-0.3-1.3-0.3-1.9v-0.4
		c0-0.6,0.1-1.3,0.3-1.9c0.2-0.6,0.6-1.2,1.2-1.7c0.6-0.5,1.3-0.9,2.4-1.3c1-0.3,2.3-0.5,3.9-0.5c1.7,0,3,0.2,4,0.5
		c1,0.3,1.7,0.7,2.3,1.1c0.5,0.4,0.9,0.8,1,1.2c0.2,0.4,0.3,0.7,0.3,0.8h9.1v-0.4c0-0.5-0.1-1.1-0.2-1.7
		C46.3,151.9,46,151.3,45.6,150.6z"/>
	<rect x="71" y="145.4" class="st0" width="8.8" height="23"/>
	<polygon class="st0" points="128.2,158.5 114.8,145.4 105,145.4 105,168.4 113.7,168.4 113.7,154.5 128.1,168.4 136.9,168.4 
		136.9,145.4 128.2,145.4 	"/>
	<polygon class="st0" points="170.8,159.6 187.3,159.6 187.3,153.9 170.8,153.9 170.8,151 187.6,151 187.6,145.4 162.1,145.4 
		162.1,168.4 187.8,168.4 187.8,162.7 170.8,162.7 	"/>
	<polygon class="st0" points="232.9,158.3 225.8,145.4 213.8,145.4 213.8,168.4 222.3,168.4 222.3,154.1 230.4,168.4 234.9,168.4 
		242.9,154.1 242.9,168.4 251.6,168.4 251.6,145.4 240.1,145.4 	"/>
	<path class="st0" d="M286.2,145.4l-11.4,23h8.9l1.8-3.7h13.1l1.8,3.7h9.6l-12-23H286.2z M288.2,159l3.8-7.9l3.9,7.9H288.2z"/>
	<path class="st0" d="M364,165.7v-3.4c0-1.5-0.4-2.7-1.3-3.6c-0.9-0.9-2-1.5-3.4-1.9c0.4-0.1,0.9-0.3,1.5-0.5c0.5-0.2,1-0.6,1.5-1
		c0.5-0.4,0.9-0.9,1.2-1.5c0.3-0.6,0.5-1.3,0.5-2.2v-0.3c0-1.9-0.8-3.3-2.3-4.4c-1.5-1-4-1.6-7.4-1.6h-20.9v23h8.8v-7.8h8.4
		c1.7,0,2.9,0.3,3.6,1c0.7,0.7,1,1.7,1,3v2.7c0,0.3,0,0.6,0.1,0.7c0,0.2,0.1,0.3,0.2,0.4h9v-0.2c-0.1-0.2-0.2-0.5-0.3-0.8
		S364,166.5,364,165.7z M354.9,153c0,0.6-0.2,1-0.6,1.4c-0.4,0.4-1.1,0.6-2.1,0.6h-10.1V151h10.1c1,0,1.7,0.2,2.1,0.6
		C354.7,152,354.9,152.5,354.9,153L354.9,153z"/>
	<polygon class="st0" points="419.7,145.4 408.8,145.4 397.5,154.5 397.5,145.4 388.7,145.4 388.7,168.4 397.5,168.4 397.5,158.1 
		408.7,168.4 420.1,168.4 406.3,155.9 	"/>
	<polygon class="st0" points="451.9,159.6 468.4,159.6 468.4,153.9 451.9,153.9 451.9,151 468.7,151 468.7,145.4 443.3,145.4 
		443.3,168.4 469,168.4 469,162.7 451.9,162.7 	"/>
	<polygon class="st0" points="492.8,151.7 502.8,151.7 502.8,168.4 511.5,168.4 511.5,151.7 521.5,151.7 521.5,145.4 492.8,145.4 	
		"/>
	<rect x="546" y="145.4" class="st0" width="8.8" height="23"/>
	<polygon class="st0" points="603.2,158.5 589.8,145.4 580,145.4 580,168.4 588.7,168.4 588.7,154.5 603.1,168.4 611.9,168.4 
		611.9,145.4 603.2,145.4 	"/>
	<path class="st0" d="M653.1,160h8.1c0,0.2-0.1,0.4-0.4,0.8c-0.3,0.3-0.7,0.6-1.3,1c-0.6,0.3-1.4,0.6-2.4,0.8
		c-1,0.2-2.2,0.3-3.7,0.3c-1.4,0-2.6-0.2-3.6-0.5c-1-0.3-1.8-0.8-2.4-1.3c-0.6-0.5-1.1-1.2-1.4-1.9c-0.3-0.7-0.4-1.4-0.4-2.2v-0.3
		c0-0.8,0.1-1.5,0.4-2.2c0.2-0.7,0.7-1.3,1.3-1.8c0.6-0.5,1.4-0.9,2.4-1.3c1-0.3,2.3-0.5,3.8-0.5c1.6,0,2.9,0.1,3.9,0.4
		c1,0.3,1.7,0.5,2.2,0.9s0.9,0.7,1,1c0.2,0.3,0.3,0.6,0.3,0.7h9.2v0c0-0.5-0.1-1.1-0.2-1.8c-0.1-0.6-0.4-1.3-0.9-2
		c-0.4-0.7-1-1.3-1.7-1.9c-0.7-0.6-1.7-1.2-2.9-1.6c-1.2-0.5-2.6-0.9-4.3-1.2c-1.7-0.3-3.7-0.4-6.1-0.4h-1.2c-2.3,0-4.2,0.2-5.9,0.5
		c-1.7,0.3-3.1,0.8-4.3,1.4c-1.2,0.6-2.2,1.2-3,2c-0.8,0.8-1.4,1.6-1.9,2.4c-0.5,0.8-0.8,1.7-0.9,2.6c-0.2,0.9-0.3,1.7-0.3,2.6v0.9
		c0,0.8,0.1,1.6,0.3,2.5c0.2,0.9,0.5,1.8,1,2.6c0.4,0.9,1.1,1.7,1.8,2.5c0.8,0.8,1.7,1.5,2.9,2c1.2,0.6,2.5,1.1,4.1,1.4
		c1.6,0.4,3.4,0.5,5.5,0.5h0.7c1.8,0,3.3-0.1,4.6-0.4c1.3-0.3,2.4-0.6,3.2-1c0.9-0.4,1.5-0.8,2-1.2c0.5-0.4,0.9-0.7,1.1-1
		c0.1,0.2,0.2,0.5,0.3,0.7c0.1,0.3,0.2,0.6,0.3,0.9c0.1,0.3,0.2,0.6,0.3,0.9c0.1,0.3,0.1,0.5,0.2,0.7h5.5v-13h-17V160z"/>
	<path class="st0" d="M340.9,12.5l-30.3,64.6c-1.4,3.1-5.8,3.1-7.3,0L273,12.5h-49.4H219h-49.4v97.5L155,80.3
		c0.9-0.6,1.7-1.2,2.5-1.9c4-3.4,6.8-7.4,8.4-11.9c1.6-4.5,2.4-9.2,2.4-14.2v-3.7c0-4.9-0.8-9.6-2.4-14c-1.6-4.4-4.3-8.3-8.3-11.5
		c-3.9-3.3-9.3-5.9-16-7.8c-6.7-1.9-15.2-2.9-25.4-2.9H11v106h54.1V92.9c0-1.9,1.5-3.4,3.4-3.4h29.6c4.6,0,8.7,2.6,10.8,6.7l11,22.3
		h49.8h4.2h49.8V32.3c0-2.4,3.2-3.1,4.2-0.9l40.9,87.2h22.4h31.6h22.4l49.7-106H340.9z M112.6,50.7c0,1.8-0.7,3.4-2,4.8
		c-1.3,1.4-3.8,2.1-7.6,2.1H67.8c-1.5,0-2.7-1.2-2.7-2.7v-8.6c0-1.5,1.2-2.7,2.7-2.7H103c3.7,0,6.2,0.7,7.6,2c1.3,1.3,2,2.9,2,4.8
		V50.7z"/>
	<path class="st0" d="M669.1,67.5c-2-3.9-5.1-7.2-9.6-9.9c-4.4-2.7-10.2-4.7-17.2-6.1c-7.1-1.4-15.8-2.3-26.1-2.6l-21.4-0.6
		c-4.1-0.1-7.5-0.3-10.1-0.6c-2.7-0.3-4.8-0.8-6.3-1.3c-1.5-0.5-2.6-1.1-3.2-1.9c-0.6-0.7-0.9-1.6-0.9-2.6v-0.3
		c0-0.9,0.2-1.6,0.6-2.4c0.4-0.7,1.1-1.3,2.3-1.8c1.1-0.5,2.7-0.8,4.7-1.1c2-0.2,4.6-0.4,7.8-0.4c3.5,0,6.3,0.3,8.4,0.9
		c2.1,0.6,3.7,1.3,4.8,2.1c1.1,0.9,1.9,1.8,2.3,2.8l0,0.1c0.6,1.6,2.1,2.7,3.9,2.7h58.9V44c0-4.6-1-8.9-3-12.9
		c-2-4-5.6-7.6-10.8-10.6c-5.2-3-12.3-5.4-21.4-7.2c-9.1-1.8-20.7-2.6-35-2.6h-18.1c-12.8,0-23.5,0.7-32.1,2.2
		c-8.6,1.5-15.5,3.6-20.7,6.4c-5.2,2.8-8.9,6.2-11.1,10.2c-2.2,4-3.3,8.5-3.3,13.4v1.3c0,4.2,0.7,8.2,2.1,12.1
		c1.4,3.9,4.1,7.4,7.9,10.4c3.8,3,9.2,5.6,16,7.6c6.8,2,15.7,3.2,26.6,3.6l22.4,0.7c4.6,0.2,8.1,0.5,10.8,1c2.6,0.5,4.6,1,5.9,1.7
		c1.3,0.7,2.2,1.4,2.5,2.3c0.3,0.9,0.5,1.7,0.5,2.6v0.4c0,0.9-0.3,1.9-0.8,2.8c-0.5,0.9-1.4,1.7-2.6,2.3c-1.2,0.7-2.9,1.2-5,1.6
		c-2.1,0.4-4.7,0.6-7.8,0.6c-3.7,0-6.7-0.4-8.9-1.1c-2.2-0.8-3.9-1.7-5.1-2.8c-1.1-1.1-1.9-2.4-2.3-3.7l0-0.1
		c-0.6-2.1-2.5-3.6-4.7-3.6h-59.2v1l-33.3-70.9h-22.4h-31.6h-22.4l-49.7,106h54l5.1-10.9c0.9-2,2.9-3.2,5-3.2h47.7
		c2.2,0,4.1,1.2,5,3.2l5.1,10.9h54l-5.1-10.9c3,2.4,7,4.6,12,6.5c5.2,2,11.6,3.6,19.2,4.8c7.6,1.2,16.8,1.8,27.5,1.8h18.7
		c15.1,0,27.4-1,36.8-3.1c9.4-2.1,16.7-4.9,22-8.3c5.3-3.5,8.9-7.4,10.8-11.8c1.9-4.4,2.9-9,2.9-13.8v-2
		C672.1,76.2,671.1,71.5,669.1,67.5z M450.7,82.4H428c-2.7,0-4.4-2.8-3.3-5.2L437.1,51c0.9-2,3.7-2,4.6,0L454,77.3
		C455.1,79.7,453.4,82.4,450.7,82.4z"/>
</g>
</svg>
