<svg xmlns="http://www.w3.org/2000/svg" viewBox="0 0 160 37.32"><defs><style>.cls-1{fill:#fff;}</style></defs><title>Asset 1</title><g id="Layer_2" data-name="Layer 2"><g id="diseño"><path class="cls-1" d="M6.93,33.72a1.77,1.77,0,0,0-.34-.4A1.74,1.74,0,0,0,6,33a4.36,4.36,0,0,0-.85-.25A6.79,6.79,0,0,0,4,32.62H3.74a6.09,6.09,0,0,0-1.21.1,3.85,3.85,0,0,0-.87.29,2,2,0,0,0-.58.41,1.92,1.92,0,0,0-.34.48,1.82,1.82,0,0,0-.16.5,2.6,2.6,0,0,0,0,.46V35a4.26,4.26,0,0,0,0,.47,2,2,0,0,0,.17.5,1.93,1.93,0,0,0,.35.49,2,2,0,0,0,.58.42,3.32,3.32,0,0,0,.86.29,6,6,0,0,0,1.2.11H4a5.77,5.77,0,0,0,1.18-.1A3.92,3.92,0,0,0,6,37a2.54,2.54,0,0,0,.57-.36,1.76,1.76,0,0,0,.34-.41,1.19,1.19,0,0,0,.17-.41,1.48,1.48,0,0,0,0-.34v-.1H5.34a.51.51,0,0,1,0,.09.55.55,0,0,1-.08.15.76.76,0,0,1-.15.17.82.82,0,0,1-.26.16,2.69,2.69,0,0,1-.4.13,3.22,3.22,0,0,1-.58,0A2.31,2.31,0,0,1,3.1,36a1.33,1.33,0,0,1-.47-.28.85.85,0,0,1-.23-.37A1.06,1.06,0,0,1,2.33,35v-.07a1.26,1.26,0,0,1,.06-.38.76.76,0,0,1,.23-.34,1.12,1.12,0,0,1,.46-.25,2.66,2.66,0,0,1,.77-.1,2.34,2.34,0,0,1,.78.1,1.39,1.39,0,0,1,.44.21.57.57,0,0,1,.21.24l.06.16H7.13v-.08a1.48,1.48,0,0,0,0-.34A1.29,1.29,0,0,0,6.93,33.72Z"/><rect class="cls-1" x="11.93" y="32.7" width="1.72" height="4.53"/><polygon class="cls-1" points="23.19 35.28 20.56 32.7 18.62 32.7 18.62 37.23 20.34 37.23 20.34 34.49 23.18 37.23 24.91 37.23 24.91 32.7 23.19 32.7 23.19 35.28"/><polygon class="cls-1" points="31.58 35.48 34.82 35.48 34.82 34.38 31.58 34.38 31.58 33.81 34.88 33.81 34.88 32.7 29.87 32.7 29.87 37.23 34.93 37.23 34.93 36.1 31.58 36.1 31.58 35.48"/><polygon class="cls-1" points="43.58 35.25 42.19 32.7 39.81 32.7 39.81 37.23 41.5 37.23 41.5 34.41 43.08 37.23 43.97 37.23 45.56 34.41 45.56 37.23 47.27 37.23 47.27 32.7 44.99 32.7 43.58 35.25"/><path class="cls-1" d="M54.09,32.7l-2.24,4.53H53.6L54,36.5h2.58l.36.73h1.89L56.41,32.7Zm.39,2.67.74-1.56L56,35.37Z"/><polygon class="cls-1" points="73.35 35.25 71.97 32.7 69.59 32.7 69.59 37.23 71.28 37.23 71.28 34.41 72.86 37.23 73.75 37.23 75.33 34.41 75.33 37.23 77.05 37.23 77.05 32.7 74.77 32.7 73.35 35.25"/><path class="cls-1" d="M83.86,32.7l-2.24,4.53h1.76l.34-.73h2.59l.35.73h1.9L86.19,32.7Zm.39,2.67L85,33.81l.76,1.56Z"/><path class="cls-1" d="M99.17,36.69V36a1,1,0,0,0-.25-.7,1.29,1.29,0,0,0-.68-.37,2.52,2.52,0,0,0,.29-.1,1.66,1.66,0,0,0,.3-.19,1,1,0,0,0,.23-.3.94.94,0,0,0,.1-.43v-.06A1,1,0,0,0,98.7,33a2.72,2.72,0,0,0-1.45-.31H93.13v4.53h1.73V35.69h1.66a1.05,1.05,0,0,1,.72.2.78.78,0,0,1,.2.58V37a.66.66,0,0,0,0,.15.2.2,0,0,0,0,.08h1.77v0A.91.91,0,0,1,99.2,37,1.44,1.44,0,0,1,99.17,36.69Zm-1.8-2.49a.34.34,0,0,1-.12.27.55.55,0,0,1-.4.11h-2v-.77h2a.63.63,0,0,1,.41.11.4.4,0,0,1,.11.27Z"/><polygon class="cls-1" points="110.14 32.7 107.99 32.7 105.76 34.49 105.76 32.7 104.03 32.7 104.03 37.23 105.76 37.23 105.76 35.21 107.97 37.23 110.22 37.23 107.5 34.76 110.14 32.7"/><polygon class="cls-1" points="116.49 35.48 119.73 35.48 119.73 34.38 116.49 34.38 116.49 33.81 119.79 33.81 119.79 32.7 114.78 32.7 114.78 37.23 119.84 37.23 119.84 36.1 116.49 36.1 116.49 35.48"/><polygon class="cls-1" points="124.54 33.94 126.5 33.94 126.5 37.23 128.23 37.23 128.23 33.94 130.18 33.94 130.18 32.7 124.54 32.7 124.54 33.94"/><rect class="cls-1" x="135.01" y="32.7" width="1.72" height="4.53"/><polygon class="cls-1" points="146.27 35.28 143.64 32.7 141.71 32.7 141.71 37.23 143.42 37.23 143.42 34.49 146.26 37.23 147.99 37.23 147.99 32.7 146.27 32.7 146.27 35.28"/><path class="cls-1" d="M156.1,35.56h1.59a.25.25,0,0,1-.07.15.7.7,0,0,1-.26.19,1.58,1.58,0,0,1-.48.16,3.06,3.06,0,0,1-.73.07,2.2,2.2,0,0,1-.72-.1,1.22,1.22,0,0,1-.48-.26,1,1,0,0,1-.27-.36,1.06,1.06,0,0,1-.09-.42v-.07a1.26,1.26,0,0,1,.08-.43.84.84,0,0,1,.25-.35,1.21,1.21,0,0,1,.48-.25,2.68,2.68,0,0,1,.76-.09,3.11,3.11,0,0,1,.76.07,1.75,1.75,0,0,1,.44.17.61.61,0,0,1,.2.19.86.86,0,0,1,.07.14h1.8a2.67,2.67,0,0,0-.05-.35,1.39,1.39,0,0,0-.17-.38,1.48,1.48,0,0,0-.34-.38,2.14,2.14,0,0,0-.57-.32,4.68,4.68,0,0,0-.85-.23,8.3,8.3,0,0,0-1.2-.08H156a5.7,5.7,0,0,0-1.16.1A3.64,3.64,0,0,0,154,33a2.37,2.37,0,0,0-.58.4,1.63,1.63,0,0,0-.37.47,1.55,1.55,0,0,0-.18.51,2.2,2.2,0,0,0-.06.5V35a2.18,2.18,0,0,0,.06.49,2,2,0,0,0,.19.52,2.61,2.61,0,0,0,.35.49,2.3,2.3,0,0,0,.57.4,3.12,3.12,0,0,0,.8.27,5,5,0,0,0,1.09.11H156a4,4,0,0,0,.91-.09,2.75,2.75,0,0,0,.63-.2,1.62,1.62,0,0,0,.4-.23l.22-.19.06.14.06.17a1.21,1.21,0,0,1,.05.18s0,.1,0,.13h1.09V34.68H156.1Z"/><path class="cls-1" d="M80.08.45,72.73,16.13a1,1,0,0,1-1.77,0L63.6.45H38.51V21.69a.56.56,0,0,1-1.07.25l-2.48-5a7.19,7.19,0,0,0,2.64-3.34,10.25,10.25,0,0,0,.59-3.45V9.24a10.13,10.13,0,0,0-.57-3.41,6.36,6.36,0,0,0-2-2.8,10.44,10.44,0,0,0-3.87-1.89A23.21,23.21,0,0,0,25.56.45H0V26.19H13.14V20a.82.82,0,0,1,.82-.82h7.19a2.91,2.91,0,0,1,2.6,1.62l2.68,5.41H51.62V5.26a.53.53,0,0,1,1-.23l9.92,21.16H81.12L93.19.45ZM24.66,9.72a1.64,1.64,0,0,1-.48,1.16,2.6,2.6,0,0,1-1.84.5H13.8a.66.66,0,0,1-.66-.65V8.64A.66.66,0,0,1,13.8,8h8.54a2.66,2.66,0,0,1,1.84.48,1.63,1.63,0,0,1,.48,1.18Z"/><path class="cls-1" d="M159.29,13.82A5.81,5.81,0,0,0,157,11.41a13.11,13.11,0,0,0-4.18-1.48,37.83,37.83,0,0,0-6.35-.63l-5.19-.13c-1,0-1.81-.08-2.45-.16a7.66,7.66,0,0,1-1.53-.31,1.88,1.88,0,0,1-.77-.45,1,1,0,0,1-.23-.64V7.54a1.2,1.2,0,0,1,.14-.57,1,1,0,0,1,.55-.43,4.39,4.39,0,0,1,1.14-.26A16.25,16.25,0,0,1,140,6.19a8,8,0,0,1,2,.21,3.46,3.46,0,0,1,1.17.52,1.56,1.56,0,0,1,.56.67v0a1,1,0,0,0,.94.65H159V8.09A7,7,0,0,0,158.31,5a6.36,6.36,0,0,0-2.62-2.57A16.58,16.58,0,0,0,150.51.64,45.91,45.91,0,0,0,142,0h-4.39a47.09,47.09,0,0,0-7.8.54,16.53,16.53,0,0,0-5,1.55,6.38,6.38,0,0,0-2.7,2.48,6.63,6.63,0,0,0-.8,3.25v.31a8.67,8.67,0,0,0,.52,2.94,5.78,5.78,0,0,0,1.92,2.52,11.56,11.56,0,0,0,3.89,1.84,27.25,27.25,0,0,0,6.47.86l5.43.17a19.51,19.51,0,0,1,2.61.25,5.41,5.41,0,0,1,1.44.41,1.14,1.14,0,0,1,.6.56,1.5,1.5,0,0,1,.13.62v.1a1.43,1.43,0,0,1-.19.68,1.57,1.57,0,0,1-.64.57,4.52,4.52,0,0,1-1.21.39,9.33,9.33,0,0,1-1.91.16,6.69,6.69,0,0,1-2.16-.28,3.11,3.11,0,0,1-1.23-.69,2.1,2.1,0,0,1-.55-.9v0a1.2,1.2,0,0,0-1.15-.87H120.88v.24L112.8.45H94.24L82.17,26.19H95.28l1.24-2.64a1.36,1.36,0,0,1,1.22-.78h11.57a1.36,1.36,0,0,1,1.22.78l1.23,2.64h13.11l-1.24-2.66a10.87,10.87,0,0,0,2.92,1.58,23.2,23.2,0,0,0,4.67,1.16,43.92,43.92,0,0,0,6.68.43h4.53a42.25,42.25,0,0,0,8.92-.76,16.31,16.31,0,0,0,5.35-2,6.7,6.7,0,0,0,2.61-2.87,8.43,8.43,0,0,0,.69-3.34v-.49A7.64,7.64,0,0,0,159.29,13.82Zm-53,3.61h-5.51a.88.88,0,0,1-.8-1.25l3-6.37a.62.62,0,0,1,1.12,0l3,6.37A.88.88,0,0,1,106.28,17.43Z"/></g></g></svg>